<svg width="225" height="34" viewBox="0 0 225 34" fill="none" xmlns="http://www.w3.org/2000/svg">
<path d="M216.091 5.15723L209.656 9.52089L209.715 16.5183L216.15 12.1547L216.091 5.15723Z" fill="#4C3C8D"/>
<path d="M201.111 22.3443L207.364 18.0977V11.0547L201.111 15.3013V22.3443Z" fill="#3FA0D9"/>
<path d="M224.487 27.0463L217.251 24.2109L211.5 28.2104L218.742 31.0458L224.493 27.0463H224.487Z" fill="#4C3C8D"/>
<path d="M201.82 24.4002L208.861 27.1576L214.683 23.1841L207.643 20.4268L201.827 24.4002H201.82Z" fill="#5C79B9"/>
<path d="M210.73 18.3196L209.955 18.8594L216.982 21.6168L223.821 16.9475L216.794 14.1836L210.73 18.3261V18.3196Z" fill="#4C3C8D"/>
<path d="M207.364 0L201.111 4.23359V12.5187L207.364 8.2786V0Z" fill="#3FA0D9"/>
<path d="M165.401 27.2939C165.147 27.2874 164.9 27.3395 164.678 27.4565C164.496 27.5476 164.34 27.6906 164.235 27.8597H164.222V27.476C164.222 27.476 164.222 27.463 164.222 27.45C164.216 27.411 164.177 27.3785 164.138 27.385H163.578C163.578 27.385 163.565 27.385 163.558 27.385C163.519 27.385 163.487 27.4305 163.493 27.4695V31.4755C163.493 31.4755 163.493 31.4885 163.493 31.495C163.493 31.534 163.539 31.5665 163.578 31.56H164.138C164.138 31.56 164.151 31.56 164.164 31.56C164.203 31.56 164.235 31.5145 164.229 31.4755V28.9848C164.216 28.7116 164.314 28.4385 164.496 28.2369C164.678 28.0483 164.932 27.9508 165.193 27.9638C165.46 27.9443 165.72 28.0483 165.896 28.2434C166.066 28.471 166.144 28.7507 166.131 29.0303V31.4755C166.131 31.4755 166.131 31.4885 166.131 31.495C166.131 31.5405 166.176 31.5665 166.215 31.56H166.776C166.776 31.56 166.789 31.56 166.795 31.56C166.841 31.56 166.867 31.5145 166.86 31.4755V28.8547C166.88 28.4385 166.743 28.0288 166.476 27.7101C166.202 27.4175 165.812 27.2614 165.408 27.2809L165.401 27.2939Z" fill="#4C3C8D"/>
<path d="M162.163 28.419C162.065 28.0808 161.85 27.7882 161.557 27.5866C160.913 27.1964 160.112 27.1964 159.467 27.5866C159.174 27.7882 158.959 28.0808 158.861 28.419C158.815 28.5686 158.776 28.7182 158.757 28.8742C158.731 29.0758 158.718 29.2774 158.724 29.479C158.724 29.6806 158.731 29.8822 158.757 30.0838C158.776 30.2399 158.815 30.3895 158.861 30.5391C158.965 30.8772 159.18 31.1699 159.467 31.3715C159.773 31.5731 160.138 31.6771 160.509 31.6706C160.88 31.6836 161.245 31.5796 161.551 31.3715C161.844 31.1699 162.052 30.8772 162.157 30.5391C162.202 30.3895 162.241 30.2399 162.261 30.0838C162.287 29.8822 162.3 29.6806 162.293 29.479C162.293 29.2774 162.287 29.0758 162.261 28.8742C162.241 28.7182 162.202 28.5686 162.157 28.419H162.163ZM161.531 29.9668C161.518 30.0903 161.492 30.2139 161.46 30.3309C161.401 30.526 161.277 30.6951 161.108 30.8122C160.932 30.9292 160.724 30.9878 160.515 30.9813C160.307 30.9878 160.099 30.9292 159.923 30.8122C159.753 30.6951 159.63 30.526 159.571 30.3309C159.538 30.2139 159.512 30.0903 159.499 29.9668C159.48 29.8042 159.473 29.6416 159.48 29.4725C159.48 29.3099 159.48 29.1474 159.499 28.9848C159.512 28.8612 159.538 28.7442 159.571 28.6271C159.63 28.432 159.753 28.2629 159.923 28.1459C160.287 27.9183 160.75 27.9183 161.115 28.1459C161.284 28.2629 161.401 28.432 161.466 28.6271C161.499 28.7442 161.525 28.8612 161.538 28.9848C161.557 29.1474 161.564 29.3099 161.557 29.4725C161.557 29.6351 161.557 29.8042 161.538 29.9668H161.531Z" fill="#4C3C8D"/>
<path d="M157.452 27.3916H156.892C156.892 27.3916 156.879 27.3916 156.873 27.3916C156.834 27.3916 156.801 27.4371 156.807 27.4762V31.4821C156.807 31.4821 156.807 31.4951 156.807 31.5016C156.807 31.5407 156.853 31.5732 156.892 31.5667H157.452C157.452 31.5667 157.465 31.5667 157.472 31.5667C157.517 31.5667 157.543 31.5212 157.537 31.4821V27.4762C157.537 27.4762 157.537 27.4632 157.537 27.4566C157.537 27.4111 157.491 27.3851 157.452 27.3916Z" fill="#4C3C8D"/>
<path d="M154.4 29.1207L153.964 29.0751C153.736 29.0751 153.508 29.0101 153.312 28.8996C153.195 28.8085 153.13 28.6589 153.136 28.5094C153.136 28.3468 153.208 28.1907 153.338 28.0932C153.514 27.9761 153.723 27.9176 153.931 27.9306C154.146 27.9306 154.354 27.9631 154.556 28.0346C154.732 28.0932 154.901 28.1712 155.058 28.2687C155.097 28.3013 155.149 28.2883 155.175 28.2492L155.475 27.8721C155.507 27.82 155.501 27.781 155.455 27.7485C155.26 27.6054 155.045 27.4949 154.81 27.4168C154.537 27.3258 154.257 27.2803 153.97 27.2868C153.56 27.2607 153.149 27.3778 152.817 27.6249C152.544 27.859 152.394 28.2037 152.413 28.5614C152.4 28.867 152.511 29.1597 152.726 29.3743C152.993 29.5954 153.319 29.7255 153.664 29.7385L154.107 29.784C154.335 29.784 154.563 29.8555 154.758 29.9791C154.869 30.0766 154.927 30.2197 154.921 30.3693C154.921 30.5514 154.836 30.7205 154.693 30.8245C154.491 30.9611 154.244 31.0196 154.003 31.0066C153.755 31.0066 153.508 30.9611 153.28 30.8635C153.071 30.779 152.876 30.6684 152.707 30.5254C152.707 30.5254 152.7 30.5124 152.694 30.5124C152.661 30.4863 152.609 30.4928 152.583 30.5254L152.225 30.9091C152.225 30.9091 152.212 30.9221 152.205 30.9286C152.179 30.9611 152.186 31.0066 152.225 31.0326C152.433 31.2082 152.661 31.3513 152.908 31.4553C153.065 31.5204 153.221 31.5724 153.384 31.6049C153.573 31.6439 153.762 31.6634 153.951 31.6634C154.4 31.6959 154.849 31.5659 155.208 31.2927C155.501 31.0456 155.657 30.6814 155.644 30.2978C155.657 29.9986 155.546 29.6995 155.331 29.4848C155.064 29.2572 154.732 29.1272 154.38 29.1207H154.4Z" fill="#4C3C8D"/>
<path d="M150.121 29.1207L149.684 29.0751C149.456 29.0751 149.228 29.0101 149.033 28.8996C148.916 28.8085 148.851 28.6589 148.857 28.5094C148.857 28.3468 148.929 28.1907 149.059 28.0932C149.235 27.9761 149.443 27.9176 149.652 27.9306C149.867 27.9306 150.075 27.9631 150.277 28.0346C150.453 28.0932 150.622 28.1712 150.778 28.2687C150.817 28.3013 150.87 28.2883 150.896 28.2492L151.195 27.8721C151.228 27.82 151.221 27.781 151.176 27.7485C150.98 27.6054 150.765 27.4949 150.531 27.4168C150.257 27.3258 149.977 27.2803 149.691 27.2868C149.28 27.2607 148.87 27.3778 148.538 27.6249C148.264 27.859 148.115 28.2037 148.134 28.5614C148.121 28.867 148.232 29.1597 148.447 29.3743C148.714 29.5954 149.039 29.7255 149.385 29.7385L149.828 29.784C150.055 29.784 150.283 29.8555 150.479 29.9791C150.59 30.0766 150.648 30.2197 150.642 30.3693C150.642 30.5514 150.557 30.7205 150.414 30.8245C150.212 30.9611 149.964 31.0196 149.723 31.0066C149.476 31.0066 149.228 30.9611 149 30.8635C148.792 30.779 148.597 30.6684 148.427 30.5254C148.427 30.5254 148.421 30.5124 148.414 30.5124C148.382 30.4863 148.33 30.4928 148.304 30.5254L147.945 30.9091C147.945 30.9091 147.932 30.9221 147.926 30.9286C147.9 30.9611 147.906 31.0066 147.945 31.0326C148.154 31.2082 148.382 31.3513 148.629 31.4553C148.785 31.5204 148.942 31.5724 149.105 31.6049C149.293 31.6439 149.482 31.6634 149.671 31.6634C150.121 31.6959 150.57 31.5659 150.928 31.2927C151.221 31.0456 151.378 30.6814 151.365 30.2978C151.378 29.9986 151.267 29.706 151.058 29.4848C150.791 29.2572 150.459 29.1272 150.108 29.1207H150.121Z" fill="#4C3C8D"/>
<path d="M146.722 27.3916H146.162C146.162 27.3916 146.149 27.3916 146.142 27.3916C146.103 27.3916 146.07 27.4371 146.077 27.4762V31.4821C146.077 31.4821 146.077 31.4951 146.077 31.5016C146.077 31.5407 146.123 31.5732 146.162 31.5667H146.722C146.722 31.5667 146.735 31.5667 146.741 31.5667C146.787 31.5667 146.813 31.5212 146.806 31.4821V27.4762C146.806 27.4762 146.806 27.4632 146.806 27.4566C146.806 27.4111 146.761 27.3851 146.722 27.3916Z" fill="#4C3C8D"/>
<path d="M143.187 27.2938C142.907 27.2873 142.627 27.3458 142.379 27.4694C142.164 27.5865 141.975 27.749 141.832 27.9506H141.826C141.715 27.749 141.546 27.58 141.344 27.4694C141.116 27.3523 140.862 27.2938 140.608 27.3003C140.354 27.2938 140.106 27.3458 139.885 27.4629C139.702 27.5539 139.546 27.697 139.442 27.8661H139.435V27.4824C139.435 27.4824 139.435 27.4694 139.435 27.4629C139.435 27.4174 139.39 27.3914 139.351 27.3979H138.791C138.791 27.3979 138.778 27.3979 138.771 27.3979C138.732 27.3979 138.699 27.4434 138.706 27.4824V31.4884C138.706 31.4884 138.706 31.5014 138.706 31.5079C138.706 31.5469 138.752 31.5794 138.791 31.5729H139.351C139.351 31.5729 139.364 31.5729 139.37 31.5729C139.416 31.5729 139.442 31.5274 139.435 31.4884V28.9977C139.422 28.7245 139.514 28.4579 139.702 28.2498C139.885 28.0612 140.139 27.9636 140.399 27.9767C140.666 27.9571 140.927 28.0612 141.103 28.2563C141.272 28.4839 141.35 28.7635 141.337 29.0432V31.4884C141.337 31.4884 141.337 31.5014 141.337 31.5079C141.337 31.5534 141.383 31.5794 141.422 31.5729H141.982C141.982 31.5729 141.995 31.5729 142.008 31.5729C142.047 31.5729 142.08 31.5274 142.073 31.4884V28.9977C142.06 28.7245 142.158 28.4514 142.347 28.2498C142.529 28.0677 142.776 27.9636 143.037 27.9767C143.304 27.9571 143.564 28.0612 143.74 28.2563C143.91 28.4839 143.988 28.7635 143.975 29.0432V31.4884C143.975 31.4884 143.975 31.5014 143.975 31.5079C143.975 31.5534 144.02 31.5794 144.059 31.5729H144.62C144.62 31.5729 144.633 31.5729 144.639 31.5729C144.678 31.5729 144.711 31.5274 144.704 31.4884V28.8676C144.724 28.4514 144.594 28.0417 144.327 27.723C144.033 27.4239 143.63 27.2678 143.213 27.2938H143.187Z" fill="#4C3C8D"/>
<path d="M135.808 27.2938C135.528 27.2873 135.248 27.3458 135 27.4694C134.785 27.5865 134.596 27.749 134.453 27.9506H134.447C134.336 27.749 134.167 27.58 133.965 27.4694C133.737 27.3523 133.483 27.2938 133.229 27.3003C132.975 27.2938 132.727 27.3458 132.506 27.4629C132.323 27.5539 132.167 27.697 132.063 27.8661H132.056V27.4824C132.056 27.4824 132.056 27.4694 132.056 27.4629C132.056 27.4174 132.011 27.3914 131.972 27.3979H131.412C131.412 27.3979 131.399 27.3979 131.392 27.3979C131.353 27.3979 131.32 27.4434 131.327 27.4824V31.4884C131.327 31.4884 131.327 31.5014 131.327 31.5079C131.327 31.5469 131.373 31.5794 131.412 31.5729H131.972C131.972 31.5729 131.985 31.5729 131.991 31.5729C132.037 31.5729 132.063 31.5274 132.056 31.4884V28.9977C132.043 28.7245 132.135 28.4579 132.323 28.2498C132.506 28.0612 132.76 27.9636 133.02 27.9767C133.287 27.9571 133.548 28.0612 133.724 28.2563C133.893 28.4839 133.971 28.7635 133.958 29.0432V31.4884C133.958 31.4884 133.958 31.5014 133.958 31.5079C133.958 31.5534 134.004 31.5794 134.043 31.5729H134.603C134.603 31.5729 134.616 31.5729 134.629 31.5729C134.668 31.5729 134.701 31.5274 134.694 31.4884V28.9977C134.681 28.7245 134.779 28.4514 134.968 28.2498C135.15 28.0677 135.398 27.9636 135.658 27.9767C135.925 27.9571 136.186 28.0612 136.361 28.2563C136.531 28.4839 136.609 28.7635 136.589 29.0432V31.4884C136.589 31.4884 136.589 31.5014 136.589 31.5079C136.589 31.5534 136.635 31.5794 136.674 31.5729H137.234C137.234 31.5729 137.247 31.5729 137.254 31.5729C137.293 31.5729 137.325 31.5274 137.319 31.4884V28.8676C137.338 28.4514 137.202 28.0417 136.941 27.723C136.648 27.4239 136.244 27.2678 135.827 27.2938H135.808Z" fill="#4C3C8D"/>
<path d="M102.513 27.2941C102.233 27.2941 101.953 27.3267 101.686 27.4047C101.471 27.4697 101.269 27.5673 101.093 27.7038C101.061 27.7364 101.054 27.7884 101.074 27.8274L101.308 28.2306C101.341 28.2761 101.38 28.2826 101.432 28.2371C101.562 28.1461 101.699 28.0745 101.849 28.0225C102.044 27.964 102.24 27.9315 102.442 27.938C102.722 27.9054 103.002 27.977 103.236 28.1266C103.392 28.2956 103.471 28.5233 103.445 28.7509V29.0565C103.445 29.0565 103.445 29.063 103.445 29.0695C103.445 29.0955 103.418 29.115 103.392 29.1085H102.442C102.018 29.0825 101.595 29.1931 101.237 29.4207C100.937 29.6548 100.774 30.0255 100.807 30.4027C100.807 30.5913 100.839 30.7799 100.918 30.9555C100.983 31.105 101.087 31.2416 101.217 31.3522C101.347 31.4627 101.497 31.5407 101.66 31.5863C101.842 31.6383 102.025 31.6643 102.214 31.6643C102.487 31.6773 102.754 31.6188 103.002 31.5082C103.184 31.4237 103.347 31.2871 103.458 31.118H103.464V31.4822C103.464 31.4822 103.464 31.4952 103.464 31.5017C103.464 31.5407 103.51 31.5733 103.549 31.5668H104.057C104.057 31.5668 104.07 31.5668 104.076 31.5668C104.115 31.5668 104.148 31.5212 104.141 31.4822V28.7183C104.18 28.3152 104.044 27.9185 103.77 27.6258C103.399 27.3722 102.956 27.2551 102.507 27.3006L102.513 27.2941ZM103.451 30.2206C103.464 30.4547 103.36 30.6823 103.171 30.8254C102.943 30.9815 102.67 31.053 102.389 31.04C102.162 31.0595 101.934 31.001 101.738 30.8774C101.582 30.7604 101.497 30.5783 101.51 30.3897C101.491 30.1881 101.588 29.9865 101.758 29.8694C102.005 29.7459 102.279 29.6873 102.559 29.7068H103.405C103.405 29.7068 103.412 29.7068 103.418 29.7068C103.445 29.7068 103.464 29.7329 103.458 29.7589V30.2206H103.451Z" fill="#4C3C8D"/>
<path d="M90.842 27.2941C90.5619 27.2941 90.2819 27.3267 90.0083 27.4047C89.7934 27.4697 89.5915 27.5673 89.4157 27.7038C89.3831 27.7364 89.3766 27.7884 89.3961 27.8274L89.6306 28.2306C89.6632 28.2761 89.7022 28.2826 89.7543 28.2371C89.8846 28.1461 90.0214 28.0745 90.1712 28.0225C90.3665 27.964 90.5619 27.9315 90.7638 27.938C91.0439 27.9054 91.3239 27.977 91.5584 28.1266C91.7147 28.2956 91.7929 28.5233 91.7668 28.7509V29.0565C91.7668 29.0565 91.7668 29.063 91.7668 29.0695C91.7668 29.0955 91.7408 29.115 91.7147 29.1085H90.7638C90.3405 29.0825 89.9172 29.1931 89.5589 29.4207C89.2594 29.6548 89.0965 30.0255 89.1291 30.4027C89.1291 30.5913 89.1617 30.7799 89.2398 30.9555C89.305 31.105 89.4092 31.2416 89.5394 31.3522C89.6697 31.4627 89.8195 31.5407 89.9823 31.5863C90.1646 31.6383 90.347 31.6643 90.5359 31.6643C90.8094 31.6773 91.0764 31.6188 91.3239 31.5082C91.5063 31.4237 91.6691 31.2871 91.7798 31.118H91.7863V31.4822C91.7863 31.4822 91.7863 31.4952 91.7863 31.5017C91.7863 31.5407 91.8319 31.5733 91.871 31.5668H92.379C92.379 31.5668 92.392 31.5668 92.3985 31.5668C92.4376 31.5668 92.4702 31.5212 92.4637 31.4822V28.7183C92.5028 28.3152 92.366 27.9185 92.0924 27.6258C91.7212 27.3722 91.2783 27.2551 90.829 27.3006L90.842 27.2941ZM91.7798 30.2206C91.7929 30.4547 91.6887 30.6823 91.4998 30.8254C91.2718 30.9815 90.9983 31.053 90.7182 31.04C90.4903 31.0595 90.2623 31.001 90.0669 30.8774C89.9106 30.7604 89.826 30.5783 89.839 30.3897C89.8195 30.1881 89.9172 29.9865 90.0865 29.8694C90.334 29.7459 90.6075 29.6873 90.8876 29.7068H91.7342C91.7342 29.7068 91.7407 29.7068 91.7473 29.7068C91.7733 29.7068 91.7929 29.7329 91.7863 29.7589V30.2206H91.7798Z" fill="#4C3C8D"/>
<path d="M88.3789 27.3916H87.7862C87.7341 27.3916 87.6885 27.4306 87.682 27.4761L86.6269 30.4806H86.6074L85.5262 27.4761C85.5132 27.4241 85.4676 27.3916 85.4155 27.3916H84.8098C84.7447 27.3916 84.7252 27.4176 84.7382 27.4761L86.2426 31.4886C86.2492 31.5407 86.2948 31.5797 86.3469 31.5732H86.8483C86.9005 31.5732 86.9526 31.5342 86.9591 31.4821L88.457 27.4761C88.4766 27.4176 88.457 27.3916 88.3854 27.3916H88.3789Z" fill="#4C3C8D"/>
<path d="M76.832 27.3913H76.2719C76.2719 27.3913 76.2589 27.3913 76.2523 27.3913C76.2067 27.3913 76.1807 27.4368 76.1872 27.4759V27.866H76.1807C76.083 27.6905 75.9332 27.5474 75.7574 27.4498C75.2298 27.2092 74.6241 27.2482 74.1291 27.5474C73.8817 27.736 73.6993 28.0026 73.6146 28.3018C73.5625 28.4578 73.5235 28.6204 73.5039 28.783C73.4648 29.1927 73.4648 29.6024 73.5039 30.0121C73.5235 30.1747 73.5625 30.3373 73.6146 30.4933C73.6993 30.7925 73.8817 31.0591 74.1291 31.2477C74.3897 31.4298 74.7023 31.5209 75.0214 31.5078C75.2754 31.5209 75.5294 31.4623 75.7574 31.3518C75.9332 31.2542 76.083 31.1047 76.1807 30.9291H76.1872V31.4233C76.2133 31.729 76.1156 32.0411 75.9202 32.2817C75.7053 32.4768 75.4187 32.5809 75.1321 32.5549C74.9498 32.5549 74.7609 32.5224 74.5916 32.4443C74.4287 32.3663 74.2724 32.2622 74.1422 32.1322L74.1291 32.1192C74.0901 32.0866 74.038 32.0931 74.0119 32.1322L73.6537 32.4898H73.6407C73.6081 32.5289 73.6081 32.5809 73.6407 32.6134C73.797 32.815 74.0119 32.9711 74.2464 33.0621C74.5134 33.1792 74.8 33.2312 75.0931 33.2312H75.0865C75.588 33.2637 76.0765 33.0946 76.4477 32.7565C76.7799 32.3793 76.9492 31.885 76.9166 31.3843V27.4759C76.9166 27.4759 76.9166 27.4628 76.9166 27.4563C76.9166 27.4108 76.8711 27.3848 76.8255 27.3913H76.832ZM76.1612 29.8625C76.1481 29.9796 76.1221 30.0967 76.0895 30.2137C75.9788 30.6104 75.6011 30.8705 75.1907 30.838C74.7869 30.864 74.4157 30.6039 74.305 30.2137C74.2268 29.9536 74.1943 29.6804 74.2008 29.4073C74.2008 29.2577 74.2073 29.1082 74.2268 28.9586C74.2399 28.835 74.2659 28.718 74.305 28.5944C74.4027 28.3343 74.6046 28.1327 74.8651 28.0351C75.3601 27.853 75.9072 28.1002 76.0895 28.5944C76.1286 28.7115 76.1481 28.8285 76.1612 28.9456C76.1742 29.0952 76.1872 29.2512 76.1807 29.4008C76.1807 29.5569 76.1807 29.7065 76.1612 29.8625Z" fill="#4C3C8D"/>
<path d="M67.4601 27.3916H66.9C66.9 27.3916 66.8869 27.3916 66.8804 27.3916C66.8413 27.3916 66.8088 27.4371 66.8153 27.4762V31.4821C66.8153 31.4821 66.8153 31.4951 66.8153 31.5016C66.8153 31.5407 66.8609 31.5732 66.9 31.5667H67.4601C67.4601 31.5667 67.4731 31.5667 67.4796 31.5667C67.5252 31.5667 67.5512 31.5212 67.5447 31.4821V27.4762C67.5447 27.4762 67.5447 27.4632 67.5447 27.4566C67.5447 27.4111 67.4991 27.3851 67.4601 27.3916Z" fill="#4C3C8D"/>
<path d="M63.969 27.2943C63.715 27.2878 63.4675 27.3398 63.2461 27.4569C63.0637 27.5479 62.9074 27.691 62.8032 27.86H62.7967V27.4764C62.7967 27.4764 62.7967 27.4634 62.7967 27.4569C62.7967 27.4178 62.7511 27.3853 62.712 27.3918H62.1519C62.1519 27.3918 62.1389 27.3918 62.1324 27.3918C62.0933 27.3918 62.0607 27.4373 62.0672 27.4764V31.4823C62.0672 31.4823 62.0672 31.4953 62.0672 31.5018C62.0672 31.5409 62.1128 31.5734 62.1519 31.5669H62.712C62.712 31.5669 62.725 31.5669 62.7315 31.5669C62.7706 31.5669 62.8032 31.5214 62.7967 31.4823V28.9916C62.7837 28.7185 62.8813 28.4453 63.0637 28.2437C63.2461 28.0551 63.5001 27.9576 63.7606 27.9706C64.0276 27.9511 64.2881 28.0551 64.464 28.2502C64.6333 28.4779 64.7115 28.7575 64.6984 29.0371V31.4823C64.6984 31.4823 64.6984 31.4953 64.6984 31.5018C64.6984 31.5409 64.744 31.5734 64.7831 31.5669H65.3432C65.3432 31.5669 65.3562 31.5669 65.3627 31.5669C65.4018 31.5669 65.4344 31.5214 65.4279 31.4823V28.8615C65.4474 28.4453 65.3106 28.0356 65.0436 27.717C64.7701 27.4243 64.3793 27.2683 63.9755 27.2878L63.969 27.2943Z" fill="#4C3C8D"/>
<path d="M60.5382 27.3916H59.9781C59.9781 27.3916 59.9651 27.3916 59.9585 27.3916C59.9195 27.3916 59.8869 27.4371 59.8934 27.4762V31.4821C59.8934 31.4821 59.8934 31.4951 59.8934 31.5016C59.8934 31.5407 59.939 31.5732 59.9781 31.5667H60.5382C60.5382 31.5667 60.5512 31.5667 60.5577 31.5667C60.6033 31.5667 60.6294 31.5212 60.6229 31.4821V27.4762C60.6229 27.4762 60.6229 27.4632 60.6229 27.4566C60.6229 27.4111 60.5773 27.3851 60.5382 27.3916Z" fill="#4C3C8D"/>
<path d="M54.3122 27.379C54.1625 27.3204 53.9996 27.2944 53.8368 27.2944C53.5958 27.2879 53.3549 27.3465 53.1399 27.4635C52.9641 27.5676 52.8208 27.7236 52.7231 27.9057H52.7166V27.4765C52.7166 27.4765 52.7166 27.4635 52.7166 27.457C52.7166 27.4115 52.671 27.3855 52.6319 27.392H52.0718C52.0718 27.392 52.0588 27.392 52.0523 27.392C52.0132 27.392 51.9806 27.4375 51.9872 27.4765V31.4825C51.9872 31.4825 51.9872 31.4955 51.9872 31.502C51.9872 31.541 52.0328 31.5735 52.0718 31.567H52.6254C52.6254 31.567 52.6384 31.567 52.645 31.567C52.6906 31.567 52.7166 31.5215 52.7101 31.4825V29.1934C52.6971 28.8812 52.7687 28.5756 52.9185 28.3089C53.0683 28.0813 53.3353 27.9513 53.6089 27.9708C53.7261 27.9708 53.8368 27.9903 53.9475 28.0228C54.0582 28.0618 54.1559 28.1073 54.2536 28.1724C54.2536 28.1724 54.2667 28.1854 54.2732 28.1854C54.3122 28.2049 54.3578 28.1919 54.3774 28.1529L54.703 27.7236C54.7291 27.6846 54.7226 27.6326 54.6835 27.6001C54.5728 27.496 54.4425 27.418 54.3057 27.366L54.3122 27.379Z" fill="#4C3C8D"/>
<path d="M157.467 25.6354H156.875C156.875 25.6354 156.862 25.6354 156.855 25.6354C156.81 25.6354 156.784 25.6809 156.79 25.72V26.3508C156.79 26.3508 156.79 26.3638 156.79 26.3703C156.79 26.4093 156.836 26.4418 156.875 26.4353H157.467C157.467 26.4353 157.48 26.4353 157.487 26.4353C157.533 26.4353 157.559 26.3898 157.552 26.3508V25.7135C157.552 25.7135 157.552 25.7005 157.552 25.6939C157.552 25.6484 157.506 25.6224 157.461 25.6289L157.467 25.6354Z" fill="#4C3C8D"/>
<path d="M183.792 5.15723L190.22 9.52089L190.161 16.5183L183.727 12.1547L183.785 5.15723H183.792Z" fill="#44AC52"/>
<path d="M198.778 22.3443L192.525 18.0977V11.0547L198.778 15.3013V22.3378V22.3443Z" fill="#51B4C2"/>
<path d="M175.397 27.0463L182.633 24.2109L188.384 28.2104L181.141 31.0458L175.391 27.0463H175.397Z" fill="#44AC52"/>
<path d="M198.068 24.4002L191.028 27.1576L185.205 23.1841L192.245 20.4268L198.061 24.4002H198.068Z" fill="#4CB27B"/>
<path d="M189.159 18.3196L189.934 18.8594L182.907 21.6168L176.068 16.9475L183.096 14.1836L189.159 18.3261V18.3196Z" fill="#44AC52"/>
<path d="M192.525 0V8.27209L198.771 12.5122V4.23359L192.525 0Z" fill="#51B4C2"/>
<path d="M129.983 28.419C129.879 28.0808 129.671 27.7882 129.378 27.5866C128.733 27.1964 127.932 27.1964 127.287 27.5866C126.994 27.7882 126.779 28.0808 126.681 28.419C126.636 28.5686 126.597 28.7182 126.577 28.8742C126.551 29.0758 126.538 29.2774 126.545 29.479C126.545 29.6806 126.551 29.8822 126.577 30.0838C126.597 30.2399 126.636 30.3895 126.681 30.5391C126.786 30.8772 127.001 31.1699 127.287 31.3715C127.593 31.5731 127.958 31.6771 128.329 31.6706C128.7 31.6836 129.065 31.5796 129.371 31.3715C129.664 31.1699 129.873 30.8772 129.977 30.5391C130.022 30.3895 130.062 30.2399 130.081 30.0838C130.107 29.8822 130.12 29.6806 130.114 29.479C130.114 29.2774 130.107 29.0758 130.081 28.8742C130.062 28.7182 130.022 28.5686 129.977 28.419H129.983ZM129.352 29.9668C129.339 30.0903 129.313 30.2139 129.28 30.3309C129.221 30.526 129.098 30.6951 128.928 30.8122C128.752 30.9292 128.544 30.9878 128.336 30.9813C128.127 30.9878 127.919 30.9292 127.743 30.8122C127.574 30.6951 127.45 30.526 127.391 30.3309C127.359 30.2139 127.333 30.0903 127.32 29.9668C127.3 29.8042 127.294 29.6416 127.3 29.4725C127.3 29.3099 127.3 29.1474 127.32 28.9848C127.333 28.8612 127.359 28.7442 127.391 28.6271C127.45 28.432 127.574 28.2629 127.743 28.1459C128.108 27.9183 128.57 27.9183 128.928 28.1459C129.098 28.2629 129.215 28.432 129.28 28.6271C129.313 28.7442 129.339 28.8612 129.352 28.9848C129.371 29.1474 129.378 29.3099 129.371 29.4725C129.371 29.6351 129.371 29.8042 129.352 29.9668Z" fill="#4C3C8D"/>
<path d="M116.905 27.2943C116.651 27.2878 116.403 27.3398 116.182 27.4569C115.999 27.5479 115.843 27.691 115.739 27.86H115.732V27.4764C115.732 27.4764 115.732 27.4634 115.732 27.4503C115.726 27.4113 115.687 27.3788 115.648 27.3853H115.087C115.087 27.3853 115.074 27.3853 115.068 27.3853C115.029 27.3853 114.996 27.4308 115.003 27.4699V31.4758C115.003 31.4758 115.003 31.4888 115.003 31.4953C115.003 31.5344 115.048 31.5669 115.087 31.5604H115.654C115.654 31.5604 115.667 31.5604 115.68 31.5604C115.719 31.5604 115.752 31.5149 115.745 31.4758V28.9916C115.732 28.7185 115.823 28.4453 116.006 28.2437C116.188 28.0551 116.442 27.9576 116.703 27.9706C116.97 27.9511 117.23 28.0551 117.406 28.2502C117.575 28.4779 117.654 28.7575 117.634 29.0371V31.4823C117.634 31.4823 117.634 31.4953 117.634 31.5019C117.634 31.5474 117.68 31.5734 117.719 31.5669H118.279C118.279 31.5669 118.292 31.5669 118.298 31.5669C118.344 31.5669 118.37 31.5214 118.363 31.4823V28.8615C118.383 28.4453 118.246 28.0356 117.979 27.717C117.706 27.4243 117.315 27.2683 116.911 27.2878L116.905 27.2943Z" fill="#4C3C8D"/>
<path d="M113.675 28.419C113.577 28.0808 113.362 27.7882 113.069 27.5866C112.424 27.1964 111.623 27.1964 110.978 27.5866C110.685 27.7882 110.471 28.0808 110.373 28.419C110.327 28.5686 110.288 28.7182 110.269 28.8742C110.243 29.0758 110.23 29.2774 110.236 29.479C110.236 29.6806 110.243 29.8822 110.269 30.0838C110.288 30.2399 110.327 30.3895 110.373 30.5391C110.477 30.8772 110.692 31.1699 110.978 31.3715C111.285 31.5731 111.649 31.6771 112.021 31.6706C112.392 31.6836 112.757 31.5796 113.063 31.3715C113.356 31.1699 113.564 30.8772 113.668 30.5391C113.714 30.3895 113.753 30.2399 113.773 30.0838C113.799 29.8822 113.812 29.6806 113.805 29.479C113.805 29.2774 113.799 29.0758 113.773 28.8742C113.753 28.7182 113.714 28.5686 113.668 28.419H113.675ZM113.043 29.9668C113.03 30.0903 113.004 30.2139 112.971 30.3309C112.913 30.526 112.789 30.6951 112.62 30.8122C112.444 30.9292 112.235 30.9878 112.027 30.9813C111.819 30.9878 111.61 30.9292 111.434 30.8122C111.265 30.6951 111.141 30.526 111.083 30.3309C111.05 30.2139 111.024 30.0903 111.011 29.9668C110.992 29.8042 110.985 29.6416 110.992 29.4725C110.992 29.3099 110.992 29.1474 111.011 28.9848C111.024 28.8612 111.05 28.7442 111.083 28.6271C111.141 28.432 111.265 28.2629 111.434 28.1459C111.799 27.9183 112.262 27.9183 112.62 28.1459C112.789 28.2629 112.906 28.432 112.971 28.6271C113.004 28.7442 113.03 28.8612 113.043 28.9848C113.063 29.1474 113.069 29.3099 113.063 29.4725C113.063 29.6351 113.063 29.8042 113.043 29.9668Z" fill="#4C3C8D"/>
<path d="M108.96 27.3916H108.4C108.4 27.3916 108.387 27.3916 108.38 27.3916C108.341 27.3916 108.309 27.4371 108.315 27.4762V31.4821C108.315 31.4821 108.315 31.4951 108.315 31.5016C108.315 31.5407 108.361 31.5732 108.4 31.5667H108.96C108.96 31.5667 108.973 31.5667 108.98 31.5667C109.025 31.5667 109.051 31.5212 109.045 31.4821V27.4762C109.045 27.4762 109.045 27.4632 109.045 27.4566C109.045 27.4111 108.999 27.3851 108.96 27.3916Z" fill="#4C3C8D"/>
<path d="M70.8909 27.2943C70.6369 27.2878 70.3894 27.3398 70.1679 27.4569C69.9856 27.5479 69.8293 27.691 69.7251 27.86H69.7186V27.4764C69.7186 27.4764 69.7186 27.4634 69.7186 27.4569C69.7186 27.4178 69.673 27.3853 69.6339 27.3918H69.0738C69.0738 27.3918 69.0608 27.3918 69.0542 27.3918C69.0152 27.3918 68.9826 27.4373 68.9891 27.4764V31.4823C68.9891 31.4823 68.9891 31.4953 68.9891 31.5018C68.9891 31.5409 69.0347 31.5734 69.0738 31.5669H69.6339C69.6339 31.5669 69.6469 31.5669 69.6534 31.5669C69.6925 31.5669 69.7251 31.5214 69.7186 31.4823V28.9916C69.7055 28.7185 69.8032 28.4453 69.9856 28.2437C70.1679 28.0551 70.4219 27.9576 70.6825 27.9706C70.9495 27.9511 71.21 28.0551 71.3858 28.2502C71.5552 28.4779 71.6333 28.7575 71.6203 29.0371V31.4823C71.6203 31.4823 71.6203 31.4953 71.6203 31.5018C71.6203 31.5409 71.6659 31.5734 71.705 31.5669H72.2651C72.2651 31.5669 72.2781 31.5669 72.2846 31.5669C72.3237 31.5669 72.3563 31.5214 72.3497 31.4823V28.8615C72.3693 28.4453 72.2325 28.0356 71.9655 27.717C71.6919 27.4243 71.3012 27.2683 70.8974 27.2878L70.8909 27.2943Z" fill="#4C3C8D"/>
<path d="M56.8498 27.2941C56.5697 27.2941 56.2897 27.3267 56.0162 27.4047C55.8012 27.4697 55.5993 27.5673 55.4235 27.7038C55.3909 27.7364 55.3844 27.7884 55.4039 27.8274L55.6384 28.2306C55.671 28.2761 55.71 28.2826 55.7622 28.2371C55.8924 28.1461 56.0292 28.0745 56.179 28.0225C56.3744 27.964 56.5697 27.9315 56.7716 27.938C57.0517 27.9054 57.3317 27.977 57.5662 28.1266C57.7225 28.2956 57.8007 28.5233 57.7746 28.7509V29.0565C57.7746 29.0565 57.7746 29.063 57.7746 29.0695C57.7746 29.0955 57.7486 29.115 57.7225 29.1085H56.7716C56.3483 29.0825 55.925 29.1931 55.5668 29.4207C55.2672 29.6548 55.1044 30.0255 55.1369 30.4027C55.1369 30.5913 55.1695 30.7799 55.2476 30.9555C55.3128 31.105 55.417 31.2416 55.5472 31.3522C55.6775 31.4627 55.8273 31.5407 55.9901 31.5863C56.1725 31.6383 56.3548 31.6643 56.5437 31.6643C56.8172 31.6773 57.0843 31.6188 57.3317 31.5082C57.5141 31.4237 57.6769 31.2871 57.7876 31.118H57.7942V31.4822C57.7942 31.4822 57.7942 31.4952 57.7942 31.5017C57.7942 31.5407 57.8397 31.5733 57.8788 31.5668H58.3868C58.3868 31.5668 58.3999 31.5668 58.4064 31.5668C58.4454 31.5668 58.478 31.5212 58.4715 31.4822V28.7183C58.5106 28.3152 58.3738 27.9185 58.1003 27.6258C57.729 27.3722 57.2862 27.2551 56.8368 27.3006L56.8498 27.2941ZM57.7876 30.2206C57.8007 30.4547 57.6965 30.6823 57.5076 30.8254C57.2796 30.9815 57.0061 31.053 56.726 31.04C56.4981 31.0595 56.2701 31.001 56.0748 30.8774C55.9185 30.7604 55.8338 30.5783 55.8468 30.3897C55.8273 30.1881 55.925 29.9865 56.0943 29.8694C56.3418 29.7459 56.6153 29.6873 56.8954 29.7068H57.7421C57.7421 29.7068 57.7486 29.7068 57.7551 29.7068C57.7811 29.7068 57.8007 29.7329 57.7942 29.7589V30.2206H57.7876Z" fill="#4C3C8D"/>
<path d="M146.735 25.6364H146.142C146.142 25.6364 146.129 25.6364 146.123 25.6364C146.077 25.6364 146.051 25.6819 146.058 25.7209V26.3518C146.058 26.3518 146.058 26.3648 146.058 26.3713C146.058 26.4103 146.103 26.4428 146.142 26.4363H146.735C146.735 26.4363 146.748 26.4363 146.755 26.4363C146.8 26.4363 146.826 26.3908 146.82 26.3518V25.7144C146.82 25.7144 146.82 25.7014 146.82 25.6949C146.82 25.6494 146.774 25.6234 146.728 25.6299L146.735 25.6364Z" fill="#4C3C8D"/>
<path d="M125.132 30.0968C125.132 30.0968 125.113 30.0838 125.106 30.0838C125.067 30.0708 125.021 30.0968 125.015 30.1423C124.904 30.3634 124.748 30.5585 124.553 30.7146C124.331 30.8707 124.064 30.9487 123.791 30.9357C123.51 30.9487 123.237 30.8707 123.002 30.7081C122.794 30.539 122.638 30.3179 122.56 30.0643C122.54 30.0058 122.527 29.9407 122.514 29.8627C122.494 29.7717 122.488 29.6806 122.481 29.5896C122.475 29.479 122.468 29.3489 122.462 29.1864C122.462 29.0238 122.455 28.8287 122.455 28.5946C122.455 28.3605 122.455 28.1654 122.462 28.0028C122.462 27.8402 122.475 27.7101 122.481 27.5996C122.481 27.5085 122.501 27.4175 122.514 27.3264C122.527 27.2549 122.547 27.1899 122.56 27.1183C122.644 26.8647 122.794 26.6371 123.002 26.4745C123.23 26.3119 123.51 26.2339 123.791 26.2469C124.064 26.2339 124.331 26.3119 124.553 26.468C124.748 26.6241 124.904 26.8192 125.015 27.0403C125.015 27.0533 125.021 27.0598 125.028 27.0663C125.054 27.0988 125.1 27.1053 125.139 27.0793L125.66 26.8257C125.699 26.8062 125.718 26.7542 125.692 26.7151C125.542 26.351 125.282 26.0388 124.943 25.8307C124.598 25.6161 124.194 25.5121 123.784 25.5186C123.348 25.5055 122.911 25.6226 122.54 25.8632C122.182 26.1234 121.921 26.494 121.804 26.9167C121.772 27.0013 121.752 27.0923 121.732 27.1834C121.706 27.2874 121.693 27.398 121.687 27.5085C121.674 27.6321 121.667 27.7817 121.661 27.9573C121.654 28.1328 121.654 28.3409 121.654 28.5881C121.654 28.8352 121.654 29.0433 121.661 29.2189C121.667 29.3945 121.674 29.544 121.687 29.6676C121.693 29.7782 121.713 29.8887 121.732 29.9928C121.752 30.0838 121.778 30.1749 121.804 30.2594C121.921 30.6756 122.182 31.0463 122.54 31.3064C122.911 31.547 123.341 31.6641 123.784 31.6511C124.194 31.6576 124.592 31.5535 124.943 31.3389C125.275 31.1243 125.536 30.8187 125.692 30.4545C125.712 30.4155 125.692 30.3635 125.66 30.3439L125.139 30.0903L125.132 30.0968Z" fill="#4C3C8D"/>
<path d="M99.4972 27.3915H98.9371C98.9371 27.3915 98.9241 27.3915 98.9176 27.3915C98.8785 27.3915 98.8459 27.437 98.8524 27.476V29.9537C98.8654 30.2269 98.7743 30.5 98.5919 30.7016C98.4161 30.8902 98.1621 30.9942 97.9081 30.9812C97.641 31.0007 97.387 30.8967 97.2112 30.7016C97.0484 30.474 96.9637 30.1878 96.9832 29.9082V27.476C96.9832 27.476 96.9832 27.463 96.9832 27.4565C96.9832 27.4175 96.9376 27.385 96.8986 27.3915H96.3385C96.3385 27.3915 96.3254 27.3915 96.3189 27.3915C96.2798 27.3915 96.2473 27.437 96.2538 27.476V30.0903C96.2343 30.5065 96.371 30.9162 96.6315 31.2414C96.9051 31.5405 97.2958 31.6966 97.6996 31.6706C97.9406 31.6771 98.1816 31.6251 98.3965 31.5145C98.5789 31.4169 98.7352 31.2739 98.8459 31.0983H98.8524V31.4885C98.8524 31.4885 98.8524 31.5015 98.8524 31.508C98.8524 31.547 98.898 31.5795 98.9371 31.573H99.4972C99.4972 31.573 99.5102 31.573 99.5167 31.573C99.5558 31.573 99.5884 31.5275 99.5819 31.4885V27.4825C99.5819 27.4825 99.5819 27.4695 99.5819 27.463C99.5819 27.424 99.5363 27.3915 99.4972 27.398V27.3915Z" fill="#4C3C8D"/>
<path d="M108.979 25.6364H108.386C108.386 25.6364 108.373 25.6364 108.367 25.6364C108.321 25.6364 108.295 25.6819 108.302 25.7209V26.3518C108.302 26.3518 108.302 26.3648 108.302 26.3713C108.302 26.4103 108.347 26.4428 108.386 26.4363H108.979C108.979 26.4363 108.992 26.4363 108.999 26.4363C109.044 26.4363 109.07 26.3908 109.064 26.3518V25.7144C109.064 25.7144 109.064 25.7014 109.064 25.6949C109.064 25.6494 109.018 25.6234 108.973 25.6299L108.979 25.6364Z" fill="#4C3C8D"/>
<path d="M107.09 27.3908H106.426C106.426 27.3908 106.419 27.3908 106.413 27.3908C106.387 27.3908 106.374 27.3648 106.374 27.3388V26.1617C106.374 26.1617 106.374 26.1487 106.374 26.1422C106.374 26.0967 106.328 26.0707 106.283 26.0772H105.723C105.723 26.0772 105.71 26.0772 105.703 26.0772C105.657 26.0772 105.631 26.1227 105.638 26.1682V27.3453C105.638 27.3453 105.638 27.3518 105.638 27.3583C105.638 27.3843 105.612 27.3973 105.586 27.3973H105.234C105.234 27.3973 105.221 27.3973 105.215 27.3973C105.169 27.3973 105.143 27.4428 105.149 27.4819V27.8981C105.149 27.8981 105.149 27.9111 105.149 27.9176C105.149 27.9631 105.195 27.9891 105.234 27.9826H105.586C105.586 27.9826 105.592 27.9826 105.599 27.9826C105.625 27.9826 105.638 28.0086 105.638 28.0346V30.4278C105.612 30.753 105.703 31.0716 105.898 31.3318C106.133 31.5464 106.452 31.6504 106.771 31.6179H107.09C107.09 31.6179 107.103 31.6179 107.11 31.6179C107.149 31.6179 107.181 31.5724 107.175 31.5334V31.0261C107.175 31.0261 107.175 31.0131 107.175 31.0066C107.175 30.9676 107.129 30.9351 107.09 30.9416H106.908C106.765 30.9546 106.621 30.9156 106.504 30.831C106.406 30.714 106.361 30.5579 106.38 30.4083V28.0411C106.38 28.0411 106.38 28.0346 106.38 28.0281C106.38 28.0021 106.406 27.9891 106.432 27.9891H107.097C107.097 27.9891 107.11 27.9891 107.116 27.9891C107.162 27.9891 107.188 27.9436 107.181 27.9046V27.4884C107.181 27.4884 107.181 27.4754 107.181 27.4689C107.181 27.4233 107.136 27.3973 107.097 27.4038L107.09 27.3908Z" fill="#4C3C8D"/>
<path d="M95.1855 30.9294H95.0161C94.8989 30.9424 94.7882 30.9034 94.697 30.8318C94.6188 30.7278 94.5798 30.5977 94.5993 30.4676V25.7203C94.5993 25.7203 94.5993 25.7073 94.5993 25.7008C94.5993 25.6553 94.5537 25.6293 94.5146 25.6358H93.9545C93.9545 25.6358 93.9415 25.6358 93.935 25.6358C93.8894 25.6358 93.8634 25.6813 93.8699 25.7203V30.5132C93.8438 30.8123 93.9285 31.105 94.1043 31.3456C94.3127 31.5407 94.5993 31.6382 94.8924 31.6122H95.192C95.192 31.6122 95.205 31.6122 95.2115 31.6122C95.2571 31.6122 95.2831 31.5667 95.2766 31.5277V31.0204C95.2766 31.0204 95.2766 31.0074 95.2766 31.0009C95.2766 30.9554 95.231 30.9294 95.192 30.9359L95.1855 30.9294Z" fill="#4C3C8D"/>
<path d="M84.1462 25.6354H80.5642C80.5642 25.6354 80.5511 25.6354 80.5446 25.6354C80.499 25.6354 80.473 25.6809 80.4795 25.72V31.4753C80.4795 31.4753 80.4795 31.4883 80.4795 31.4948C80.4795 31.5403 80.5251 31.5664 80.5642 31.5599H84.1462C84.1462 31.5599 84.1593 31.5599 84.1658 31.5599C84.2114 31.5599 84.2374 31.5143 84.2309 31.4753V30.9225C84.2309 30.9225 84.2309 30.9095 84.2309 30.903C84.2309 30.8575 84.1853 30.8315 84.1462 30.838H81.3131C81.3131 30.838 81.3066 30.838 81.3001 30.838C81.2741 30.838 81.2545 30.812 81.261 30.786V28.9781C81.261 28.9781 81.261 28.9716 81.261 28.9651C81.261 28.9391 81.2871 28.9195 81.3131 28.926H83.7164C83.7164 28.926 83.7294 28.926 83.7359 28.926C83.7815 28.926 83.8076 28.8805 83.8011 28.835V28.2822C83.8011 28.2822 83.8011 28.2692 83.8011 28.2627C83.8011 28.2172 83.7555 28.1912 83.7164 28.1977H81.3131C81.3131 28.1977 81.3066 28.1977 81.3001 28.1977C81.2741 28.1977 81.2545 28.1717 81.261 28.1457V26.4028C81.261 26.4028 81.261 26.3963 81.261 26.3898C81.261 26.3638 81.2871 26.3443 81.3131 26.3508H84.1462C84.1462 26.3508 84.1593 26.3508 84.1658 26.3508C84.2114 26.3508 84.2374 26.3053 84.2309 26.2597V25.7135C84.2309 25.7135 84.2309 25.7005 84.2309 25.6939C84.2309 25.6484 84.1853 25.6224 84.1462 25.6289V25.6354Z" fill="#4C3C8D"/>
<path d="M50.9954 25.6357H46.8532C46.8532 25.6357 46.8402 25.6357 46.8337 25.6357C46.7881 25.6357 46.7621 25.6813 46.7686 25.7268V26.2731C46.7686 26.2731 46.7686 26.2861 46.7686 26.2926C46.7686 26.3381 46.8142 26.3641 46.8597 26.3576H48.488C48.488 26.3576 48.4945 26.3576 48.501 26.3576C48.527 26.3576 48.5466 26.3836 48.5401 26.4096V31.4821C48.5401 31.4821 48.5401 31.4951 48.5401 31.5016C48.5401 31.5472 48.5857 31.5732 48.6247 31.5667H49.2304C49.2304 31.5667 49.2435 31.5667 49.25 31.5667C49.2956 31.5667 49.3216 31.5212 49.3151 31.4821V26.4096C49.3151 26.4096 49.3151 26.4031 49.3151 26.3966C49.3151 26.3706 49.3411 26.3576 49.3672 26.3576H50.9954C50.9954 26.3576 51.0084 26.3576 51.0149 26.3576C51.0605 26.3576 51.0866 26.3121 51.0801 26.2731V25.7268C51.0801 25.7268 51.0801 25.7138 51.0801 25.7073C51.0801 25.6618 51.0345 25.6357 50.9954 25.6422V25.6357Z" fill="#4C3C8D"/>
<path d="M44.0524 30.9096H43.9222C43.857 30.9096 43.7919 30.8901 43.7398 30.8576C43.6747 30.8121 43.6226 30.76 43.577 30.7015L43.2904 30.3243L43.9743 29.4594C43.9743 29.4594 43.9808 29.4464 43.9873 29.4399C44.0068 29.4009 43.9938 29.3553 43.9547 29.3358L43.6161 29.0367C43.6161 29.0367 43.603 29.0237 43.5965 29.0237C43.5574 29.0042 43.5119 29.0237 43.4923 29.0562L42.8866 29.7975L41.7599 28.3473C41.9553 28.1913 42.1246 28.0417 42.2549 27.9181C42.3786 27.8011 42.4828 27.6775 42.5805 27.5409C42.6587 27.4304 42.7173 27.3133 42.7629 27.1898C42.802 27.0662 42.8215 26.9426 42.8215 26.8126C42.8215 26.6435 42.7889 26.4744 42.7238 26.3183C42.6587 26.1688 42.5675 26.0257 42.4503 25.9151C42.3265 25.7981 42.1832 25.7005 42.0204 25.642C41.6622 25.5119 41.2714 25.5054 40.9132 25.642C40.7569 25.7005 40.6071 25.7916 40.4834 25.9086C40.3596 26.0192 40.2619 26.1623 40.2033 26.3118C40.1382 26.4744 40.0991 26.6435 40.1056 26.8191C40.1056 26.9231 40.1187 27.0272 40.1512 27.1312C40.1838 27.2418 40.2294 27.3458 40.2815 27.4499C40.3466 27.5734 40.4248 27.697 40.5094 27.8141C40.6006 27.9441 40.7178 28.0937 40.8481 28.2628C40.5029 28.5229 40.1968 28.8416 39.9428 29.1993C39.7605 29.4724 39.6628 29.7975 39.6562 30.1227C39.6562 30.3373 39.6888 30.5454 39.7605 30.747C39.8907 31.1177 40.1838 31.4168 40.5485 31.5599C41.0435 31.742 41.5906 31.716 42.0595 31.4819C42.3461 31.3193 42.6066 31.1112 42.8215 30.8641L43.056 31.1697C43.1406 31.3063 43.2579 31.4168 43.3946 31.5014C43.5249 31.5599 43.6682 31.5859 43.8114 31.5794H44.0459C44.0459 31.5794 44.0589 31.5794 44.0655 31.5794C44.111 31.5794 44.1371 31.5339 44.1306 31.4949V31.0071C44.1306 31.0071 44.1306 30.9941 44.1306 30.9876C44.1306 30.9421 44.085 30.9161 44.0394 30.9226L44.0524 30.9096ZM40.8155 26.9947C40.796 26.9361 40.7895 26.8711 40.7895 26.8061C40.7895 26.637 40.8416 26.4679 40.9588 26.3443C41.0891 26.2143 41.2649 26.1492 41.4408 26.1623C41.6231 26.1557 41.799 26.2208 41.9357 26.3443C42.0595 26.4614 42.1246 26.6305 42.1246 26.7996C42.1246 26.8711 42.1181 26.9426 42.0986 27.0077C42.079 27.0857 42.04 27.1637 41.9944 27.2288C41.9292 27.3263 41.8511 27.4109 41.7599 27.4889C41.6557 27.58 41.5254 27.697 41.3626 27.8271L41.0826 27.4564C41.0174 27.3719 40.9588 27.2873 40.9002 27.1963C40.8611 27.1312 40.8286 27.0662 40.809 26.9882L40.8155 26.9947ZM41.8446 30.8641C41.6687 30.9681 41.4733 31.0202 41.2714 31.0202C41.0174 31.0397 40.7699 30.9421 40.5876 30.7665C40.4183 30.5714 40.3336 30.3243 40.3466 30.0707C40.3466 29.8431 40.4183 29.622 40.555 29.4399C40.7439 29.1862 40.9718 28.9586 41.2324 28.77L42.4372 30.3438C42.2679 30.5454 42.0725 30.7275 41.8446 30.8706V30.8641Z" fill="#4C3C8D"/>
<path d="M34.8173 27.2943C34.5633 27.2878 34.3158 27.3398 34.0944 27.4569C33.912 27.5479 33.7557 27.691 33.6515 27.86H33.6385V27.4764C33.6385 27.4764 33.6385 27.4634 33.6385 27.4569C33.6385 27.4178 33.5929 27.3853 33.5538 27.3918H32.9937C32.9937 27.3918 32.9807 27.3918 32.9742 27.3918C32.9351 27.3918 32.9025 27.4373 32.909 27.4764V31.4823C32.909 31.4823 32.909 31.4953 32.909 31.5018C32.909 31.5409 32.9546 31.5734 32.9937 31.5669H33.5538C33.5538 31.5669 33.5668 31.5669 33.5733 31.5669C33.6124 31.5669 33.645 31.5214 33.6385 31.4823V28.9916C33.6255 28.7185 33.7231 28.4453 33.9055 28.2437C34.0879 28.0551 34.3419 27.9576 34.6024 27.9706C34.8694 27.9511 35.1299 28.0551 35.3058 28.2502C35.4751 28.4779 35.5533 28.7575 35.5402 29.0371V31.4823C35.5402 31.4823 35.5402 31.4953 35.5402 31.5018C35.5402 31.5409 35.5858 31.5734 35.6249 31.5669H36.185C36.185 31.5669 36.198 31.5669 36.2045 31.5669C36.2436 31.5669 36.2762 31.5214 36.2697 31.4823V28.8615C36.2892 28.4453 36.1524 28.0356 35.8854 27.717C35.6119 27.4243 35.2211 27.2683 34.8173 27.2878V27.2943Z" fill="#4C3C8D"/>
<path d="M31.5811 28.419C31.4834 28.0808 31.2685 27.7882 30.9754 27.5866C30.3306 27.1964 29.5295 27.1964 28.8847 27.5866C28.5917 27.7882 28.3767 28.0808 28.2791 28.419C28.2335 28.5686 28.1944 28.7182 28.1748 28.8742C28.1488 29.0758 28.1358 29.2774 28.1423 29.479C28.1423 29.6806 28.1488 29.8822 28.1748 30.0838C28.1944 30.2399 28.2335 30.3895 28.2791 30.5391C28.3833 30.8772 28.5982 31.1699 28.8847 31.3715C29.1909 31.5731 29.5556 31.6771 29.9268 31.6706C30.298 31.6836 30.6628 31.5796 30.9689 31.3715C31.2619 31.1699 31.4703 30.8772 31.5746 30.5391C31.6201 30.3895 31.6592 30.2399 31.6788 30.0838C31.7048 29.8822 31.7178 29.6806 31.7113 29.479C31.7113 29.2774 31.7048 29.0758 31.6788 28.8742C31.6592 28.7182 31.6201 28.5686 31.5746 28.419H31.5811ZM30.9493 29.9668C30.9363 30.0903 30.9102 30.2074 30.8777 30.3309C30.8191 30.526 30.6953 30.6951 30.526 30.8122C30.3501 30.9292 30.1417 30.9878 29.9333 30.9813C29.7249 30.9878 29.5165 30.9292 29.3406 30.8122C29.1713 30.6951 29.0541 30.526 28.989 30.3309C28.9564 30.2139 28.9303 30.0903 28.9173 29.9668C28.9043 29.8042 28.8913 29.6416 28.8978 29.4725C28.8978 29.3099 28.8978 29.1474 28.9173 28.9848C28.9303 28.8612 28.9564 28.7442 28.989 28.6271C29.0476 28.432 29.1713 28.2629 29.3406 28.1459C29.7054 27.9183 30.1678 27.9183 30.5325 28.1459C30.7018 28.2629 30.8191 28.432 30.8842 28.6271C30.9168 28.7442 30.9428 28.8612 30.9558 28.9848C30.9689 29.1474 30.9819 29.3099 30.9754 29.4725C30.9754 29.6351 30.9754 29.8042 30.9558 29.9668H30.9493Z" fill="#4C3C8D"/>
<path d="M26.8722 27.3916H26.3121C26.3121 27.3916 26.299 27.3916 26.2925 27.3916C26.2534 27.3916 26.2209 27.4371 26.2274 27.4762V31.4821C26.2274 31.4821 26.2274 31.4951 26.2274 31.5016C26.2274 31.5407 26.273 31.5732 26.3121 31.5667H26.8722C26.8722 31.5667 26.8852 31.5667 26.8917 31.5667C26.9373 31.5667 26.9633 31.5212 26.9568 31.4821V27.4762C26.9568 27.4762 26.9568 27.4632 26.9568 27.4566C26.9568 27.4111 26.9112 27.3851 26.8722 27.3916Z" fill="#4C3C8D"/>
<path d="M26.8834 25.6364H26.2907C26.2907 25.6364 26.2777 25.6364 26.2712 25.6364C26.2256 25.6364 26.1996 25.6819 26.2061 25.7209V26.3518C26.2061 26.3518 26.2061 26.3648 26.2061 26.3713C26.2061 26.4103 26.2517 26.4428 26.2907 26.4363H26.8834C26.8834 26.4363 26.8964 26.4363 26.9029 26.4363C26.9485 26.4363 26.9746 26.3908 26.9681 26.3518V25.7144C26.9681 25.7144 26.9681 25.7014 26.9681 25.6949C26.9681 25.6494 26.9225 25.6234 26.8834 25.6299V25.6364Z" fill="#4C3C8D"/>
<path d="M24.9959 27.3908H24.3315C24.3315 27.3908 24.325 27.3908 24.3185 27.3908C24.2925 27.3908 24.2794 27.3648 24.2794 27.3388V26.1617C24.2794 26.1617 24.2794 26.1487 24.2794 26.1422C24.2794 26.0967 24.2339 26.0707 24.1948 26.0772H23.6347C23.6347 26.0772 23.6216 26.0772 23.6151 26.0772C23.5695 26.0772 23.5435 26.1227 23.55 26.1682V27.3453C23.55 27.3453 23.55 27.3518 23.55 27.3583C23.55 27.3843 23.524 27.3973 23.4979 27.3973H23.1462C23.1462 27.3973 23.1332 27.3973 23.1267 27.3973C23.0811 27.3973 23.055 27.4428 23.0615 27.4819V27.8981C23.0615 27.8981 23.0615 27.9111 23.0615 27.9176C23.0615 27.9631 23.1071 27.9891 23.1462 27.9826H23.4979C23.4979 27.9826 23.5044 27.9826 23.5109 27.9826C23.537 27.9826 23.55 28.0086 23.55 28.0346V30.4278C23.524 30.753 23.6151 31.0716 23.8105 31.3318C24.045 31.5464 24.3641 31.6504 24.6832 31.6179H25.0024C25.0024 31.6179 25.0154 31.6179 25.0219 31.6179C25.061 31.6179 25.0935 31.5724 25.087 31.5334V31.0261C25.087 31.0261 25.087 31.0131 25.087 31.0066C25.087 30.9676 25.0414 30.9351 25.0024 30.9416H24.82C24.6767 30.9546 24.5334 30.9156 24.4162 30.831C24.3185 30.714 24.2729 30.5579 24.2925 30.4083V28.0411C24.2925 28.0411 24.2925 28.0346 24.2925 28.0281C24.2925 28.0021 24.3185 27.9891 24.3446 27.9891H25.0089C25.0089 27.9891 25.0219 27.9891 25.0284 27.9891C25.074 27.9891 25.1001 27.9436 25.0935 27.9046V27.4884C25.0935 27.4884 25.0935 27.4754 25.0935 27.4689C25.0935 27.4233 25.048 27.3973 25.0089 27.4038L24.9959 27.3908Z" fill="#4C3C8D"/>
<path d="M20.4187 27.2941C20.1387 27.2941 19.8586 27.3267 19.5916 27.4047C19.3767 27.4697 19.1748 27.5673 18.9989 27.7038C18.9664 27.7364 18.9598 27.7884 18.9794 27.8274L19.2138 28.2306C19.2464 28.2761 19.2855 28.2826 19.3376 28.2371C19.4678 28.1461 19.6046 28.0745 19.7544 28.0225C19.9498 27.964 20.1452 27.9315 20.3471 27.938C20.6271 27.9054 20.9072 27.977 21.1416 28.1266C21.298 28.2956 21.3761 28.5233 21.3501 28.7509V29.0565C21.3501 29.0565 21.3501 29.063 21.3501 29.0695C21.3501 29.0955 21.324 29.115 21.298 29.1085H20.3471C19.9237 29.0825 19.5004 29.1931 19.1422 29.4207C18.8426 29.6548 18.6798 30.0255 18.7058 30.4027C18.7058 30.5913 18.7384 30.7799 18.8166 30.9555C18.8817 31.105 18.9859 31.2416 19.1161 31.3522C19.2464 31.4627 19.3962 31.5407 19.559 31.5863C19.7414 31.6383 19.9237 31.6643 20.1126 31.6643C20.3862 31.6773 20.6532 31.6188 20.9007 31.5082C21.083 31.4237 21.2458 31.2871 21.3566 31.118H21.3631V31.4822C21.3631 31.4822 21.3631 31.4952 21.3631 31.5017C21.3631 31.5407 21.4087 31.5733 21.4477 31.5668H21.9557C21.9557 31.5668 21.9688 31.5668 21.9753 31.5668C22.0144 31.5668 22.0469 31.5212 22.0404 31.4822V28.7183C22.0795 28.3152 21.9427 27.9185 21.6692 27.6258C21.298 27.3722 20.8551 27.2551 20.4057 27.3006L20.4187 27.2941ZM21.3566 30.2206C21.3696 30.4547 21.2654 30.6823 21.0765 30.8254C20.8486 30.9815 20.575 31.053 20.295 31.04C20.067 31.0595 19.8391 31.001 19.6437 30.8774C19.4874 30.7604 19.4027 30.5783 19.4157 30.3897C19.3962 30.1881 19.4939 29.9865 19.6632 29.8694C19.9107 29.7459 20.1843 29.6873 20.4643 29.7068H21.311C21.311 29.7068 21.3175 29.7068 21.324 29.7068C21.3501 29.7068 21.3696 29.7329 21.3631 29.7589V30.2206H21.3566Z" fill="#4C3C8D"/>
<path d="M15.5026 28.6262C15.5547 28.4246 15.6785 28.2491 15.8543 28.132C16.193 27.9369 16.6033 27.9174 16.955 28.0865C17.1048 28.1775 17.235 28.2881 17.3392 28.4246V28.4376C17.3783 28.4702 17.4304 28.4702 17.463 28.4376L17.8473 28.1255H17.8603C17.8994 28.093 17.9059 28.041 17.8733 28.0019C17.7235 27.7808 17.5216 27.6052 17.2871 27.4817C17.0266 27.3516 16.7336 27.2866 16.4405 27.2931C16.0692 27.2801 15.711 27.3841 15.3984 27.5792C15.0988 27.7808 14.8839 28.0735 14.7862 28.4181C14.7406 28.5677 14.7081 28.7173 14.6885 28.8669C14.6625 29.0685 14.6494 29.2701 14.656 29.4717C14.656 29.6798 14.6625 29.8814 14.6885 30.0895C14.7081 30.239 14.7406 30.3951 14.7862 30.5382C14.8839 30.8829 15.0988 31.1755 15.3984 31.3771C15.711 31.5722 16.0692 31.6762 16.4405 31.6632C16.7336 31.6697 17.0266 31.6047 17.2871 31.4746C17.5216 31.3511 17.73 31.1755 17.8733 30.9544V30.9414C17.8994 30.9024 17.8863 30.8503 17.8473 30.8308L17.463 30.5187H17.45C17.4174 30.4862 17.3653 30.4927 17.3392 30.5252C17.235 30.6617 17.1048 30.7788 16.955 30.8633C16.6033 31.0324 16.193 31.0129 15.8543 30.8178C15.685 30.7008 15.5612 30.5252 15.5026 30.3236C15.4635 30.2 15.444 30.0765 15.431 29.9529C15.418 29.7903 15.4049 29.6277 15.4114 29.4717C15.4114 29.3091 15.4114 29.153 15.431 28.9904C15.444 28.8669 15.4701 28.7433 15.5026 28.6262Z" fill="#4C3C8D"/>
<path d="M13.3839 27.3915H12.8238C12.8238 27.3915 12.8108 27.3915 12.8043 27.3915C12.7652 27.3915 12.7326 27.437 12.7391 27.476V29.9537C12.7522 30.2269 12.661 30.5 12.4786 30.7016C12.3028 30.8902 12.0488 30.9942 11.7948 30.9812C11.5277 31.0007 11.2737 30.8967 11.0979 30.7016C10.9351 30.474 10.8504 30.1878 10.87 29.9082V27.476C10.87 27.476 10.87 27.463 10.87 27.4565C10.87 27.4175 10.8244 27.385 10.7853 27.3915H10.2252C10.2252 27.3915 10.2122 27.3915 10.2056 27.3915C10.1666 27.3915 10.134 27.437 10.1405 27.476V30.0903C10.121 30.5065 10.2577 30.9162 10.5183 31.2414C10.7918 31.5405 11.1826 31.6966 11.5864 31.6706C11.8273 31.6771 12.0683 31.6251 12.2832 31.5145C12.4656 31.4169 12.6219 31.2739 12.7326 31.0983H12.7391V31.4885C12.7391 31.4885 12.7391 31.5015 12.7391 31.508C12.7391 31.547 12.7847 31.5795 12.8238 31.573H13.3839C13.3839 31.573 13.3969 31.573 13.4034 31.573C13.4425 31.573 13.4751 31.5275 13.4686 31.4885V27.4825C13.4686 27.4825 13.4686 27.4695 13.4686 27.463C13.4686 27.424 13.423 27.3915 13.3839 27.398V27.3915Z" fill="#4C3C8D"/>
<path d="M67.4811 25.6364H66.8884C66.8884 25.6364 66.8754 25.6364 66.8689 25.6364C66.8233 25.6364 66.7972 25.6819 66.8037 25.7209V26.3518C66.8037 26.3518 66.8037 26.3648 66.8037 26.3713C66.8037 26.4103 66.8493 26.4428 66.8884 26.4363H67.4811C67.4811 26.4363 67.4941 26.4363 67.5006 26.4363C67.5462 26.4363 67.5722 26.3908 67.5657 26.3518V25.7144C67.5657 25.7144 67.5657 25.7014 67.5657 25.6949C67.5657 25.6494 67.5201 25.6234 67.4745 25.6299L67.4811 25.6364Z" fill="#4C3C8D"/>
<path d="M60.5572 25.6354H59.9646C59.9646 25.6354 59.9515 25.6354 59.945 25.6354C59.8994 25.6354 59.8734 25.6809 59.8799 25.72V26.3508C59.8799 26.3508 59.8799 26.3638 59.8799 26.3703C59.8799 26.4093 59.9255 26.4418 59.9646 26.4353H60.5572C60.5572 26.4353 60.5703 26.4353 60.5768 26.4353C60.6224 26.4353 60.6484 26.3898 60.6419 26.3508V25.7135C60.6419 25.7135 60.6419 25.7005 60.6419 25.6939C60.6419 25.6484 60.5963 25.6224 60.5507 25.6289L60.5572 25.6354Z" fill="#4C3C8D"/>
<path d="M8.66794 25.6362H8.10784C8.10784 25.6362 8.09481 25.6362 8.0883 25.6362C8.04922 25.6362 8.01666 25.6818 8.02317 25.7208V27.8668H8.01666C7.91245 27.6913 7.76266 27.5482 7.58681 27.4506C7.35235 27.3336 7.09184 27.2751 6.83132 27.2881C6.50568 27.2751 6.18655 27.3661 5.91301 27.5417C5.65901 27.7238 5.47665 27.9904 5.39198 28.2896C5.33337 28.4586 5.29429 28.6342 5.27475 28.8098C5.25521 29.0309 5.24219 29.2455 5.24219 29.4666C5.24219 29.6877 5.2487 29.9089 5.27475 30.13C5.29429 30.3056 5.33337 30.4811 5.39198 30.6567C5.47665 30.9559 5.65901 31.2225 5.91301 31.4046C6.18655 31.5802 6.50568 31.6712 6.83132 31.6582C7.09184 31.6712 7.35235 31.6127 7.58681 31.4891C7.76266 31.3916 7.91245 31.242 8.01666 31.0729H8.02969V31.4761C8.02969 31.4761 8.02969 31.4891 8.02969 31.4956C8.02969 31.5347 8.07527 31.5672 8.11435 31.5607H8.66794C8.66794 31.5607 8.68097 31.5607 8.68748 31.5607C8.72656 31.5607 8.75912 31.5152 8.75261 31.4761V25.7143C8.75261 25.7143 8.75261 25.7013 8.75261 25.6948C8.75261 25.6558 8.70702 25.6232 8.66794 25.6297V25.6362ZM8.00363 29.9934C7.99061 30.1105 7.97107 30.234 7.93199 30.3446C7.81476 30.7543 7.4305 31.0209 7.00717 30.9819C6.59035 31.0144 6.20609 30.7478 6.08886 30.3446C6.04978 30.221 6.02373 30.0974 6.01722 29.9674C6.00419 29.8048 5.99768 29.6357 5.99768 29.4666C5.99768 29.3041 5.99768 29.1415 6.01722 28.9789C6.03024 28.8488 6.05629 28.7188 6.08886 28.5952C6.20609 28.192 6.59035 27.9319 7.00717 27.9644C7.42399 27.9254 7.81476 28.1855 7.93199 28.5952C7.97107 28.7123 7.99712 28.8293 8.00363 28.9529C8.02317 29.122 8.02969 29.2976 8.02317 29.4666C8.02317 29.6422 8.02317 29.8113 8.00363 29.9869V29.9934Z" fill="#4C3C8D"/>
<path d="M4.26147 30.8448H1.42839C1.42839 30.8448 1.42187 30.8448 1.41536 30.8448C1.38931 30.8448 1.36977 30.8188 1.37628 30.7928V28.9849C1.37628 28.9849 1.37628 28.9784 1.37628 28.9719C1.37628 28.9459 1.40233 28.9264 1.42839 28.9329H3.83163C3.83163 28.9329 3.84465 28.9329 3.85116 28.9329C3.89675 28.9329 3.92281 28.8874 3.91629 28.8418V28.2891C3.91629 28.2891 3.91629 28.2761 3.91629 28.2696C3.91629 28.224 3.8707 28.198 3.83163 28.2045H1.42839C1.42839 28.2045 1.42187 28.2045 1.41536 28.2045C1.38931 28.2045 1.36977 28.1785 1.37628 28.1525V26.4096C1.37628 26.4096 1.37628 26.4031 1.37628 26.3966C1.37628 26.3706 1.40233 26.3511 1.42839 26.3576H4.26147C4.26147 26.3576 4.2745 26.3576 4.28101 26.3576C4.3266 26.3576 4.35265 26.3121 4.34614 26.2666V25.7203C4.34614 25.7203 4.34614 25.7073 4.34614 25.7008C4.34614 25.6553 4.30055 25.6293 4.26147 25.6358H0.679407C0.679407 25.6358 0.666382 25.6358 0.659869 25.6358C0.614279 25.6358 0.588228 25.6813 0.59474 25.7203V31.4756C0.59474 31.4756 0.59474 31.4886 0.59474 31.4952C0.59474 31.5407 0.64033 31.5667 0.679407 31.5602H4.26147C4.26147 31.5602 4.2745 31.5602 4.28101 31.5602C4.3266 31.5602 4.35265 31.5147 4.34614 31.4756V30.9229C4.34614 30.9229 4.34614 30.9099 4.34614 30.9034C4.34614 30.8578 4.30055 30.8318 4.26147 30.8383V30.8448Z" fill="#4C3C8D"/>
<path d="M157.553 19.8414H156.055C156.055 19.8414 156.029 19.8414 156.016 19.8414C155.944 19.8544 155.898 19.9195 155.905 19.991V21.4477C155.905 21.4477 155.905 21.4737 155.905 21.4867C155.918 21.5583 155.983 21.6038 156.055 21.5973H157.553C157.553 21.5973 157.579 21.5973 157.592 21.5973C157.663 21.5843 157.709 21.5193 157.702 21.4477V19.991C157.702 19.991 157.702 19.965 157.702 19.952C157.689 19.8805 157.624 19.8349 157.553 19.8414Z" fill="#4C3C8D"/>
<path d="M155.247 21.5905C155.247 21.5905 155.273 21.5905 155.286 21.5905C155.357 21.5775 155.403 21.5124 155.396 21.4409V19.9842C155.396 19.9842 155.396 19.9582 155.396 19.9452C155.383 19.8736 155.318 19.8281 155.247 19.8346H153.762C153.762 19.8346 153.736 19.8346 153.723 19.8346C153.651 19.8476 153.605 19.9126 153.612 19.9842V21.4409C153.612 21.4409 153.612 21.4669 153.612 21.4799C153.625 21.5514 153.69 21.597 153.762 21.5905H155.247Z" fill="#4C3C8D"/>
<path d="M15.4356 19.8414C15.3639 19.8544 15.3183 19.9195 15.3248 19.991V21.4477C15.3248 21.4477 15.3248 21.4737 15.3248 21.4867C15.3379 21.5583 15.403 21.6038 15.4746 21.5973H16.9726C16.9726 21.5973 16.9986 21.5973 17.0117 21.5973C17.0833 21.5843 17.1289 21.5193 17.1224 21.4477V19.991C17.1224 19.991 17.1224 19.965 17.1224 19.952C17.1094 19.8805 17.0442 19.8349 16.9726 19.8414H15.4746C15.4746 19.8414 15.4486 19.8414 15.4356 19.8414Z" fill="#4C3C8D"/>
<path d="M14.6725 19.8414H13.1875C13.1875 19.8414 13.1615 19.8414 13.1484 19.8414C13.0768 19.8544 13.0312 19.9195 13.0377 19.991V21.4477C13.0377 21.4477 13.0377 21.4737 13.0377 21.4867C13.0508 21.5583 13.1159 21.6038 13.1875 21.5973H14.6725C14.6725 21.5973 14.6985 21.5973 14.7115 21.5973C14.7832 21.5843 14.8288 21.5193 14.8222 21.4477V19.991C14.8222 19.991 14.8222 19.965 14.8222 19.952C14.8092 19.8805 14.7441 19.8349 14.6725 19.8414Z" fill="#4C3C8D"/>
<path d="M6.56388 21.5905C6.63552 21.5775 6.68111 21.5124 6.67459 21.4409V19.9842C6.67459 19.9842 6.67459 19.9582 6.67459 19.9452C6.66157 19.8736 6.59644 19.8281 6.5248 19.8346H4.68166C4.68166 19.8346 4.65561 19.8346 4.64259 19.8346C4.57094 19.8476 4.52535 19.9126 4.53187 19.9842V21.4409C4.53187 21.4409 4.53187 21.4669 4.53187 21.4799C4.54489 21.5514 4.61002 21.597 4.68166 21.5905H6.5248C6.5248 21.5905 6.55085 21.5905 6.56388 21.5905Z" fill="#4C3C8D"/>
<path d="M167.048 13.9043C166.918 13.449 166.69 13.0263 166.37 12.6752C166.012 12.285 165.563 11.9793 165.061 11.7907C164.397 11.5501 163.694 11.433 162.99 11.4591C162.43 11.4525 161.87 11.5046 161.317 11.6216C160.828 11.7387 160.353 11.8818 159.884 12.0639C159.812 12.0964 159.78 12.1289 159.773 12.1744C159.773 12.2264 159.773 12.2785 159.793 12.3305L160.105 13.4425C160.118 13.5011 160.17 13.5271 160.222 13.5141C160.274 13.5076 160.327 13.4946 160.372 13.4685C161.069 13.2539 161.798 13.1499 162.528 13.1434C162.873 13.1434 163.225 13.1824 163.557 13.2669C163.85 13.3385 164.124 13.475 164.358 13.6636C164.586 13.8457 164.762 14.0798 164.879 14.3465C165.009 14.6586 165.074 14.9968 165.061 15.3415C165.074 15.6861 164.996 16.0308 164.84 16.343C164.645 16.6356 164.299 16.7982 163.948 16.7527C164.019 16.6031 164.084 16.447 164.137 16.2844C164.195 16.1023 164.221 15.9073 164.215 15.7122C164.273 15.0748 164.039 14.444 163.576 14.0018C163.075 13.6181 162.456 13.423 161.825 13.462C161.531 13.462 161.245 13.5011 160.965 13.5856C160.698 13.6636 160.444 13.8002 160.229 13.9758C160.007 14.1644 159.825 14.405 159.708 14.6716C159.565 14.9968 159.499 15.3545 159.506 15.7122C159.499 16.0698 159.571 16.4275 159.714 16.7527H158.255C158.255 16.7527 158.242 16.7527 158.236 16.7527H157.891C157.604 16.7722 157.318 16.6941 157.083 16.5381C156.894 16.4015 156.777 16.1869 156.764 15.9528V12.4475C156.764 12.4475 156.764 12.4215 156.764 12.4085C156.751 12.337 156.686 12.285 156.614 12.298H154.83C154.83 12.298 154.804 12.298 154.791 12.298C154.719 12.311 154.673 12.376 154.68 12.4475V15.5301C154.699 15.8487 154.66 16.1674 154.563 16.473C154.485 16.6551 154.289 16.7462 153.97 16.7462H152.72C152.433 16.7657 152.146 16.6876 151.912 16.5316C151.723 16.395 151.606 16.1804 151.593 15.9463V12.4475C151.593 12.4475 151.593 12.4215 151.593 12.4085C151.58 12.337 151.515 12.2915 151.443 12.298H150.075C149.965 12.298 149.841 12.298 149.698 12.311C149.554 12.3175 149.483 12.363 149.483 12.441V15.5561C149.502 15.8682 149.463 16.1869 149.359 16.486C149.274 16.6616 149.079 16.7462 148.773 16.7462H148.284C148.252 16.7462 148.219 16.7592 148.187 16.7657C148.154 16.7657 148.128 16.7462 148.089 16.7462H147.627C147.431 16.7657 147.236 16.7006 147.086 16.5771C146.949 16.4015 146.891 16.1804 146.917 15.9593V11.407C146.917 11.407 146.917 11.381 146.917 11.368C146.904 11.2965 146.838 11.2509 146.767 11.2575H144.956C144.956 11.2575 144.93 11.2575 144.917 11.2575C144.846 11.2705 144.8 11.3355 144.806 11.407V12.0443H143.322C142.95 12.0443 142.579 12.0899 142.214 12.1809C141.465 12.363 140.853 12.8963 140.567 13.6051C140.378 14.0733 140.293 14.5741 140.306 15.0813C140.293 15.5366 140.371 15.9918 140.534 16.4145C140.671 16.7592 140.886 17.0648 141.166 17.3054C141.439 17.5331 141.752 17.7086 142.097 17.8127C142.455 17.9232 142.827 17.9753 143.204 17.9753C143.51 17.9753 143.817 17.9298 144.11 17.8452C144.383 17.7607 144.644 17.6241 144.865 17.442C144.911 17.7997 145.106 18.1118 145.406 18.3134C145.757 18.4825 146.148 18.5606 146.539 18.5411H148.082C148.082 18.5411 148.115 18.5346 148.135 18.5346C148.174 18.5346 148.213 18.5476 148.252 18.5411H149.444C149.867 18.5541 150.284 18.5085 150.694 18.398C151 18.3004 151.248 18.0793 151.391 17.7997C151.541 18.0858 151.788 18.3004 152.088 18.411C152.4 18.502 152.72 18.5476 153.045 18.5411C153.045 18.5411 153.045 18.5411 153.052 18.5411H154.582C155.012 18.5541 155.442 18.5085 155.859 18.411C156.171 18.3199 156.425 18.0988 156.562 17.7997C156.712 18.0793 156.959 18.3004 157.259 18.411C157.578 18.5085 157.91 18.5476 158.242 18.5411H158.249C158.249 18.5411 158.249 18.5411 158.255 18.5411H164.247C164.729 18.5541 165.205 18.4825 165.667 18.346C166.019 18.2354 166.338 18.0273 166.585 17.7542C166.833 17.4615 167.002 17.1103 167.08 16.7397C167.185 16.2649 167.237 15.7772 167.23 15.2959C167.23 14.8212 167.165 14.353 167.035 13.9043H167.048ZM144.819 14.8732C144.852 15.2374 144.728 15.6016 144.487 15.8747C144.246 16.0958 143.921 16.2129 143.595 16.1934C143.289 16.2064 142.989 16.1219 142.742 15.9463C142.494 15.7382 142.371 15.4195 142.403 15.0943C142.358 14.7302 142.488 14.3725 142.742 14.1124C143.002 13.9238 143.322 13.8327 143.641 13.8457H144.819V14.8667V14.8732ZM162.502 16.5446C162.359 16.7137 162.15 16.8177 161.929 16.8177H161.766C161.544 16.8112 161.336 16.7071 161.193 16.5446C161.036 16.3235 160.965 16.0503 160.991 15.7837C160.971 15.5041 161.056 15.2309 161.219 15.0033C161.375 14.8147 161.616 14.7172 161.857 14.7302C162.098 14.7172 162.333 14.8147 162.482 15.0033C162.762 15.478 162.769 16.0633 162.502 16.5446Z" fill="#4C3C8D"/>
<path d="M112.348 19.8414H110.863C110.863 19.8414 110.837 19.8414 110.824 19.8414C110.753 19.8544 110.707 19.9195 110.714 19.991V21.4477C110.714 21.4477 110.714 21.4737 110.714 21.4867C110.727 21.5583 110.792 21.6038 110.863 21.5973H112.348C112.348 21.5973 112.374 21.5973 112.387 21.5973C112.459 21.5843 112.505 21.5193 112.498 21.4477V19.991C112.498 19.991 112.498 19.965 112.498 19.952C112.485 19.8805 112.42 19.8349 112.348 19.8414Z" fill="#4C3C8D"/>
<path d="M114.646 19.8414H113.148C113.148 19.8414 113.122 19.8414 113.109 19.8414C113.038 19.8544 112.992 19.9195 112.999 19.991V21.4477C112.999 21.4477 112.999 21.4737 112.999 21.4867C113.012 21.5583 113.077 21.6038 113.148 21.5973H114.646C114.646 21.5973 114.672 21.5973 114.685 21.5973C114.757 21.5843 114.803 21.5193 114.796 21.4477V19.991C114.796 19.991 114.796 19.965 114.796 19.952C114.783 19.8805 114.718 19.8349 114.646 19.8414Z" fill="#4C3C8D"/>
<path d="M110.314 18.554H112.301C112.789 18.606 113.271 18.4369 113.629 18.0988C113.929 17.6891 114.072 17.1883 114.027 16.6811V12.454C114.027 12.454 114.027 12.428 114.027 12.415C114.014 12.3434 113.949 12.2979 113.877 12.3044H112.092C112.092 12.3044 112.066 12.3044 112.053 12.3044C111.982 12.3174 111.936 12.3824 111.943 12.454V15.9722C111.969 16.1933 111.904 16.4144 111.773 16.59C111.623 16.7136 111.428 16.7786 111.233 16.7591H109.904C109.67 16.7656 109.442 16.6811 109.266 16.525C109.083 16.3299 108.979 16.0763 108.986 15.8031C108.986 15.7446 108.986 15.6796 108.992 15.6145C108.999 15.5495 108.999 15.4845 108.999 15.4129C109.018 14.8602 108.927 14.3074 108.732 13.7871C108.575 13.3904 108.328 13.0393 108.009 12.7531C107.703 12.493 107.345 12.3044 106.96 12.2069C106.14 11.9922 105.28 11.9922 104.459 12.2069C104.075 12.3109 103.717 12.4995 103.411 12.7531C103.092 13.0328 102.844 13.3904 102.688 13.7871C102.492 14.3074 102.401 14.8602 102.421 15.4129V15.7251C102.421 15.8161 102.421 15.9137 102.434 16.0047C102.421 16.1673 102.362 16.3299 102.265 16.46C102.167 16.577 102.05 16.6811 101.926 16.7721C101.789 16.8632 101.652 16.9607 101.509 17.0517C101.359 17.1493 101.222 17.2729 101.105 17.4094C100.975 17.5655 100.871 17.7476 100.799 17.9427C100.714 18.2093 100.669 18.489 100.682 18.7686V21.5845H102.792V19.0808C102.792 18.9377 102.812 18.7946 102.864 18.658C102.909 18.5605 102.974 18.4695 103.053 18.3914C103.124 18.3199 103.202 18.2548 103.281 18.1898C103.372 18.1183 103.443 18.0337 103.502 17.9362C103.782 18.1963 104.114 18.3784 104.479 18.4825C104.876 18.593 105.293 18.6515 105.703 18.645C106.205 18.645 106.706 18.5735 107.182 18.4304C107.618 18.2939 108.009 18.0337 108.308 17.6826C108.419 17.8647 108.569 18.0207 108.745 18.1508C108.895 18.2613 109.064 18.3459 109.246 18.4109C109.422 18.4695 109.598 18.5085 109.78 18.5215C109.956 18.5345 110.126 18.541 110.301 18.541C110.301 18.541 110.308 18.541 110.314 18.541V18.554ZM106.628 16.525C106.101 16.9672 105.332 16.9672 104.805 16.525C104.564 16.1803 104.459 15.7641 104.498 15.3479C104.498 14.3529 104.902 13.8522 105.71 13.8522C106.517 13.8522 106.921 14.3529 106.921 15.3479C106.96 15.7641 106.856 16.1803 106.628 16.525Z" fill="#4C3C8D"/>
<path d="M49.8688 20.9075C50.3834 20.3417 50.6374 19.5939 50.5787 18.833V15.3733C50.5918 14.827 50.5071 14.2872 50.3182 13.78C50.1684 13.3833 49.9275 13.0321 49.6083 12.759C49.3022 12.5054 48.9505 12.3168 48.5663 12.2192C48.156 12.1087 47.7391 12.0566 47.3158 12.0566C46.9055 12.0566 46.4952 12.1152 46.1044 12.2322C45.7202 12.3493 45.362 12.5444 45.0624 12.811C44.7432 13.1037 44.4957 13.4613 44.3329 13.8645C44.1375 14.3783 44.0398 14.9181 44.0594 15.4643C44.0398 16.0106 44.1245 16.5569 44.3199 17.0771C44.4762 17.4543 44.7367 17.7795 45.0754 18.0136C45.4401 18.2477 45.8504 18.3973 46.2803 18.4493C46.8078 18.5208 47.3419 18.5599 47.8759 18.5534H48.5011C48.5077 18.7745 48.4751 19.0021 48.4034 19.2167C48.2992 19.5158 48.0387 19.7304 47.7261 19.7629C47.5503 19.789 47.3679 19.802 47.1921 19.802H45.4857C45.4857 19.802 45.4596 19.802 45.4466 19.802C45.375 19.815 45.3294 19.88 45.3359 19.9515V21.4473C45.3359 21.4473 45.3359 21.4733 45.3359 21.4863C45.3489 21.5578 45.4141 21.6034 45.4857 21.5969H47.6545C48.4556 21.6619 49.2436 21.4213 49.8688 20.914V20.9075ZM47.3549 16.752C47.0292 16.765 46.7036 16.6674 46.4431 16.4788C46.1695 16.1862 46.0393 15.783 46.0914 15.3863C46.0718 14.9896 46.1826 14.5929 46.404 14.2612C46.6254 13.9816 46.9706 13.8255 47.3223 13.845C48.1039 13.845 48.4946 14.3328 48.4946 15.3148V16.752H47.3484H47.3549Z" fill="#4C3C8D"/>
<path d="M21.1159 18.6124V12.4539C21.1159 12.4539 21.1159 12.4279 21.1159 12.4149C21.1029 12.3433 21.0378 12.2978 20.9661 12.3043H19.1556C19.1556 12.3043 19.1295 12.3043 19.1165 12.3043C19.0449 12.3173 18.9993 12.3824 19.0058 12.4539V18.5409C19.0318 18.8791 18.9406 19.2107 18.7453 19.4904C18.5173 19.718 18.1982 19.8351 17.8725 19.8025H17.5469C17.5469 19.8025 17.5208 19.8025 17.5078 19.8025C17.4362 19.8155 17.3906 19.8806 17.3971 19.9521V21.4479C17.3971 21.4479 17.3971 21.4739 17.3971 21.4869C17.4101 21.5584 17.4753 21.6039 17.5469 21.5974H18.2242C19.0188 21.6625 19.8003 21.3958 20.393 20.8691C20.9206 20.2383 21.1746 19.4319 21.1094 18.6124H21.1159Z" fill="#4C3C8D"/>
<path d="M11.0132 17.8057C11.163 18.0854 11.4105 18.3065 11.7101 18.417C12.0032 18.5081 12.3093 18.5471 12.6154 18.5471C12.6154 18.5471 12.6284 18.5471 12.6349 18.5471H12.6675C12.6675 18.5471 12.674 18.5471 12.6805 18.5471H14.6279C15.1163 18.5991 15.5983 18.43 15.9565 18.0919C16.2561 17.6822 16.3994 17.1814 16.3538 16.6742V12.4471C16.3538 12.4471 16.3538 12.4211 16.3538 12.408C16.3407 12.3365 16.2756 12.291 16.204 12.2975H14.4195C14.4195 12.2975 14.3934 12.2975 14.3804 12.2975C14.3087 12.3105 14.2632 12.3755 14.2697 12.4471V15.9653C14.2957 16.1864 14.2306 16.4075 14.1003 16.5831C13.9505 16.7067 13.7551 16.7717 13.5598 16.7522H12.3549C12.0683 16.7717 11.7883 16.7002 11.5473 16.5441C11.3584 16.414 11.2412 16.2059 11.2282 15.9783V12.4471C11.2282 12.4471 11.2282 12.4211 11.2282 12.408C11.2151 12.3365 11.15 12.291 11.0784 12.2975H9.2678C9.2678 12.2975 9.24175 12.2975 9.22872 12.2975C9.15708 12.3105 9.11149 12.3755 9.118 12.4471V15.6401C9.13754 15.9393 9.09846 16.2384 8.99426 16.5181C8.90959 16.6742 8.70769 16.7587 8.39508 16.7587H2.82659C2.63121 16.7782 2.43582 16.7132 2.28603 16.5896C2.14926 16.414 2.09064 16.1929 2.11669 15.9718V13.403C2.11669 13.403 2.11669 13.377 2.11669 13.364C2.10367 13.2925 2.03854 13.247 1.9669 13.2535H0.156326C0.156326 13.2535 0.130275 13.2535 0.117249 13.2535C0.0456078 13.2665 1.77957e-05 13.3315 0.0065308 13.403V16.6807C-0.0325462 17.1879 0.104224 17.6887 0.403814 18.0919C0.762021 18.43 1.25048 18.5926 1.73895 18.5471H9.12452C9.54134 18.5601 9.95165 18.5146 10.3489 18.3975C10.642 18.3 10.883 18.0854 11.0132 17.8057Z" fill="#4C3C8D"/>
<path d="M148.856 10.8538H152.243C152.301 10.8538 152.334 10.8213 152.334 10.7498V10.0539C152.334 9.9824 152.308 9.94988 152.243 9.94988H150.68C150.563 9.88485 150.465 9.80031 150.38 9.69626C150.289 9.5727 150.237 9.42312 150.243 9.26705C150.237 9.10447 150.295 8.94189 150.413 8.82483C150.543 8.70777 150.712 8.64924 150.882 8.66225C151.025 8.66225 151.162 8.68826 151.292 8.75329C151.416 8.81832 151.526 8.89636 151.624 8.98741C151.676 9.04594 151.722 9.05894 151.761 9.01992L152.236 8.51267H152.243C152.282 8.46715 152.288 8.40862 152.249 8.3631C152.106 8.17451 151.911 8.02493 151.689 7.93389C151.422 7.81033 151.129 7.7518 150.836 7.7583C150.576 7.7583 150.315 7.79732 150.068 7.88186C149.872 7.9534 149.696 8.07046 149.547 8.21353C149.416 8.35009 149.312 8.50617 149.247 8.68176C149.182 8.85084 149.149 9.02643 149.149 9.20852C149.149 9.35159 149.169 9.48816 149.208 9.62472C149.247 9.73528 149.293 9.84583 149.358 9.94988H148.843C148.785 9.94988 148.752 9.9824 148.752 10.0539V10.7563C148.752 10.8278 148.778 10.8603 148.843 10.8603L148.856 10.8538Z" fill="#4C3C8D"/>
<path d="M144.098 10.2174H145.596C145.596 10.2174 145.622 10.2174 145.635 10.2174C145.706 10.2044 145.752 10.1394 145.745 10.0678V8.61113C145.745 8.61113 145.745 8.58511 145.745 8.57211C145.732 8.50057 145.667 8.45505 145.596 8.46155H144.098C144.098 8.46155 144.072 8.46155 144.059 8.46155C143.987 8.47456 143.941 8.53959 143.948 8.61113V10.0678C143.948 10.0678 143.948 10.0939 143.948 10.1069C143.961 10.1784 144.026 10.2239 144.098 10.2174Z" fill="#4C3C8D"/>
<path d="M141.805 10.2174H143.29C143.29 10.2174 143.316 10.2174 143.329 10.2174C143.4 10.2044 143.446 10.1394 143.439 10.0678V8.61113C143.439 8.61113 143.439 8.58511 143.439 8.57211C143.426 8.50057 143.361 8.45505 143.29 8.46155H141.805C141.805 8.46155 141.779 8.46155 141.766 8.46155C141.694 8.47456 141.648 8.53959 141.655 8.61113V10.0678C141.655 10.0678 141.655 10.0939 141.655 10.1069C141.668 10.1784 141.733 10.2239 141.805 10.2174Z" fill="#4C3C8D"/>
<path d="M134.516 10.8073H136.014C136.014 10.8073 136.04 10.8073 136.053 10.8073C136.124 10.7943 136.17 10.7292 136.163 10.6577V9.20097C136.163 9.20097 136.163 9.17496 136.163 9.16195C136.15 9.09042 136.085 9.04489 136.014 9.0514H134.516C134.516 9.0514 134.49 9.0514 134.477 9.0514C134.405 9.0644 134.359 9.12944 134.366 9.20097V10.6577C134.366 10.6577 134.366 10.6837 134.366 10.6967C134.379 10.7682 134.444 10.8138 134.516 10.8073Z" fill="#4C3C8D"/>
<path d="M132.223 10.8073H133.708C133.708 10.8073 133.734 10.8073 133.747 10.8073C133.818 10.7943 133.864 10.7292 133.857 10.6577V9.20097C133.857 9.20097 133.857 9.17496 133.857 9.16195C133.844 9.09042 133.779 9.04489 133.708 9.0514H132.223C132.223 9.0514 132.197 9.0514 132.184 9.0514C132.112 9.0644 132.066 9.12944 132.073 9.20097V10.6577C132.073 10.6577 132.073 10.6837 132.073 10.6967C132.086 10.7682 132.151 10.8138 132.223 10.8073Z" fill="#4C3C8D"/>
<path d="M127.82 10.8073H129.318C129.318 10.8073 129.344 10.8073 129.357 10.8073C129.429 10.7943 129.475 10.7292 129.468 10.6577V9.20097C129.468 9.20097 129.468 9.17496 129.468 9.16195C129.455 9.09042 129.39 9.04489 129.318 9.0514H127.82C127.82 9.0514 127.794 9.0514 127.781 9.0514C127.71 9.0644 127.664 9.12944 127.671 9.20097V10.6577C127.671 10.6577 127.671 10.6837 127.671 10.6967C127.684 10.7682 127.749 10.8138 127.82 10.8073Z" fill="#4C3C8D"/>
<path d="M125.535 10.8073H127.02C127.02 10.8073 127.046 10.8073 127.059 10.8073C127.131 10.7943 127.176 10.7292 127.17 10.6577V9.20097C127.17 9.20097 127.17 9.17496 127.17 9.16195C127.157 9.09042 127.092 9.04489 127.02 9.0514H125.535C125.535 9.0514 125.509 9.0514 125.496 9.0514C125.424 9.0644 125.379 9.12944 125.385 9.20097V10.6577C125.385 10.6577 125.385 10.6837 125.385 10.6967C125.398 10.7682 125.464 10.8138 125.535 10.8073Z" fill="#4C3C8D"/>
<path d="M94.0385 8.46094H95.7448C95.849 8.46094 95.9337 8.54548 95.9337 8.64953V18.3653C95.9337 18.4694 95.849 18.5539 95.7448 18.5539H94.0385C93.9343 18.5539 93.8496 18.4694 93.8496 18.3653V8.64953C93.8496 8.54548 93.9343 8.46094 94.0385 8.46094Z" fill="#4C3C8D"/>
<path d="M69.4453 21.5905C69.5169 21.5775 69.5625 21.5124 69.556 21.4409V19.9842C69.556 19.9842 69.556 19.9582 69.556 19.9452C69.543 19.8736 69.4778 19.8281 69.4062 19.8346H67.9082C67.9082 19.8346 67.8822 19.8346 67.8691 19.8346C67.7975 19.8476 67.7519 19.9126 67.7584 19.9842V21.4409C67.7584 21.4409 67.7584 21.4669 67.7584 21.4799C67.7715 21.5514 67.8366 21.597 67.9082 21.5905H69.4062C69.4062 21.5905 69.4322 21.5905 69.4453 21.5905Z" fill="#4C3C8D"/>
<path d="M67.1471 21.5905C67.2187 21.5775 67.2643 21.5124 67.2578 21.4409V19.9842C67.2578 19.9842 67.2578 19.9582 67.2578 19.9452C67.2448 19.8736 67.1796 19.8281 67.108 19.8346H65.6231C65.6231 19.8346 65.597 19.8346 65.584 19.8346C65.5123 19.8476 65.4668 19.9126 65.4733 19.9842V21.4409C65.4733 21.4409 65.4733 21.4669 65.4733 21.4799C65.4863 21.5514 65.5514 21.597 65.6231 21.5905H67.108C67.108 21.5905 67.134 21.5905 67.1471 21.5905Z" fill="#4C3C8D"/>
<path d="M84.3028 10.8024H85.7877C85.7877 10.8024 85.8137 10.8024 85.8268 10.8024C85.8984 10.7894 85.944 10.7243 85.9375 10.6528V9.19609C85.9375 9.19609 85.9375 9.17008 85.9375 9.15707C85.9244 9.08553 85.8593 9.04001 85.7877 9.04651H84.3028C84.3028 9.04651 84.2767 9.04651 84.2637 9.04651C84.192 9.05952 84.1464 9.12455 84.153 9.19609V10.6463C84.153 10.6463 84.153 10.6723 84.153 10.6853C84.166 10.7569 84.2311 10.8024 84.3028 10.7959V10.8024Z" fill="#4C3C8D"/>
<path d="M86.5879 10.8024H88.0859C88.0859 10.8024 88.1119 10.8024 88.1249 10.8024C88.1966 10.7894 88.2422 10.7243 88.2357 10.6528V9.19609C88.2357 9.19609 88.2357 9.17008 88.2357 9.15707C88.2226 9.08553 88.1575 9.04001 88.0859 9.04651H86.5879C86.5879 9.04651 86.5619 9.04651 86.5488 9.04651C86.4772 9.05952 86.4316 9.12455 86.4381 9.19609V10.6463C86.4381 10.6463 86.4381 10.6723 86.4381 10.6853C86.4511 10.7569 86.5163 10.8024 86.5879 10.7959V10.8024Z" fill="#4C3C8D"/>
<path d="M90.3317 18.5545C90.8202 18.6001 91.3086 18.4375 91.6668 18.0993C91.9664 17.6896 92.1097 17.1889 92.0706 16.6816V8.61113C92.0706 8.61113 92.0706 8.58511 92.0706 8.57211C92.0576 8.50057 91.9925 8.45505 91.9208 8.46155H90.1103C90.1103 8.46155 90.0842 8.46155 90.0712 8.46155C89.9995 8.47456 89.954 8.53959 89.9605 8.61113V15.9728C89.9865 16.1939 89.9214 16.415 89.7911 16.5906C89.6413 16.7141 89.4459 16.7792 89.2506 16.7597H88.736C88.736 16.7597 88.723 16.7597 88.71 16.7597H88.3713C88.0848 16.7792 87.7982 16.7011 87.5637 16.5451C87.3749 16.4085 87.2576 16.1939 87.2446 15.9598V12.461C87.2446 12.461 87.2446 12.435 87.2446 12.422C87.2316 12.3505 87.1665 12.305 87.0948 12.3115H85.3103C85.3103 12.3115 85.2842 12.3115 85.2712 12.3115C85.1996 12.3245 85.154 12.3895 85.1605 12.461V15.5436C85.18 15.8622 85.141 16.1809 85.0433 16.4865C84.9651 16.6686 84.7632 16.7597 84.4506 16.7597H83.5258C83.5258 16.7597 83.4932 16.7662 83.4802 16.7662H81.5719C81.4612 16.7662 81.344 16.7662 81.2398 16.7532C81.4221 16.6231 81.5915 16.48 81.7543 16.3304C81.9301 16.1679 82.0864 15.9793 82.2232 15.7842C82.36 15.5826 82.4772 15.355 82.5554 15.1208C82.64 14.8737 82.6791 14.6201 82.6791 14.36C82.6791 14.0478 82.614 13.7357 82.4772 13.4495C82.3339 13.1569 82.1125 12.9032 81.8455 12.7147C81.5133 12.487 81.1421 12.3245 80.7513 12.2334C80.2368 12.1099 79.7092 12.0513 79.1817 12.0643C78.7649 12.0643 78.3481 12.0969 77.9377 12.1619C77.56 12.2204 77.1823 12.305 76.8175 12.4155C76.5375 12.5001 76.2639 12.6106 76.0099 12.7537C75.8015 12.8772 75.6973 13.0008 75.6973 13.1309V14.0998C75.6973 14.2169 75.7104 14.334 75.7429 14.451C75.7755 14.5356 75.8341 14.6136 75.9057 14.6656C76.2705 14.9258 76.6091 15.2184 76.9152 15.5501C77.2148 15.8687 77.4428 16.2524 77.5861 16.6686C77.4037 16.7206 77.2148 16.7467 77.0325 16.7597C76.8371 16.7727 76.6612 16.7727 76.4919 16.7727H74.5967C74.3101 16.7922 74.0235 16.7206 73.776 16.5646C73.5872 16.4215 73.4699 16.2069 73.4634 15.9728V8.61113C73.4634 8.61113 73.4634 8.58511 73.4634 8.57211C73.4504 8.50057 73.3853 8.45505 73.3136 8.46155H71.5031C71.5031 8.46155 71.477 8.46155 71.464 8.46155C71.3923 8.47456 71.3467 8.53959 71.3533 8.61113V15.407C71.3533 15.6281 71.3533 15.8167 71.3402 15.9858C71.3402 16.1288 71.3077 16.2719 71.2621 16.4085C71.223 16.519 71.1448 16.6101 71.0472 16.6686C70.9234 16.7336 70.7866 16.7662 70.6434 16.7597H70.1158C70.1158 16.7597 70.1158 16.7597 70.1093 16.7597H69.7706C69.4841 16.7792 69.1975 16.7011 68.963 16.5451C68.7742 16.4085 68.6569 16.1939 68.6439 15.9598V12.4545C68.6439 12.4545 68.6439 12.4285 68.6439 12.4155C68.6309 12.344 68.5658 12.2985 68.4941 12.305H66.7096C66.7096 12.305 66.6835 12.305 66.6705 12.305C66.5989 12.318 66.5533 12.383 66.5598 12.4545V15.5371C66.5793 15.8557 66.5403 16.1744 66.4426 16.48C66.3644 16.6621 66.1625 16.7532 65.8499 16.7532H64.9316C64.9316 16.7532 64.9251 16.7532 64.9186 16.7532C64.9121 16.7532 64.9055 16.7532 64.899 16.7532H64.4822C64.2477 16.7597 64.0198 16.6816 63.8439 16.5255C63.6616 16.3304 63.5574 16.0768 63.5639 15.8037C63.5639 15.7452 63.5639 15.6801 63.5704 15.6151C63.5769 15.5501 63.5769 15.485 63.5769 15.4135C63.5965 14.8607 63.5053 14.3079 63.3099 13.7877C63.1536 13.391 62.9061 13.0398 62.587 12.7537C62.2809 12.4935 61.9227 12.305 61.5384 12.2074C60.7178 11.9928 59.8581 11.9928 59.0375 12.2074C58.6532 12.3115 58.295 12.5001 57.9889 12.7537C57.6698 13.0333 57.4223 13.391 57.266 13.7877C57.0706 14.3079 56.9794 14.8607 56.9989 15.4135V15.7256C56.9989 15.8167 56.9989 15.9142 57.012 16.0053C57.0055 16.1679 56.9403 16.3304 56.8426 16.4605C56.7449 16.5776 56.6277 16.6816 56.504 16.7727C56.3672 16.8637 56.2304 16.9613 56.0871 17.0523C55.9373 17.1499 55.8006 17.2734 55.6833 17.41C55.5531 17.5661 55.4489 17.7481 55.3772 17.9432C55.2926 18.2099 55.247 18.4895 55.26 18.7692V21.585H57.3702V19.0813C57.3702 18.9382 57.3897 18.7952 57.4418 18.6586C57.4874 18.561 57.5525 18.47 57.6307 18.392C57.7023 18.3204 57.7805 18.2554 57.8586 18.1904C57.9498 18.1188 58.0215 18.0343 58.0801 17.9367C58.3601 18.1969 58.6923 18.3855 59.057 18.483C59.4543 18.5936 59.8711 18.6521 60.2879 18.6456C60.7894 18.6456 61.2909 18.5806 61.7663 18.431C62.2027 18.2944 62.5935 18.0343 62.8931 17.6831C63.0038 17.8652 63.1536 18.0213 63.3229 18.1513C63.4792 18.2619 63.642 18.3464 63.8244 18.4115C64.0003 18.47 64.1761 18.509 64.3585 18.522C64.5408 18.535 64.7232 18.5415 64.899 18.5415H64.9121C64.9121 18.5415 64.9186 18.5415 64.9251 18.5415H66.4556C66.8854 18.5545 67.3153 18.509 67.7321 18.4115C68.0447 18.3204 68.2987 18.0993 68.4355 17.8002C68.5853 18.0798 68.8328 18.3009 69.1324 18.4115C69.4515 18.509 69.7837 18.548 70.1158 18.5415H71.4705C71.8613 18.5545 72.252 18.5025 72.6233 18.3855C72.9033 18.2814 73.1378 18.0733 73.268 17.8002C73.4178 18.0863 73.6653 18.3009 73.9649 18.4115C74.271 18.5025 74.5836 18.5415 74.9028 18.5415C74.9158 18.5415 74.9223 18.5415 74.9353 18.5415H77.1757C77.5014 18.5415 77.8335 18.5025 78.1592 18.444C78.5239 18.379 78.8756 18.2554 79.2012 18.0798C79.4813 18.2554 79.7874 18.379 80.113 18.444C80.4452 18.509 80.7904 18.5415 81.129 18.5415H83.4867C83.4867 18.5415 83.5062 18.5415 83.5193 18.535C83.5193 18.535 83.5193 18.535 83.5258 18.535H85.0563C85.4861 18.548 85.916 18.5025 86.3328 18.405C86.6454 18.3139 86.8994 18.0928 87.0362 17.7937C87.186 18.0798 87.4335 18.2944 87.7331 18.405C88.0261 18.4895 88.3257 18.5285 88.6253 18.535C88.6579 18.535 88.6905 18.548 88.7295 18.5415H90.3382L90.3317 18.5545ZM61.1932 16.5255C60.6657 16.9743 59.8972 16.9743 59.3696 16.5255C59.1286 16.1809 59.0244 15.7647 59.0635 15.3485C59.0635 14.3535 59.4673 13.8527 60.2749 13.8527C61.0825 13.8527 61.4863 14.3535 61.4863 15.3485C61.5254 15.7647 61.4212 16.1809 61.1932 16.5255ZM80.1782 15.6736C79.9502 15.9663 79.6702 16.2134 79.351 16.402C79.2338 15.9533 79.0449 15.5306 78.7844 15.1469C78.5174 14.7372 78.1787 14.386 77.7749 14.1128C77.9443 14.0348 78.1136 13.9828 78.296 13.9438C78.589 13.8787 78.8886 13.8462 79.1882 13.8462C79.5269 13.8267 79.8656 13.9047 80.1586 14.0673C80.3931 14.2169 80.5299 14.4835 80.5103 14.7632C80.5103 15.0948 80.3866 15.4135 80.1782 15.6671V15.6736Z" fill="#4C3C8D"/>
<path d="M40.601 8.46094H42.3073C42.4116 8.46094 42.4962 8.54548 42.4962 8.64953V18.3653C42.4962 18.4694 42.4116 18.5539 42.3073 18.5539H40.601C40.4968 18.5539 40.4121 18.4694 40.4121 18.3653V8.64953C40.4121 8.54548 40.4968 8.46094 40.601 8.46094Z" fill="#4C3C8D"/>
<path d="M33.1485 10.8024H34.6464C34.6464 10.8024 34.6725 10.8024 34.6855 10.8024C34.7571 10.7894 34.8027 10.7243 34.7962 10.6528V9.19609C34.7962 9.19609 34.7962 9.17008 34.7962 9.15707C34.7832 9.08553 34.7181 9.04001 34.6464 9.04651H33.1485C33.1485 9.04651 33.1224 9.04651 33.1094 9.04651C33.0377 9.05952 32.9922 9.12455 32.9987 9.19609V10.6463C32.9987 10.6463 32.9987 10.6723 32.9987 10.6853C33.0117 10.7569 33.0768 10.8024 33.1485 10.7959V10.8024Z" fill="#4C3C8D"/>
<path d="M30.8633 10.8024H32.3482C32.3482 10.8024 32.3743 10.8024 32.3873 10.8024C32.459 10.7894 32.5045 10.7243 32.498 10.6528V9.19609C32.498 9.19609 32.498 9.17008 32.498 9.15707C32.485 9.08553 32.4199 9.04001 32.3482 9.04651H30.8633C30.8633 9.04651 30.8373 9.04651 30.8242 9.04651C30.7526 9.05952 30.707 9.12455 30.7135 9.19609V10.6463C30.7135 10.6463 30.7135 10.6723 30.7135 10.6853C30.7265 10.7569 30.7917 10.8024 30.8633 10.7959V10.8024Z" fill="#4C3C8D"/>
<path d="M38.4844 8.46155H36.6738C36.6738 8.46155 36.6478 8.46155 36.6348 8.46155C36.5631 8.47456 36.5175 8.53959 36.524 8.61113V15.9728C36.5501 16.1939 36.485 16.415 36.3547 16.5906C36.2049 16.7141 36.0095 16.7792 35.8141 16.7597H35.2996C35.2996 16.7597 35.2866 16.7597 35.2736 16.7597H34.9349C34.6483 16.7792 34.3618 16.7011 34.1273 16.5451C33.9384 16.4085 33.8212 16.1939 33.8082 15.9598V12.461C33.8082 12.461 33.8082 12.435 33.8082 12.422C33.7952 12.3505 33.73 12.305 33.6584 12.3115H31.8739C31.8739 12.3115 31.8478 12.3115 31.8348 12.3115C31.7631 12.3245 31.7176 12.3895 31.7241 12.461V15.5436C31.7436 15.8622 31.7045 16.1809 31.6068 16.4865C31.5287 16.6686 31.3268 16.7597 31.0142 16.7597H30.0959C30.0959 16.7597 30.0698 16.7662 30.0503 16.7662H29.7181C29.4316 16.7792 29.1515 16.7076 28.9105 16.5516C28.7216 16.415 28.6044 16.2004 28.5914 15.9663V14.7307C28.6695 13.9633 28.396 13.2024 27.8424 12.6691C27.2237 12.2334 26.4682 12.0188 25.7127 12.0708H23.3811C23.3811 12.0708 23.3551 12.0708 23.342 12.0708C23.2704 12.0838 23.2248 12.1489 23.2313 12.2204V13.7162C23.2313 13.7162 23.2313 13.7422 23.2313 13.7552C23.2443 13.8267 23.3095 13.8722 23.3811 13.8657H25.0875C25.4392 13.8397 25.7909 13.9308 26.0905 14.1259C26.3314 14.334 26.4552 14.6461 26.4226 14.9648V15.7647C26.4226 15.9207 26.4096 16.0833 26.3835 16.2394C26.364 16.3565 26.3119 16.4605 26.2337 16.5516C26.1426 16.6426 26.0253 16.7011 25.9016 16.7206C25.7062 16.7597 25.5043 16.7792 25.3089 16.7727H22.7559C22.7559 16.7727 22.7298 16.7727 22.7168 16.7727C22.6452 16.7857 22.5996 16.8507 22.6061 16.9222V18.418C22.6061 18.418 22.6061 18.444 22.6061 18.457C22.6191 18.5285 22.6842 18.5741 22.7559 18.5676H26.351C26.7483 18.5806 27.1455 18.5155 27.5168 18.3855C27.8294 18.2619 28.0964 18.0278 28.2527 17.7221C28.4025 18.0343 28.663 18.2749 28.9887 18.405C29.3339 18.522 29.6921 18.5741 30.0503 18.5676C30.0633 18.5676 30.0698 18.5676 30.0828 18.561C30.0828 18.561 30.0893 18.561 30.0959 18.561H31.6264C32.0562 18.5741 32.4861 18.5285 32.9029 18.431C33.2155 18.3399 33.4695 18.1188 33.6063 17.8197C33.7561 18.1058 34.0036 18.3204 34.3032 18.431C34.5897 18.5155 34.8958 18.5545 35.1954 18.561C35.228 18.561 35.2671 18.5741 35.2996 18.5676H36.9083C37.3968 18.6196 37.8852 18.4505 38.2434 18.1123C38.543 17.7026 38.6863 17.2019 38.6472 16.6946V8.61113C38.6472 8.61113 38.6472 8.58511 38.6472 8.57211C38.6342 8.50057 38.5691 8.45505 38.4974 8.46155H38.4844Z" fill="#4C3C8D"/>
<path d="M128.606 18.4517C128.925 18.4842 129.257 18.4972 129.615 18.4972H131.83C131.83 18.4972 131.836 18.4972 131.843 18.4972H133.829C134.318 18.5427 134.8 18.3801 135.158 18.042C135.457 17.6323 135.601 17.1315 135.555 16.6243V12.3972C135.555 12.3972 135.555 12.3712 135.555 12.3582C135.542 12.2866 135.477 12.2346 135.405 12.2476H133.621C133.621 12.2476 133.595 12.2476 133.582 12.2476C133.51 12.2606 133.465 12.3256 133.471 12.3972V15.9154C133.497 16.1365 133.432 16.3576 133.302 16.5332C133.152 16.6568 132.957 16.7218 132.761 16.7023H131.843C131.843 16.7023 131.836 16.7023 131.83 16.7023H130.071C129.987 16.7023 129.909 16.7023 129.824 16.7153C130.163 16.4747 130.443 16.1625 130.651 15.8049C130.872 15.4212 130.983 14.992 130.977 14.5497C130.983 14.1726 130.905 13.7954 130.749 13.4507C130.599 13.1386 130.371 12.8654 130.091 12.6573C129.778 12.4297 129.427 12.2671 129.055 12.1696C128.612 12.0525 128.15 11.994 127.694 12.0005C127.232 12.0005 126.776 12.0525 126.333 12.1696C125.962 12.2671 125.61 12.4362 125.297 12.6573C125.017 12.8654 124.789 13.1386 124.64 13.4507C124.308 14.2051 124.34 15.07 124.724 15.8049C124.926 16.1625 125.206 16.4682 125.545 16.7023H123.526H123.513H122.536V15.3236C122.549 14.7774 122.464 14.2376 122.275 13.7303C122.126 13.3336 121.885 12.9825 121.566 12.7093C121.259 12.4557 120.908 12.2671 120.524 12.1696C120.113 12.059 119.696 12.007 119.273 12.007C118.863 12.007 118.452 12.0655 118.062 12.1826C117.677 12.2996 117.319 12.4947 117.02 12.7614C116.701 13.054 116.453 13.4117 116.29 13.8149C116.095 14.3286 115.997 14.8684 116.017 15.4147C115.925 16.2861 116.212 17.151 116.798 17.8014C117.43 18.3021 118.225 18.5557 119.032 18.4972H120.458C120.465 18.7118 120.432 18.9264 120.367 19.128C120.322 19.2776 120.23 19.4077 120.113 19.5052C119.996 19.5962 119.853 19.6613 119.703 19.6873C119.521 19.7263 119.332 19.7393 119.143 19.7393H117.436C117.436 19.7393 117.41 19.7393 117.397 19.7393C117.326 19.7523 117.28 19.8174 117.287 19.8889V21.3846C117.287 21.3846 117.287 21.4106 117.287 21.4236C117.3 21.4952 117.365 21.5407 117.436 21.5342H119.599C120.4 21.6057 121.188 21.3586 121.813 20.8579C122.328 20.2921 122.588 19.5442 122.523 18.7833V18.5037H123.532C123.532 18.5037 123.546 18.5037 123.552 18.5037H125.669C125.955 18.5037 126.287 18.4907 126.659 18.4582C127.023 18.4322 127.382 18.3216 127.707 18.146C127.981 18.3151 128.287 18.4257 128.612 18.4582L128.606 18.4517ZM120.445 16.7023H119.299C118.973 16.7153 118.648 16.6178 118.387 16.4292C118.114 16.1365 117.984 15.7333 118.036 15.3366C118.016 14.9334 118.127 14.5367 118.355 14.2116C118.57 13.9319 118.915 13.7759 119.267 13.7954C120.048 13.7954 120.439 14.2831 120.439 15.2651V16.7023H120.445ZM126.834 15.8049C126.58 15.4992 126.457 15.109 126.476 14.7123C126.444 14.3547 126.58 14.0035 126.841 13.7629C127.082 13.5678 127.382 13.4637 127.688 13.4637C127.994 13.4637 128.287 13.5678 128.521 13.7629C128.788 14.0035 128.925 14.3547 128.893 14.7123C128.912 15.109 128.782 15.4992 128.534 15.8049C128.3 16.078 128.007 16.2926 127.681 16.4487C127.356 16.2926 127.069 16.0715 126.828 15.8049H126.834Z" fill="#4C3C8D"/>
</svg>
