<svg width="226" height="34" viewBox="0 0 226 34" fill="none" xmlns="http://www.w3.org/2000/svg">
<path d="M216.916 5.39798L210.477 9.76225L210.535 16.7607L216.974 12.3964L216.916 5.39798Z" fill="white"/>
<path d="M201.926 22.5876L208.182 18.3404V11.2964L201.926 15.5436V22.5876Z" fill="white"/>
<path d="M225.318 27.2904L218.077 24.4546L212.322 28.4547L219.57 31.2905L225.324 27.2904H225.318Z" fill="white"/>
<path d="M202.637 24.6435L209.682 27.4012L215.508 23.4272L208.463 20.6695L202.643 24.6435H202.637Z" fill="white"/>
<path d="M211.553 18.5619L210.777 19.1018L217.81 21.8595L224.653 17.1896L217.621 14.4253L211.553 18.5685V18.5619Z" fill="white"/>
<path d="M208.182 0.239777L201.926 4.47396V12.7602L208.182 8.51953V0.239777Z" fill="white"/>
<path d="M166.194 27.5376C165.939 27.5311 165.692 27.5831 165.47 27.7002C165.288 27.7913 165.131 27.9344 165.027 28.1035H165.014V27.7197C165.014 27.7197 165.014 27.7067 165.014 27.6937C165.007 27.6547 164.968 27.6222 164.929 27.6287H164.369C164.369 27.6287 164.356 27.6287 164.349 27.6287C164.31 27.6287 164.278 27.6742 164.284 27.7132V31.7198C164.284 31.7198 164.284 31.7328 164.284 31.7393C164.284 31.7783 164.33 31.8108 164.369 31.8043H164.929C164.929 31.8043 164.942 31.8043 164.955 31.8043C164.994 31.8043 165.027 31.7588 165.02 31.7198V29.2287C165.007 28.9555 165.105 28.6823 165.288 28.4807C165.47 28.2921 165.724 28.1945 165.985 28.2075C166.252 28.188 166.513 28.2921 166.689 28.4872C166.858 28.7149 166.937 28.9945 166.924 29.2742V31.7198C166.924 31.7198 166.924 31.7328 166.924 31.7393C166.924 31.7848 166.969 31.8108 167.008 31.8043H167.569C167.569 31.8043 167.582 31.8043 167.588 31.8043C167.634 31.8043 167.66 31.7588 167.654 31.7198V29.0986C167.673 28.6823 167.536 28.2726 167.269 27.9539C166.995 27.6612 166.604 27.5051 166.2 27.5246L166.194 27.5376Z" fill="white"/>
<path d="M162.953 28.6628C162.855 28.3246 162.64 28.0319 162.346 27.8303C161.701 27.4401 160.9 27.4401 160.254 27.8303C159.961 28.0319 159.746 28.3246 159.648 28.6628C159.603 28.8124 159.564 28.962 159.544 29.1181C159.518 29.3198 159.505 29.5214 159.511 29.723C159.511 29.9246 159.518 30.1263 159.544 30.3279C159.564 30.484 159.603 30.6336 159.648 30.7832C159.753 31.1214 159.968 31.4141 160.254 31.6157C160.561 31.8173 160.926 31.9214 161.297 31.9149C161.669 31.9279 162.034 31.8238 162.34 31.6157C162.633 31.4141 162.842 31.1214 162.946 30.7832C162.992 30.6336 163.031 30.484 163.05 30.3279C163.076 30.1263 163.089 29.9246 163.083 29.723C163.083 29.5214 163.076 29.3198 163.05 29.1181C163.031 28.962 162.992 28.8124 162.946 28.6628H162.953ZM162.32 30.2108C162.307 30.3344 162.281 30.458 162.249 30.5751C162.19 30.7702 162.066 30.9393 161.897 31.0564C161.721 31.1734 161.512 31.232 161.304 31.2255C161.095 31.232 160.887 31.1734 160.711 31.0564C160.541 30.9393 160.417 30.7702 160.359 30.5751C160.326 30.458 160.3 30.3344 160.287 30.2108C160.267 30.0482 160.261 29.8856 160.267 29.7165C160.267 29.5539 160.267 29.3913 160.287 29.2287C160.3 29.1051 160.326 28.9881 160.359 28.871C160.417 28.6759 160.541 28.5067 160.711 28.3897C161.076 28.162 161.538 28.162 161.903 28.3897C162.073 28.5067 162.19 28.6759 162.255 28.871C162.288 28.9881 162.314 29.1051 162.327 29.2287C162.346 29.3913 162.353 29.5539 162.346 29.7165C162.346 29.8791 162.346 30.0482 162.327 30.2108H162.32Z" fill="white"/>
<path d="M158.24 27.6353H157.679C157.679 27.6353 157.666 27.6353 157.66 27.6353C157.621 27.6353 157.588 27.6808 157.595 27.7199V31.7264C157.595 31.7264 157.595 31.7394 157.595 31.7459C157.595 31.7849 157.64 31.8175 157.679 31.8109H158.24C158.24 31.8109 158.253 31.8109 158.259 31.8109C158.305 31.8109 158.331 31.7654 158.325 31.7264V27.7199C158.325 27.7199 158.325 27.7068 158.325 27.7003C158.325 27.6548 158.279 27.6288 158.24 27.6353Z" fill="white"/>
<path d="M155.185 29.3646L154.748 29.3191C154.52 29.3191 154.292 29.254 154.096 29.1435C153.979 29.0524 153.914 28.9028 153.92 28.7532C153.92 28.5906 153.992 28.4345 154.122 28.337C154.298 28.2199 154.507 28.1613 154.715 28.1744C154.93 28.1744 155.139 28.2069 155.341 28.2784C155.517 28.337 155.686 28.415 155.843 28.5126C155.882 28.5451 155.934 28.5321 155.96 28.4931L156.26 28.1158C156.293 28.0638 156.286 28.0248 156.24 27.9922C156.045 27.8491 155.83 27.7386 155.595 27.6605C155.322 27.5695 155.041 27.5239 154.754 27.5304C154.344 27.5044 153.933 27.6215 153.601 27.8687C153.327 28.1028 153.177 28.4475 153.197 28.8053C153.184 29.1109 153.295 29.4036 153.51 29.6183C153.777 29.8394 154.103 29.9695 154.448 29.9825L154.891 30.028C155.119 30.028 155.348 30.0996 155.543 30.2232C155.654 30.3207 155.713 30.4638 155.706 30.6134C155.706 30.7955 155.621 30.9646 155.478 31.0687C155.276 31.2053 155.028 31.2638 154.787 31.2508C154.539 31.2508 154.292 31.2053 154.064 31.1077C153.855 31.0232 153.66 30.9126 153.49 30.7695C153.49 30.7695 153.484 30.7565 153.477 30.7565C153.445 30.7305 153.392 30.737 153.366 30.7695L153.008 31.1532C153.008 31.1532 152.995 31.1663 152.988 31.1728C152.962 31.2053 152.969 31.2508 153.008 31.2768C153.216 31.4524 153.445 31.5955 153.692 31.6996C153.849 31.7646 154.005 31.8167 154.168 31.8492C154.357 31.8882 154.546 31.9077 154.735 31.9077C155.185 31.9402 155.634 31.8102 155.993 31.537C156.286 31.2898 156.442 30.9256 156.429 30.5419C156.442 30.2427 156.332 29.9435 156.117 29.7288C155.849 29.5012 155.517 29.3711 155.165 29.3646H155.185Z" fill="white"/>
<path d="M150.901 29.3646L150.465 29.3191C150.237 29.3191 150.009 29.254 149.813 29.1435C149.696 29.0524 149.631 28.9028 149.637 28.7532C149.637 28.5906 149.709 28.4345 149.839 28.337C150.015 28.2199 150.224 28.1613 150.432 28.1744C150.647 28.1744 150.856 28.2069 151.058 28.2784C151.234 28.337 151.403 28.415 151.56 28.5126C151.599 28.5451 151.651 28.5321 151.677 28.4931L151.977 28.1158C152.009 28.0638 152.003 28.0248 151.957 27.9922C151.762 27.8491 151.547 27.7386 151.312 27.6605C151.038 27.5695 150.758 27.5239 150.471 27.5304C150.061 27.5044 149.65 27.6215 149.318 27.8687C149.044 28.1028 148.894 28.4475 148.914 28.8053C148.901 29.1109 149.011 29.4036 149.226 29.6183C149.494 29.8394 149.82 29.9695 150.165 29.9825L150.608 30.028C150.836 30.028 151.064 30.0996 151.26 30.2232C151.371 30.3207 151.429 30.4638 151.423 30.6134C151.423 30.7955 151.338 30.9646 151.195 31.0687C150.993 31.2053 150.745 31.2638 150.504 31.2508C150.256 31.2508 150.009 31.2053 149.78 31.1077C149.572 31.0232 149.376 30.9126 149.207 30.7695C149.207 30.7695 149.2 30.7565 149.194 30.7565C149.161 30.7305 149.109 30.737 149.083 30.7695L148.725 31.1532C148.725 31.1532 148.712 31.1663 148.705 31.1728C148.679 31.2053 148.686 31.2508 148.725 31.2768C148.933 31.4524 149.161 31.5955 149.409 31.6996C149.565 31.7646 149.722 31.8167 149.885 31.8492C150.074 31.8882 150.263 31.9077 150.452 31.9077C150.901 31.9402 151.351 31.8102 151.71 31.537C152.003 31.2898 152.159 30.9256 152.146 30.5419C152.159 30.2427 152.048 29.95 151.84 29.7288C151.573 29.5012 151.24 29.3711 150.888 29.3646H150.901Z" fill="white"/>
<path d="M147.5 27.6353H146.939C146.939 27.6353 146.926 27.6353 146.92 27.6353C146.88 27.6353 146.848 27.6808 146.854 27.7199V31.7264C146.854 31.7264 146.854 31.7394 146.854 31.7459C146.854 31.7849 146.9 31.8175 146.939 31.8109H147.5C147.5 31.8109 147.513 31.8109 147.519 31.8109C147.565 31.8109 147.591 31.7654 147.584 31.7264V27.7199C147.584 27.7199 147.584 27.7068 147.584 27.7003C147.584 27.6548 147.539 27.6288 147.5 27.6353Z" fill="white"/>
<path d="M143.961 27.5375C143.681 27.531 143.401 27.5895 143.153 27.7131C142.938 27.8302 142.749 27.9928 142.606 28.1944H142.599C142.488 27.9928 142.319 27.8237 142.117 27.7131C141.889 27.596 141.635 27.5375 141.38 27.544C141.126 27.5375 140.879 27.5895 140.657 27.7066C140.475 27.7977 140.318 27.9408 140.214 28.1099H140.207V27.7261C140.207 27.7261 140.207 27.7131 140.207 27.7066C140.207 27.6611 140.162 27.6351 140.123 27.6416H139.562C139.562 27.6416 139.549 27.6416 139.543 27.6416C139.503 27.6416 139.471 27.6871 139.477 27.7261V31.7327C139.477 31.7327 139.477 31.7457 139.477 31.7522C139.477 31.7912 139.523 31.8237 139.562 31.8172H140.123C140.123 31.8172 140.136 31.8172 140.142 31.8172C140.188 31.8172 140.214 31.7717 140.207 31.7327V29.2416C140.194 28.9684 140.286 28.7017 140.475 28.4936C140.657 28.305 140.911 28.2074 141.172 28.2204C141.439 28.2009 141.7 28.305 141.876 28.5001C142.045 28.7278 142.123 29.0074 142.11 29.2871V31.7327C142.11 31.7327 142.11 31.7457 142.11 31.7522C142.11 31.7977 142.156 31.8237 142.195 31.8172H142.756C142.756 31.8172 142.769 31.8172 142.782 31.8172C142.821 31.8172 142.853 31.7717 142.847 31.7327V29.2416C142.834 28.9684 142.932 28.6952 143.121 28.4936C143.303 28.3115 143.551 28.2074 143.811 28.2204C144.079 28.2009 144.339 28.305 144.515 28.5001C144.685 28.7278 144.763 29.0074 144.75 29.2871V31.7327C144.75 31.7327 144.75 31.7457 144.75 31.7522C144.75 31.7977 144.796 31.8237 144.835 31.8172H145.395C145.395 31.8172 145.408 31.8172 145.415 31.8172C145.454 31.8172 145.486 31.7717 145.48 31.7327V29.1115C145.499 28.6952 145.369 28.2855 145.102 27.9668C144.809 27.6676 144.404 27.5115 143.987 27.5375H143.961Z" fill="white"/>
<path d="M136.579 27.5375C136.298 27.531 136.018 27.5895 135.77 27.7131C135.555 27.8302 135.366 27.9928 135.223 28.1944H135.216C135.106 27.9928 134.936 27.8237 134.734 27.7131C134.506 27.596 134.252 27.5375 133.998 27.544C133.743 27.5375 133.496 27.5895 133.274 27.7066C133.092 27.7977 132.935 27.9408 132.831 28.1099H132.825V27.7261C132.825 27.7261 132.825 27.7131 132.825 27.7066C132.825 27.6611 132.779 27.6351 132.74 27.6416H132.179C132.179 27.6416 132.166 27.6416 132.16 27.6416C132.121 27.6416 132.088 27.6871 132.095 27.7261V31.7327C132.095 31.7327 132.095 31.7457 132.095 31.7522C132.095 31.7912 132.14 31.8237 132.179 31.8172H132.74C132.74 31.8172 132.753 31.8172 132.759 31.8172C132.805 31.8172 132.831 31.7717 132.825 31.7327V29.2416C132.811 28.9684 132.903 28.7017 133.092 28.4936C133.274 28.305 133.528 28.2074 133.789 28.2204C134.056 28.2009 134.317 28.305 134.493 28.5001C134.662 28.7278 134.741 29.0074 134.728 29.2871V31.7327C134.728 31.7327 134.728 31.7457 134.728 31.7522C134.728 31.7977 134.773 31.8237 134.812 31.8172H135.373C135.373 31.8172 135.386 31.8172 135.399 31.8172C135.438 31.8172 135.471 31.7717 135.464 31.7327V29.2416C135.451 28.9684 135.549 28.6952 135.738 28.4936C135.92 28.3115 136.168 28.2074 136.429 28.2204C136.696 28.2009 136.957 28.305 137.132 28.5001C137.302 28.7278 137.38 29.0074 137.361 29.2871V31.7327C137.361 31.7327 137.361 31.7457 137.361 31.7522C137.361 31.7977 137.406 31.8237 137.445 31.8172H138.006C138.006 31.8172 138.019 31.8172 138.025 31.8172C138.064 31.8172 138.097 31.7717 138.091 31.7327V29.1115C138.11 28.6952 137.973 28.2855 137.713 27.9668C137.419 27.6676 137.015 27.5115 136.598 27.5375H136.579Z" fill="white"/>
<path d="M103.26 27.5369C102.98 27.5369 102.7 27.5694 102.433 27.6474C102.218 27.7125 102.016 27.81 101.84 27.9466C101.807 27.9791 101.801 28.0312 101.82 28.0702L102.055 28.4734C102.087 28.519 102.126 28.5255 102.179 28.4799C102.309 28.3889 102.446 28.3173 102.596 28.2653C102.791 28.2068 102.987 28.1743 103.189 28.1808C103.469 28.1482 103.749 28.2198 103.984 28.3694C104.14 28.5385 104.219 28.7661 104.192 28.9938V29.2995C104.192 29.2995 104.192 29.306 104.192 29.3125C104.192 29.3385 104.166 29.358 104.14 29.3515H103.189C102.765 29.3255 102.342 29.4361 101.983 29.6637C101.683 29.8979 101.52 30.2686 101.553 30.6458C101.553 30.8344 101.586 31.0231 101.664 31.1987C101.729 31.3483 101.833 31.4849 101.964 31.5954C102.094 31.706 102.244 31.784 102.407 31.8296C102.589 31.8816 102.772 31.9076 102.961 31.9076C103.234 31.9206 103.502 31.8621 103.749 31.7515C103.932 31.667 104.095 31.5304 104.205 31.3613H104.212V31.7255C104.212 31.7255 104.212 31.7385 104.212 31.745C104.212 31.784 104.258 31.8166 104.297 31.8101H104.805C104.805 31.8101 104.818 31.8101 104.825 31.8101C104.864 31.8101 104.896 31.7645 104.89 31.7255V28.9613C104.929 28.558 104.792 28.1612 104.518 27.8686C104.147 27.6149 103.704 27.4978 103.254 27.5434L103.26 27.5369ZM104.199 30.4637C104.212 30.6979 104.108 30.9255 103.919 31.0686C103.691 31.2247 103.417 31.2962 103.137 31.2832C102.909 31.3027 102.68 31.2442 102.485 31.1206C102.329 31.0036 102.244 30.8214 102.257 30.6328C102.237 30.4312 102.335 30.2296 102.504 30.1125C102.752 29.9889 103.026 29.9304 103.306 29.9499H104.153C104.153 29.9499 104.16 29.9499 104.166 29.9499C104.192 29.9499 104.212 29.9759 104.205 30.0019V30.4637H104.199Z" fill="white"/>
<path d="M91.5834 27.5369C91.3031 27.5369 91.0229 27.5694 90.7492 27.6474C90.5341 27.7125 90.3321 27.81 90.1561 27.9466C90.1235 27.9791 90.117 28.0312 90.1365 28.0702L90.3712 28.4734C90.4038 28.519 90.4429 28.5255 90.495 28.4799C90.6253 28.3889 90.7622 28.3173 90.9121 28.2653C91.1076 28.2068 91.3032 28.1743 91.5052 28.1808C91.7854 28.1482 92.0657 28.2198 92.3003 28.3694C92.4567 28.5385 92.5349 28.7661 92.5089 28.9938V29.2995C92.5089 29.2995 92.5089 29.306 92.5089 29.3125C92.5089 29.3385 92.4828 29.358 92.4567 29.3515H91.5052C91.0816 29.3255 90.6579 29.4361 90.2995 29.6637C89.9997 29.8979 89.8368 30.2686 89.8693 30.6458C89.8693 30.8344 89.9019 31.0231 89.9801 31.1987C90.0453 31.3483 90.1496 31.4849 90.2799 31.5954C90.4103 31.706 90.5602 31.784 90.7231 31.8296C90.9056 31.8816 91.0881 31.9076 91.2771 31.9076C91.5508 31.9206 91.818 31.8621 92.0657 31.7515C92.2482 31.667 92.4111 31.5304 92.5219 31.3613H92.5284V31.7255C92.5284 31.7255 92.5284 31.7385 92.5284 31.745C92.5284 31.784 92.574 31.8166 92.6131 31.8101H93.1215C93.1215 31.8101 93.1345 31.8101 93.141 31.8101C93.1801 31.8101 93.2127 31.7645 93.2062 31.7255V28.9613C93.2453 28.558 93.1084 28.1612 92.8347 27.8686C92.4632 27.6149 92.0201 27.4978 91.5704 27.5434L91.5834 27.5369ZM92.5219 30.4637C92.5349 30.6979 92.4307 30.9255 92.2416 31.0686C92.0135 31.2247 91.7398 31.2962 91.4596 31.2832C91.2315 31.3027 91.0033 31.2442 90.8078 31.1206C90.6514 31.0036 90.5667 30.8214 90.5797 30.6328C90.5602 30.4312 90.6579 30.2296 90.8274 30.1125C91.075 29.9889 91.3488 29.9304 91.629 29.9499H92.4763C92.4763 29.9499 92.4828 29.9499 92.4893 29.9499C92.5154 29.9499 92.5349 29.9759 92.5284 30.0019V30.4637H92.5219Z" fill="white"/>
<path d="M89.1177 27.6353H88.5246C88.4725 27.6353 88.4269 27.6743 88.4204 27.7198L87.3645 30.7247H87.345L86.2631 27.7198C86.2501 27.6678 86.2045 27.6353 86.1523 27.6353H85.5462C85.481 27.6353 85.4615 27.6613 85.4745 27.7198L86.98 31.7329C86.9865 31.7849 87.0322 31.8239 87.0843 31.8174H87.5861C87.6383 31.8174 87.6904 31.7784 87.6969 31.7264L89.1959 27.7198C89.2155 27.6613 89.1959 27.6353 89.1242 27.6353H89.1177Z" fill="white"/>
<path d="M77.5648 27.635H77.0043C77.0043 27.635 76.9912 27.635 76.9847 27.635C76.9391 27.635 76.913 27.6805 76.9195 27.7196V28.1098H76.913C76.8153 27.9342 76.6654 27.7911 76.4894 27.6935C75.9615 27.4529 75.3554 27.4919 74.8601 27.7911C74.6124 27.9797 74.4299 28.2464 74.3452 28.5456C74.2931 28.7017 74.254 28.8643 74.2344 29.0269C74.1953 29.4367 74.1953 29.8464 74.2344 30.2562C74.254 30.4188 74.2931 30.5814 74.3452 30.7375C74.4299 31.0367 74.6124 31.3033 74.8601 31.492C75.1208 31.6741 75.4336 31.7651 75.7529 31.7521C76.0071 31.7651 76.2613 31.7066 76.4894 31.596C76.6654 31.4985 76.8153 31.3489 76.913 31.1733H76.9195V31.6676C76.9456 31.9733 76.8479 32.2855 76.6523 32.5261C76.4373 32.7212 76.1505 32.8253 75.8637 32.7993C75.6813 32.7993 75.4922 32.7668 75.3228 32.6887C75.1599 32.6107 75.0034 32.5066 74.8731 32.3765L74.8601 32.3635C74.821 32.331 74.7688 32.3375 74.7428 32.3765L74.3843 32.7342H74.3713C74.3387 32.7733 74.3387 32.8253 74.3713 32.8578C74.5277 33.0595 74.7428 33.2155 74.9774 33.3066C75.2446 33.4237 75.5314 33.4757 75.8246 33.4757H75.8181C76.32 33.5082 76.8087 33.3391 77.1802 33.0009C77.5126 32.6237 77.6821 32.1294 77.6495 31.6285V27.7196C77.6495 27.7196 77.6495 27.7066 77.6495 27.7001C77.6495 27.6545 77.6039 27.6285 77.5582 27.635H77.5648ZM76.8935 30.1066C76.8804 30.2237 76.8544 30.3407 76.8218 30.4578C76.711 30.8546 76.333 31.1147 75.9224 31.0822C75.5183 31.1082 75.1468 30.848 75.036 30.4578C74.9578 30.1976 74.9252 29.9245 74.9318 29.6513C74.9318 29.5017 74.9383 29.3521 74.9578 29.2025C74.9709 29.0789 74.9969 28.9619 75.036 28.8383C75.1338 28.5781 75.3358 28.3765 75.5965 28.2789C76.0918 28.0968 76.6393 28.344 76.8218 28.8383C76.8609 28.9553 76.8804 29.0724 76.8935 29.1895C76.9065 29.3391 76.9195 29.4952 76.913 29.6448C76.913 29.8009 76.913 29.9505 76.8935 30.1066Z" fill="white"/>
<path d="M68.1851 27.6353H67.6246C67.6246 27.6353 67.6116 27.6353 67.6051 27.6353C67.566 27.6353 67.5334 27.6808 67.5399 27.7199V31.7264C67.5399 31.7264 67.5399 31.7394 67.5399 31.7459C67.5399 31.7849 67.5855 31.8175 67.6246 31.8109H68.1851C68.1851 31.8109 68.1982 31.8109 68.2047 31.8109C68.2503 31.8109 68.2764 31.7654 68.2698 31.7264V27.7199C68.2698 27.7199 68.2698 27.7068 68.2698 27.7003C68.2698 27.6548 68.2242 27.6288 68.1851 27.6353Z" fill="white"/>
<path d="M64.691 27.538C64.4368 27.5314 64.1892 27.5835 63.9676 27.7006C63.7851 27.7916 63.6287 27.9347 63.5244 28.1038H63.5179V27.7201C63.5179 27.7201 63.5179 27.7071 63.5179 27.7006C63.5179 27.6615 63.4723 27.629 63.4332 27.6355H62.8727C62.8727 27.6355 62.8596 27.6355 62.8531 27.6355C62.814 27.6355 62.7814 27.681 62.7879 27.7201V31.7266C62.7879 31.7266 62.7879 31.7396 62.7879 31.7461C62.7879 31.7851 62.8336 31.8177 62.8727 31.8112H63.4332C63.4332 31.8112 63.4462 31.8112 63.4527 31.8112C63.4918 31.8112 63.5244 31.7656 63.5179 31.7266V29.2355C63.5048 28.9624 63.6026 28.6892 63.7851 28.4876C63.9676 28.2989 64.2218 28.2014 64.4824 28.2144C64.7497 28.1949 65.0104 28.2989 65.1863 28.4941C65.3558 28.7217 65.434 29.0014 65.4209 29.2811V31.7266C65.4209 31.7266 65.4209 31.7396 65.4209 31.7461C65.4209 31.7851 65.4666 31.8177 65.5057 31.8112H66.0662C66.0662 31.8112 66.0792 31.8112 66.0857 31.8112C66.1248 31.8112 66.1574 31.7656 66.1509 31.7266V29.1054C66.1704 28.6892 66.0336 28.2794 65.7664 27.9607C65.4926 27.668 65.1016 27.5119 64.6975 27.5314L64.691 27.538Z" fill="white"/>
<path d="M61.2574 27.6353H60.6969C60.6969 27.6353 60.6839 27.6353 60.6773 27.6353C60.6382 27.6353 60.6056 27.6808 60.6122 27.7199V31.7264C60.6122 31.7264 60.6122 31.7394 60.6122 31.7459C60.6122 31.7849 60.6578 31.8175 60.6969 31.8109H61.2574C61.2574 31.8109 61.2704 31.8109 61.2769 31.8109C61.3226 31.8109 61.3486 31.7654 61.3421 31.7264V27.7199C61.3421 27.7199 61.3421 27.7068 61.3421 27.7003C61.3421 27.6548 61.2965 27.6288 61.2574 27.6353Z" fill="white"/>
<path d="M55.0267 27.6227C54.8768 27.5641 54.7139 27.5381 54.551 27.5381C54.3098 27.5316 54.0687 27.5901 53.8536 27.7072C53.6777 27.8113 53.5343 27.9674 53.4365 28.1495H53.43V27.7202C53.43 27.7202 53.43 27.7072 53.43 27.7007C53.43 27.6552 53.3844 27.6292 53.3453 27.6357H52.7848C52.7848 27.6357 52.7717 27.6357 52.7652 27.6357C52.7261 27.6357 52.6935 27.6812 52.7001 27.7202V31.7268C52.7001 31.7268 52.7001 31.7398 52.7001 31.7463C52.7001 31.7853 52.7457 31.8178 52.7848 31.8113H53.3388C53.3388 31.8113 53.3518 31.8113 53.3583 31.8113C53.4039 31.8113 53.43 31.7658 53.4235 31.7268V29.4373C53.4104 29.1251 53.4821 28.8194 53.632 28.5528C53.7819 28.3251 54.0491 28.195 54.3229 28.2145C54.4402 28.2145 54.551 28.2341 54.6618 28.2666C54.7726 28.3056 54.8703 28.3511 54.9681 28.4162C54.9681 28.4162 54.9811 28.4292 54.9876 28.4292C55.0267 28.4487 55.0724 28.4357 55.0919 28.3967L55.4178 27.9674C55.4438 27.9284 55.4373 27.8763 55.3982 27.8438C55.2874 27.7397 55.1571 27.6617 55.0202 27.6097L55.0267 27.6227Z" fill="white"/>
<path d="M158.255 25.8791H157.662C157.662 25.8791 157.649 25.8791 157.642 25.8791C157.597 25.8791 157.571 25.9246 157.577 25.9637V26.5946C157.577 26.5946 157.577 26.6076 157.577 26.6141C157.577 26.6531 157.623 26.6856 157.662 26.6791H158.255C158.255 26.6791 158.268 26.6791 158.275 26.6791C158.32 26.6791 158.346 26.6336 158.34 26.5946V25.9572C158.34 25.9572 158.34 25.9441 158.34 25.9376C158.34 25.8921 158.294 25.8661 158.248 25.8726L158.255 25.8791Z" fill="white"/>
<path d="M184.596 5.39798L191.029 9.76225L190.97 16.7607L184.531 12.3964L184.59 5.39798H184.596Z" fill="white"/>
<path d="M199.595 22.5876L193.338 18.3404V11.2964L199.595 15.5436V22.5811V22.5876Z" fill="white"/>
<path d="M176.196 27.2904L183.437 24.4546L189.192 28.4547L181.944 31.2905L176.189 27.2904H176.196Z" fill="white"/>
<path d="M198.883 24.6435L191.838 27.4012L186.012 23.4272L193.057 20.6695L198.877 24.6435H198.883Z" fill="white"/>
<path d="M189.967 18.5619L190.743 19.1018L183.71 21.8595L176.867 17.1896L183.899 14.4253L189.967 18.5685V18.5619Z" fill="white"/>
<path d="M193.338 0.239777V8.51303L199.588 12.7537V4.47396L193.338 0.239777Z" fill="white"/>
<path d="M130.751 28.6628C130.647 28.3246 130.439 28.0319 130.145 27.8303C129.5 27.4401 128.698 27.4401 128.053 27.8303C127.76 28.0319 127.545 28.3246 127.447 28.6628C127.401 28.8124 127.362 28.962 127.343 29.1181C127.317 29.3198 127.304 29.5214 127.31 29.723C127.31 29.9246 127.317 30.1263 127.343 30.3279C127.362 30.484 127.401 30.6336 127.447 30.7832C127.551 31.1214 127.766 31.4141 128.053 31.6157C128.36 31.8173 128.725 31.9214 129.096 31.9149C129.467 31.9279 129.832 31.8238 130.139 31.6157C130.432 31.4141 130.641 31.1214 130.745 30.7832C130.791 30.6336 130.83 30.484 130.849 30.3279C130.875 30.1263 130.888 29.9246 130.882 29.723C130.882 29.5214 130.875 29.3198 130.849 29.1181C130.83 28.962 130.791 28.8124 130.745 28.6628H130.751ZM130.119 30.2108C130.106 30.3344 130.08 30.458 130.048 30.5751C129.989 30.7702 129.865 30.9393 129.696 31.0564C129.52 31.1734 129.311 31.232 129.103 31.2255C128.894 31.232 128.685 31.1734 128.509 31.0564C128.34 30.9393 128.216 30.7702 128.158 30.5751C128.125 30.458 128.099 30.3344 128.086 30.2108C128.066 30.0482 128.06 29.8856 128.066 29.7165C128.066 29.5539 128.066 29.3913 128.086 29.2287C128.099 29.1051 128.125 28.9881 128.158 28.871C128.216 28.6759 128.34 28.5067 128.509 28.3897C128.874 28.162 129.337 28.162 129.696 28.3897C129.865 28.5067 129.982 28.6759 130.048 28.871C130.08 28.9881 130.106 29.1051 130.119 29.2287C130.139 29.3913 130.145 29.5539 130.139 29.7165C130.139 29.8791 130.139 30.0482 130.119 30.2108Z" fill="white"/>
<path d="M117.664 27.538C117.409 27.5314 117.162 27.5835 116.94 27.7006C116.758 27.7916 116.601 27.9347 116.497 28.1038H116.491V27.7201C116.491 27.7201 116.491 27.7071 116.491 27.6941C116.484 27.655 116.445 27.6225 116.406 27.629H115.845C115.845 27.629 115.832 27.629 115.826 27.629C115.787 27.629 115.754 27.6745 115.761 27.7136V31.7201C115.761 31.7201 115.761 31.7331 115.761 31.7396C115.761 31.7786 115.806 31.8112 115.845 31.8047H116.412C116.412 31.8047 116.425 31.8047 116.438 31.8047C116.478 31.8047 116.51 31.7591 116.504 31.7201V29.2355C116.491 28.9624 116.582 28.6892 116.764 28.4876C116.947 28.2989 117.201 28.2014 117.462 28.2144C117.729 28.1949 117.99 28.2989 118.165 28.4941C118.335 28.7217 118.413 29.0014 118.394 29.2811V31.7266C118.394 31.7266 118.394 31.7396 118.394 31.7461C118.394 31.7917 118.439 31.8177 118.478 31.8112H119.039C119.039 31.8112 119.052 31.8112 119.058 31.8112C119.104 31.8112 119.13 31.7656 119.124 31.7266V29.1054C119.143 28.6892 119.006 28.2794 118.739 27.9607C118.465 27.668 118.074 27.5119 117.67 27.5314L117.664 27.538Z" fill="white"/>
<path d="M114.431 28.6628C114.333 28.3246 114.118 28.0319 113.825 27.8303C113.18 27.4401 112.378 27.4401 111.733 27.8303C111.44 28.0319 111.225 28.3246 111.127 28.6628C111.081 28.8124 111.042 28.962 111.023 29.1181C110.996 29.3198 110.983 29.5214 110.99 29.723C110.99 29.9246 110.996 30.1263 111.023 30.3279C111.042 30.484 111.081 30.6336 111.127 30.7832C111.231 31.1214 111.446 31.4141 111.733 31.6157C112.039 31.8173 112.404 31.9214 112.776 31.9149C113.147 31.9279 113.512 31.8238 113.818 31.6157C114.112 31.4141 114.32 31.1214 114.425 30.7832C114.47 30.6336 114.509 30.484 114.529 30.3279C114.555 30.1263 114.568 29.9246 114.561 29.723C114.561 29.5214 114.555 29.3198 114.529 29.1181C114.509 28.962 114.47 28.8124 114.425 28.6628H114.431ZM113.799 30.2108C113.786 30.3344 113.76 30.458 113.727 30.5751C113.669 30.7702 113.545 30.9393 113.375 31.0564C113.199 31.1734 112.991 31.232 112.782 31.2255C112.574 31.232 112.365 31.1734 112.189 31.0564C112.02 30.9393 111.896 30.7702 111.837 30.5751C111.805 30.458 111.779 30.3344 111.766 30.2108C111.746 30.0482 111.739 29.8856 111.746 29.7165C111.746 29.5539 111.746 29.3913 111.766 29.2287C111.779 29.1051 111.805 28.9881 111.837 28.871C111.896 28.6759 112.02 28.5067 112.189 28.3897C112.554 28.162 113.017 28.162 113.375 28.3897C113.545 28.5067 113.662 28.6759 113.727 28.871C113.76 28.9881 113.786 29.1051 113.799 29.2287C113.818 29.3913 113.825 29.5539 113.818 29.7165C113.818 29.8791 113.818 30.0482 113.799 30.2108Z" fill="white"/>
<path d="M109.712 27.6353H109.152C109.152 27.6353 109.139 27.6353 109.132 27.6353C109.093 27.6353 109.061 27.6808 109.067 27.7199V31.7264C109.067 31.7264 109.067 31.7394 109.067 31.7459C109.067 31.7849 109.113 31.8175 109.152 31.8109H109.712C109.712 31.8109 109.725 31.8109 109.732 31.8109C109.778 31.8109 109.804 31.7654 109.797 31.7264V27.7199C109.797 27.7199 109.797 27.7068 109.797 27.7003C109.797 27.6548 109.752 27.6288 109.712 27.6353Z" fill="white"/>
<path d="M71.6168 27.538C71.3626 27.5314 71.1149 27.5835 70.8934 27.7006C70.7109 27.7916 70.5545 27.9347 70.4502 28.1038H70.4437V27.7201C70.4437 27.7201 70.4437 27.7071 70.4437 27.7006C70.4437 27.6615 70.398 27.629 70.3589 27.6355H69.7984C69.7984 27.6355 69.7854 27.6355 69.7789 27.6355C69.7398 27.6355 69.7072 27.681 69.7137 27.7201V31.7266C69.7137 31.7266 69.7137 31.7396 69.7137 31.7461C69.7137 31.7851 69.7593 31.8177 69.7984 31.8112H70.3589C70.3589 31.8112 70.372 31.8112 70.3785 31.8112C70.4176 31.8112 70.4502 31.7656 70.4437 31.7266V29.2355C70.4306 28.9624 70.5284 28.6892 70.7109 28.4876C70.8934 28.2989 71.1475 28.2014 71.4082 28.2144C71.6754 28.1949 71.9361 28.2989 72.1121 28.4941C72.2816 28.7217 72.3598 29.0014 72.3467 29.2811V31.7266C72.3467 31.7266 72.3467 31.7396 72.3467 31.7461C72.3467 31.7851 72.3923 31.8177 72.4315 31.8112H72.9919C72.9919 31.8112 73.005 31.8112 73.0115 31.8112C73.0506 31.8112 73.0832 31.7656 73.0767 31.7266V29.1054C73.0962 28.6892 72.9594 28.2794 72.6921 27.9607C72.4184 27.668 72.0274 27.5119 71.6233 27.5314L71.6168 27.538Z" fill="white"/>
<path d="M57.5658 27.5369C57.2856 27.5369 57.0053 27.5694 56.7316 27.6474C56.5165 27.7125 56.3145 27.81 56.1385 27.9466C56.1059 27.9791 56.0994 28.0312 56.119 28.0702L56.3536 28.4734C56.3862 28.519 56.4253 28.5255 56.4774 28.4799C56.6078 28.3889 56.7446 28.3173 56.8945 28.2653C57.0901 28.2068 57.2856 28.1743 57.4876 28.1808C57.7679 28.1482 58.0481 28.2198 58.2827 28.3694C58.4391 28.5385 58.5173 28.7661 58.4913 28.9938V29.2995C58.4913 29.2995 58.4913 29.306 58.4913 29.3125C58.4913 29.3385 58.4652 29.358 58.4391 29.3515H57.4876C57.064 29.3255 56.6404 29.4361 56.2819 29.6637C55.9821 29.8979 55.8192 30.2686 55.8518 30.6458C55.8518 30.8344 55.8843 31.0231 55.9626 31.1987C56.0277 31.3483 56.132 31.4849 56.2624 31.5954C56.3927 31.706 56.5426 31.784 56.7055 31.8296C56.888 31.8816 57.0705 31.9076 57.2595 31.9076C57.5332 31.9206 57.8004 31.8621 58.0481 31.7515C58.2306 31.667 58.3935 31.5304 58.5043 31.3613H58.5108V31.7255C58.5108 31.7255 58.5108 31.7385 58.5108 31.745C58.5108 31.784 58.5565 31.8166 58.5956 31.8101H59.1039C59.1039 31.8101 59.1169 31.8101 59.1235 31.8101C59.1626 31.8101 59.1952 31.7645 59.1886 31.7255V28.9613C59.2277 28.558 59.0909 28.1612 58.8171 27.8686C58.4457 27.6149 58.0025 27.4978 57.5528 27.5434L57.5658 27.5369ZM58.5043 30.4637C58.5174 30.6979 58.4131 30.9255 58.2241 31.0686C57.996 31.2247 57.7222 31.2962 57.442 31.2832C57.2139 31.3027 56.9858 31.2442 56.7903 31.1206C56.6338 31.0036 56.5491 30.8214 56.5622 30.6328C56.5426 30.4312 56.6404 30.2296 56.8098 30.1125C57.0575 29.9889 57.3312 29.9304 57.6114 29.9499H58.4587C58.4587 29.9499 58.4652 29.9499 58.4717 29.9499C58.4978 29.9499 58.5173 29.9759 58.5108 30.0019V30.4637H58.5043Z" fill="white"/>
<path d="M147.513 25.8791H146.92C146.92 25.8791 146.907 25.8791 146.9 25.8791C146.855 25.8791 146.828 25.9246 146.835 25.9637V26.5946C146.835 26.5946 146.835 26.6076 146.835 26.6141C146.835 26.6531 146.881 26.6856 146.92 26.6791H147.513C147.513 26.6791 147.526 26.6791 147.532 26.6791C147.578 26.6791 147.604 26.6336 147.598 26.5946V25.9572C147.598 25.9572 147.598 25.9441 147.598 25.9376C147.598 25.8921 147.552 25.8661 147.506 25.8726L147.513 25.8791Z" fill="white"/>
<path d="M125.894 30.3402C125.894 30.3402 125.875 30.3272 125.868 30.3272C125.829 30.3141 125.784 30.3402 125.777 30.3857C125.666 30.6068 125.51 30.802 125.314 30.9581C125.093 31.1142 124.825 31.1922 124.552 31.1792C124.272 31.1922 123.998 31.1142 123.763 30.9516C123.555 30.7824 123.398 30.5613 123.32 30.3076C123.3 30.2491 123.287 30.1841 123.274 30.106C123.255 30.015 123.248 29.9239 123.242 29.8328C123.235 29.7223 123.229 29.5922 123.222 29.4296C123.222 29.267 123.216 29.0719 123.216 28.8377C123.216 28.6036 123.216 28.4084 123.222 28.2458C123.222 28.0832 123.235 27.9531 123.242 27.8426C123.242 27.7515 123.261 27.6605 123.274 27.5694C123.287 27.4979 123.307 27.4328 123.32 27.3613C123.405 27.1076 123.555 26.88 123.763 26.7174C123.991 26.5548 124.272 26.4767 124.552 26.4897C124.825 26.4767 125.093 26.5548 125.314 26.7109C125.51 26.867 125.666 27.0621 125.777 27.2832C125.777 27.2962 125.784 27.3027 125.79 27.3092C125.816 27.3418 125.862 27.3483 125.901 27.3223L126.422 27.0686C126.461 27.0491 126.481 26.997 126.455 26.958C126.305 26.5938 126.044 26.2816 125.705 26.0735C125.36 25.8588 124.956 25.7548 124.545 25.7613C124.109 25.7483 123.672 25.8653 123.3 26.106C122.942 26.3661 122.681 26.7369 122.564 27.1596C122.531 27.2442 122.512 27.3353 122.492 27.4263C122.466 27.5304 122.453 27.641 122.447 27.7515C122.434 27.8751 122.427 28.0247 122.421 28.2003C122.414 28.3759 122.414 28.5841 122.414 28.8312C122.414 29.0784 122.414 29.2865 122.421 29.4621C122.427 29.6377 122.434 29.7873 122.447 29.9109C122.453 30.0215 122.473 30.132 122.492 30.2361C122.512 30.3272 122.538 30.4182 122.564 30.5028C122.681 30.919 122.942 31.2898 123.3 31.5499C123.672 31.7906 124.102 31.9077 124.545 31.8946C124.956 31.9012 125.353 31.7971 125.705 31.5825C126.038 31.3678 126.298 31.0621 126.455 30.6979C126.474 30.6589 126.455 30.6068 126.422 30.5873L125.901 30.3337L125.894 30.3402Z" fill="white"/>
<path d="M100.244 27.6351H99.6831C99.6831 27.6351 99.67 27.6351 99.6635 27.6351C99.6244 27.6351 99.5918 27.6807 99.5984 27.7197V30.1978C99.6114 30.4709 99.5201 30.7441 99.3377 30.9457C99.1617 31.1344 98.9075 31.2384 98.6533 31.2254C98.3861 31.2449 98.132 31.1409 97.956 30.9457C97.793 30.7181 97.7083 30.4319 97.7279 30.1522V27.7197C97.7279 27.7197 97.7279 27.7067 97.7279 27.7002C97.7279 27.6612 97.6823 27.6286 97.6432 27.6351H97.0827C97.0827 27.6351 97.0696 27.6351 97.0631 27.6351C97.024 27.6351 96.9914 27.6807 96.9979 27.7197V30.3344C96.9784 30.7506 97.1152 31.1604 97.3759 31.4856C97.6497 31.7848 98.0407 31.9409 98.4448 31.9149C98.6859 31.9214 98.9271 31.8693 99.1421 31.7588C99.3246 31.6612 99.481 31.5181 99.5918 31.3425H99.5984V31.7327C99.5984 31.7327 99.5984 31.7458 99.5984 31.7523C99.5984 31.7913 99.644 31.8238 99.6831 31.8173H100.244C100.244 31.8173 100.257 31.8173 100.263 31.8173C100.302 31.8173 100.335 31.7718 100.328 31.7327V27.7262C100.328 27.7262 100.328 27.7132 100.328 27.7067C100.328 27.6677 100.283 27.6351 100.244 27.6416V27.6351Z" fill="white"/>
<path d="M109.733 25.8791H109.14C109.14 25.8791 109.127 25.8791 109.121 25.8791C109.075 25.8791 109.049 25.9246 109.056 25.9637V26.5946C109.056 26.5946 109.056 26.6076 109.056 26.6141C109.056 26.6531 109.101 26.6856 109.14 26.6791H109.733C109.733 26.6791 109.747 26.6791 109.753 26.6791C109.799 26.6791 109.825 26.6336 109.818 26.5946V25.9572C109.818 25.9572 109.818 25.9441 109.818 25.9376C109.818 25.8921 109.773 25.8661 109.727 25.8726L109.733 25.8791Z" fill="white"/>
<path d="M107.842 27.6347H107.177C107.177 27.6347 107.17 27.6347 107.164 27.6347C107.138 27.6347 107.125 27.6087 107.125 27.5826V26.4054C107.125 26.4054 107.125 26.3924 107.125 26.3859C107.125 26.3404 107.079 26.3143 107.033 26.3208H106.473C106.473 26.3208 106.46 26.3208 106.453 26.3208C106.408 26.3208 106.382 26.3664 106.388 26.4119V27.5891C106.388 27.5891 106.388 27.5957 106.388 27.6022C106.388 27.6282 106.362 27.6412 106.336 27.6412H105.984C105.984 27.6412 105.971 27.6412 105.965 27.6412C105.919 27.6412 105.893 27.6867 105.899 27.7257V28.142C105.899 28.142 105.899 28.155 105.899 28.1615C105.899 28.207 105.945 28.2331 105.984 28.2266H106.336C106.336 28.2266 106.343 28.2266 106.349 28.2266C106.375 28.2266 106.388 28.2526 106.388 28.2786V30.6721C106.362 30.9973 106.453 31.316 106.649 31.5762C106.884 31.7908 107.203 31.8949 107.522 31.8624H107.842C107.842 31.8624 107.855 31.8624 107.861 31.8624C107.9 31.8624 107.933 31.8168 107.926 31.7778V31.2705C107.926 31.2705 107.926 31.2575 107.926 31.251C107.926 31.2119 107.881 31.1794 107.842 31.1859H107.659C107.516 31.1989 107.372 31.1599 107.255 31.0754C107.157 30.9583 107.112 30.8022 107.131 30.6526V28.2851C107.131 28.2851 107.131 28.2786 107.131 28.2721C107.131 28.2461 107.157 28.2331 107.183 28.2331H107.848C107.848 28.2331 107.861 28.2331 107.868 28.2331C107.913 28.2331 107.939 28.1875 107.933 28.1485V27.7322C107.933 27.7322 107.933 27.7192 107.933 27.7127C107.933 27.6672 107.887 27.6412 107.848 27.6477L107.842 27.6347Z" fill="white"/>
<path d="M95.9305 31.1738H95.7611C95.6437 31.1868 95.5329 31.1478 95.4417 31.0762C95.3635 30.9722 95.3244 30.8421 95.3439 30.712V25.964C95.3439 25.964 95.3439 25.951 95.3439 25.9445C95.3439 25.899 95.2983 25.8729 95.2592 25.8794H94.6987C94.6987 25.8794 94.6857 25.8794 94.6792 25.8794C94.6336 25.8794 94.6075 25.925 94.614 25.964V30.7575C94.5879 31.0567 94.6727 31.3494 94.8486 31.5901C95.0572 31.7852 95.3439 31.8827 95.6372 31.8567H95.937C95.937 31.8567 95.9501 31.8567 95.9566 31.8567C96.0022 31.8567 96.0283 31.8112 96.0217 31.7722V31.2649C96.0217 31.2649 96.0217 31.2518 96.0217 31.2453C96.0217 31.1998 95.9761 31.1738 95.937 31.1803L95.9305 31.1738Z" fill="white"/>
<path d="M84.8812 25.8791H81.2967C81.2967 25.8791 81.2836 25.8791 81.2771 25.8791C81.2315 25.8791 81.2054 25.9246 81.2119 25.9637V31.7198C81.2119 31.7198 81.2119 31.7328 81.2119 31.7393C81.2119 31.7849 81.2575 31.8109 81.2967 31.8044H84.8812C84.8812 31.8044 84.8942 31.8044 84.9007 31.8044C84.9464 31.8044 84.9724 31.7588 84.9659 31.7198V31.167C84.9659 31.167 84.9659 31.154 84.9659 31.1474C84.9659 31.1019 84.9203 31.0759 84.8812 31.0824H82.0461C82.0461 31.0824 82.0396 31.0824 82.0331 31.0824C82.007 31.0824 81.9875 31.0564 81.994 31.0304V29.2222C81.994 29.2222 81.994 29.2157 81.994 29.2092C81.994 29.1832 82.0201 29.1637 82.0461 29.1702H84.451C84.451 29.1702 84.4641 29.1702 84.4706 29.1702C84.5162 29.1702 84.5423 29.1247 84.5358 29.0791V28.5263C84.5358 28.5263 84.5358 28.5133 84.5358 28.5068C84.5358 28.4612 84.4901 28.4352 84.451 28.4417H82.0461C82.0461 28.4417 82.0396 28.4417 82.0331 28.4417C82.007 28.4417 81.9875 28.4157 81.994 28.3897V26.6466C81.994 26.6466 81.994 26.6401 81.994 26.6336C81.994 26.6076 82.0201 26.5881 82.0461 26.5946H84.8812C84.8812 26.5946 84.8942 26.5946 84.9007 26.5946C84.9464 26.5946 84.9724 26.549 84.9659 26.5035V25.9572C84.9659 25.9572 84.9659 25.9441 84.9659 25.9376C84.9659 25.8921 84.9203 25.8661 84.8812 25.8726V25.8791Z" fill="white"/>
<path d="M51.7093 25.8794H47.5642C47.5642 25.8794 47.5512 25.8794 47.5447 25.8794C47.4991 25.8794 47.473 25.925 47.4795 25.9705V26.5168C47.4795 26.5168 47.4795 26.5298 47.4795 26.5363C47.4795 26.5819 47.5251 26.6079 47.5707 26.6014H49.2001C49.2001 26.6014 49.2066 26.6014 49.2131 26.6014C49.2392 26.6014 49.2587 26.6274 49.2522 26.6534V31.7266C49.2522 31.7266 49.2522 31.7396 49.2522 31.7461C49.2522 31.7917 49.2978 31.8177 49.3369 31.8112H49.9431C49.9431 31.8112 49.9561 31.8112 49.9626 31.8112C50.0082 31.8112 50.0343 31.7657 50.0278 31.7266V26.6534C50.0278 26.6534 50.0278 26.6469 50.0278 26.6404C50.0278 26.6144 50.0539 26.6014 50.0799 26.6014H51.7093C51.7093 26.6014 51.7223 26.6014 51.7288 26.6014C51.7744 26.6014 51.8005 26.5559 51.794 26.5168V25.9705C51.794 25.9705 51.794 25.9575 51.794 25.951C51.794 25.9054 51.7484 25.8794 51.7093 25.8859V25.8794Z" fill="white"/>
<path d="M44.7605 31.1531H44.6302C44.565 31.1531 44.4998 31.1335 44.4477 31.101C44.3825 31.0555 44.3304 31.0035 44.2848 30.9449L43.998 30.5677L44.6823 29.7026C44.6823 29.7026 44.6888 29.6896 44.6954 29.6831C44.7149 29.6441 44.7019 29.5986 44.6628 29.5791L44.3239 29.2799C44.3239 29.2799 44.3108 29.2669 44.3043 29.2669C44.2652 29.2473 44.2196 29.2669 44.2 29.2994L43.5939 30.0409L42.4664 28.5904C42.6619 28.4343 42.8314 28.2847 42.9617 28.1612C43.0856 28.0441 43.1898 27.9205 43.2876 27.7839C43.3658 27.6733 43.4245 27.5563 43.4701 27.4327C43.5092 27.3091 43.5288 27.1855 43.5288 27.0555C43.5288 26.8863 43.4962 26.7172 43.431 26.5611C43.3658 26.4115 43.2746 26.2685 43.1573 26.1579C43.0334 26.0408 42.8901 25.9433 42.7271 25.8847C42.3687 25.7546 41.9776 25.7481 41.6192 25.8847C41.4628 25.9433 41.3129 26.0343 41.189 26.1514C41.0652 26.262 40.9674 26.405 40.9088 26.5546C40.8436 26.7172 40.8045 26.8864 40.811 27.062C40.811 27.166 40.8241 27.2701 40.8566 27.3742C40.8892 27.4847 40.9349 27.5888 40.987 27.6929C41.0522 27.8164 41.1304 27.94 41.2151 28.0571C41.3063 28.1872 41.4237 28.3368 41.554 28.5059C41.2086 28.766 40.9023 29.0847 40.6481 29.4425C40.4656 29.7156 40.3678 30.0409 40.3613 30.3661C40.3613 30.5807 40.3939 30.7888 40.4656 30.9905C40.596 31.3612 40.8892 31.6604 41.2542 31.8035C41.7495 31.9856 42.297 31.9596 42.7662 31.7254C43.053 31.5628 43.3137 31.3547 43.5288 31.1075L43.7634 31.4132C43.8481 31.5498 43.9654 31.6604 44.1023 31.7449C44.2326 31.8035 44.376 31.8295 44.5194 31.823H44.754C44.754 31.823 44.767 31.823 44.7736 31.823C44.8192 31.823 44.8453 31.7775 44.8387 31.7384V31.2506C44.8387 31.2506 44.8387 31.2376 44.8387 31.2311C44.8387 31.1856 44.7931 31.1596 44.7475 31.1661L44.7605 31.1531ZM41.5214 27.2376C41.5019 27.179 41.4953 27.114 41.4953 27.049C41.4953 26.8798 41.5475 26.7107 41.6648 26.5872C41.7951 26.4571 41.9711 26.392 42.1471 26.405C42.3296 26.3985 42.5055 26.4636 42.6424 26.5872C42.7662 26.7042 42.8314 26.8733 42.8314 27.0424C42.8314 27.114 42.8249 27.1855 42.8053 27.2506C42.7858 27.3286 42.7467 27.4067 42.7011 27.4717C42.6359 27.5693 42.5577 27.6538 42.4664 27.7319C42.3622 27.8229 42.2318 27.94 42.0689 28.0701L41.7886 27.6994C41.7235 27.6148 41.6648 27.5303 41.6061 27.4392C41.567 27.3742 41.5344 27.3091 41.5149 27.2311L41.5214 27.2376ZM42.5512 31.1075C42.3752 31.2116 42.1797 31.2636 41.9776 31.2636C41.7234 31.2831 41.4758 31.1856 41.2933 31.01C41.1239 30.8148 41.0391 30.5677 41.0522 30.314C41.0522 30.0864 41.1239 29.8652 41.2607 29.6831C41.4497 29.4295 41.6778 29.2018 41.9385 29.0132L43.1442 30.5872C42.9748 30.7888 42.7793 30.9709 42.5512 31.114V31.1075Z" fill="white"/>
<path d="M35.5198 27.538C35.2656 27.5314 35.018 27.5835 34.7964 27.7006C34.6139 27.7916 34.4575 27.9347 34.3532 28.1038H34.3402V27.7201C34.3402 27.7201 34.3402 27.7071 34.3402 27.7006C34.3402 27.6615 34.2945 27.629 34.2554 27.6355H33.6949C33.6949 27.6355 33.6819 27.6355 33.6754 27.6355C33.6363 27.6355 33.6037 27.681 33.6102 27.7201V31.7266C33.6102 31.7266 33.6102 31.7396 33.6102 31.7461C33.6102 31.7851 33.6558 31.8177 33.6949 31.8112H34.2554C34.2554 31.8112 34.2685 31.8112 34.275 31.8112C34.3141 31.8112 34.3467 31.7656 34.3402 31.7266V29.2355C34.3271 28.9624 34.4249 28.6892 34.6074 28.4876C34.7898 28.2989 35.044 28.2014 35.3047 28.2144C35.5719 28.1949 35.8326 28.2989 36.0086 28.4941C36.178 28.7217 36.2562 29.0014 36.2432 29.2811V31.7266C36.2432 31.7266 36.2432 31.7396 36.2432 31.7461C36.2432 31.7851 36.2888 31.8177 36.3279 31.8112H36.8884C36.8884 31.8112 36.9015 31.8112 36.908 31.8112C36.9471 31.8112 36.9797 31.7656 36.9732 31.7266V29.1054C36.9927 28.6892 36.8558 28.2794 36.5886 27.9607C36.3149 27.668 35.9239 27.5119 35.5198 27.5314V27.538Z" fill="white"/>
<path d="M32.2807 28.6628C32.1829 28.3246 31.9679 28.0319 31.6746 27.8303C31.0294 27.4401 30.2277 27.4401 29.5825 27.8303C29.2892 28.0319 29.0742 28.3246 28.9764 28.6628C28.9308 28.8124 28.8917 28.962 28.8721 29.1181C28.8461 29.3198 28.833 29.5214 28.8396 29.723C28.8396 29.9246 28.8461 30.1263 28.8721 30.3279C28.8917 30.484 28.9308 30.6336 28.9764 30.7832C29.0807 31.1214 29.2958 31.4141 29.5825 31.6157C29.8888 31.8173 30.2538 31.9214 30.6253 31.9149C30.9968 31.9279 31.3618 31.8238 31.6681 31.6157C31.9614 31.4141 32.1699 31.1214 32.2742 30.7832C32.3198 30.6336 32.3589 30.484 32.3785 30.3279C32.4045 30.1263 32.4176 29.9246 32.411 29.723C32.411 29.5214 32.4045 29.3198 32.3785 29.1181C32.3589 28.962 32.3198 28.8124 32.2742 28.6628H32.2807ZM31.6485 30.2108C31.6355 30.3344 31.6094 30.4515 31.5768 30.5751C31.5182 30.7702 31.3943 30.9393 31.2249 31.0564C31.0489 31.1734 30.8404 31.232 30.6318 31.2255C30.4233 31.232 30.2147 31.1734 30.0387 31.0564C29.8693 30.9393 29.752 30.7702 29.6868 30.5751C29.6542 30.458 29.6281 30.3344 29.6151 30.2108C29.6021 30.0482 29.589 29.8856 29.5956 29.7165C29.5956 29.5539 29.5956 29.3913 29.6151 29.2287C29.6281 29.1051 29.6542 28.9881 29.6868 28.871C29.7455 28.6759 29.8693 28.5067 30.0387 28.3897C30.4037 28.162 30.8664 28.162 31.2314 28.3897C31.4009 28.5067 31.5182 28.6759 31.5833 28.871C31.6159 28.9881 31.642 29.1051 31.655 29.2287C31.6681 29.3913 31.6811 29.5539 31.6746 29.7165C31.6746 29.8791 31.6746 30.0482 31.655 30.2108H31.6485Z" fill="white"/>
<path d="M27.5679 27.6353H27.0074C27.0074 27.6353 26.9944 27.6353 26.9879 27.6353C26.9488 27.6353 26.9162 27.6808 26.9227 27.7199V31.7264C26.9227 31.7264 26.9227 31.7394 26.9227 31.7459C26.9227 31.7849 26.9683 31.8175 27.0074 31.8109H27.5679C27.5679 31.8109 27.581 31.8109 27.5875 31.8109C27.6331 31.8109 27.6592 31.7654 27.6526 31.7264V27.7199C27.6526 27.7199 27.6526 27.7068 27.6526 27.7003C27.6526 27.6548 27.607 27.6288 27.5679 27.6353Z" fill="white"/>
<path d="M27.5811 25.8791H26.9881C26.9881 25.8791 26.975 25.8791 26.9685 25.8791C26.9229 25.8791 26.8968 25.9246 26.9033 25.9637V26.5946C26.9033 26.5946 26.9033 26.6076 26.9033 26.6141C26.9033 26.6531 26.949 26.6856 26.9881 26.6791H27.5811C27.5811 26.6791 27.5942 26.6791 27.6007 26.6791C27.6463 26.6791 27.6724 26.6336 27.6659 26.5946V25.9572C27.6659 25.9572 27.6659 25.9441 27.6659 25.9376C27.6659 25.8921 27.6202 25.8661 27.5811 25.8726V25.8791Z" fill="white"/>
<path d="M25.6925 27.6347H25.0277C25.0277 27.6347 25.0212 27.6347 25.0147 27.6347C24.9886 27.6347 24.9756 27.6087 24.9756 27.5826V26.4054C24.9756 26.4054 24.9756 26.3924 24.9756 26.3859C24.9756 26.3404 24.93 26.3143 24.8909 26.3208H24.3304C24.3304 26.3208 24.3173 26.3208 24.3108 26.3208C24.2652 26.3208 24.2391 26.3664 24.2457 26.4119V27.5891C24.2457 27.5891 24.2457 27.5957 24.2457 27.6022C24.2457 27.6282 24.2196 27.6412 24.1935 27.6412H23.8416C23.8416 27.6412 23.8285 27.6412 23.822 27.6412C23.7764 27.6412 23.7503 27.6867 23.7569 27.7257V28.142C23.7569 28.142 23.7569 28.155 23.7569 28.1615C23.7569 28.207 23.8025 28.2331 23.8416 28.2266H24.1935C24.1935 28.2266 24.2 28.2266 24.2065 28.2266C24.2326 28.2266 24.2457 28.2526 24.2457 28.2786V30.6721C24.2196 30.9973 24.3108 31.316 24.5063 31.5762C24.741 31.7908 25.0603 31.8949 25.3797 31.8624H25.699C25.699 31.8624 25.712 31.8624 25.7186 31.8624C25.7577 31.8624 25.7903 31.8168 25.7837 31.7778V31.2705C25.7837 31.2705 25.7837 31.2575 25.7837 31.251C25.7837 31.2119 25.7381 31.1794 25.699 31.1859H25.5165C25.3731 31.1989 25.2298 31.1599 25.1125 31.0754C25.0147 30.9583 24.9691 30.8022 24.9886 30.6526V28.2851C24.9886 28.2851 24.9886 28.2786 24.9886 28.2721C24.9886 28.2461 25.0147 28.2331 25.0408 28.2331H25.7055C25.7055 28.2331 25.7186 28.2331 25.7251 28.2331C25.7707 28.2331 25.7968 28.1875 25.7903 28.1485V27.7322C25.7903 27.7322 25.7903 27.7192 25.7903 27.7127C25.7903 27.6672 25.7446 27.6412 25.7055 27.6477L25.6925 27.6347Z" fill="white"/>
<path d="M21.1113 27.5369C20.8311 27.5369 20.5508 27.5694 20.2836 27.6474C20.0685 27.7125 19.8665 27.81 19.6905 27.9466C19.6579 27.9791 19.6514 28.0312 19.671 28.0702L19.9056 28.4734C19.9382 28.519 19.9773 28.5255 20.0294 28.4799C20.1598 28.3889 20.2966 28.3173 20.4465 28.2653C20.6421 28.2068 20.8376 28.1743 21.0396 28.1808C21.3199 28.1482 21.6001 28.2198 21.8347 28.3694C21.9911 28.5385 22.0694 28.7661 22.0433 28.9938V29.2995C22.0433 29.2995 22.0433 29.306 22.0433 29.3125C22.0433 29.3385 22.0172 29.358 21.9911 29.3515H21.0396C20.616 29.3255 20.1924 29.4361 19.8339 29.6637C19.5341 29.8979 19.3712 30.2686 19.3972 30.6458C19.3972 30.8344 19.4298 31.0231 19.508 31.1987C19.5732 31.3483 19.6775 31.4849 19.8078 31.5954C19.9382 31.706 20.0881 31.784 20.251 31.8296C20.4335 31.8816 20.616 31.9076 20.805 31.9076C21.0787 31.9206 21.3459 31.8621 21.5936 31.7515C21.7761 31.667 21.939 31.5304 22.0498 31.3613H22.0563V31.7255C22.0563 31.7255 22.0563 31.7385 22.0563 31.745C22.0563 31.784 22.1019 31.8166 22.141 31.8101H22.6494C22.6494 31.8101 22.6624 31.8101 22.6689 31.8101C22.7081 31.8101 22.7406 31.7645 22.7341 31.7255V28.9613C22.7732 28.558 22.6364 28.1612 22.3626 27.8686C21.9911 27.6149 21.548 27.4978 21.0983 27.5434L21.1113 27.5369ZM22.0498 30.4637C22.0628 30.6979 21.9586 30.9255 21.7696 31.0686C21.5414 31.2247 21.2677 31.2962 20.9875 31.2832C20.7594 31.3027 20.5313 31.2442 20.3357 31.1206C20.1793 31.0036 20.0946 30.8214 20.1076 30.6328C20.0881 30.4312 20.1858 30.2296 20.3553 30.1125C20.603 29.9889 20.8767 29.9304 21.1569 29.9499H22.0042C22.0042 29.9499 22.0107 29.9499 22.0172 29.9499C22.0433 29.9499 22.0628 29.9759 22.0563 30.0019V30.4637H22.0498Z" fill="white"/>
<path d="M16.1907 28.8701C16.2428 28.6685 16.3667 28.4929 16.5426 28.3758C16.8815 28.1807 17.2921 28.1612 17.6441 28.3303C17.794 28.4213 17.9243 28.5319 18.0286 28.6685V28.6815C18.0677 28.714 18.1198 28.714 18.1524 28.6815L18.5369 28.3693H18.55C18.5891 28.3368 18.5956 28.2847 18.563 28.2457C18.4131 28.0246 18.2111 27.849 17.9765 27.7254C17.7158 27.5953 17.4225 27.5303 17.1292 27.5368C16.7577 27.5238 16.3993 27.6278 16.0864 27.8229C15.7866 28.0246 15.5716 28.3173 15.4738 28.662C15.4282 28.8116 15.3956 28.9612 15.376 29.1108C15.35 29.3124 15.3369 29.514 15.3435 29.7156C15.3435 29.9238 15.35 30.1254 15.376 30.3335C15.3956 30.4831 15.4282 30.6392 15.4738 30.7823C15.5716 31.127 15.7866 31.4197 16.0864 31.6214C16.3993 31.8165 16.7577 31.9205 17.1292 31.9075C17.4225 31.914 17.7158 31.849 17.9765 31.7189C18.2111 31.5953 18.4196 31.4197 18.563 31.1986V31.1856C18.5891 31.1466 18.5761 31.0945 18.5369 31.075L18.1524 30.7628H18.1394C18.1068 30.7303 18.0547 30.7368 18.0286 30.7693C17.9243 30.9059 17.794 31.023 17.6441 31.1075C17.2921 31.2766 16.8815 31.2571 16.5426 31.062C16.3732 30.9449 16.2494 30.7693 16.1907 30.5677C16.1516 30.4441 16.1321 30.3205 16.119 30.197C16.106 30.0343 16.093 29.8717 16.0995 29.7156C16.0995 29.553 16.0995 29.3969 16.119 29.2343C16.1321 29.1108 16.1581 28.9872 16.1907 28.8701Z" fill="white"/>
<path d="M14.0717 27.6351H13.5112C13.5112 27.6351 13.4982 27.6351 13.4916 27.6351C13.4525 27.6351 13.42 27.6807 13.4265 27.7197V30.1978C13.4395 30.4709 13.3483 30.7441 13.1658 30.9457C12.9898 31.1344 12.7356 31.2384 12.4815 31.2254C12.2143 31.2449 11.9601 31.1409 11.7841 30.9457C11.6212 30.7181 11.5364 30.4319 11.556 30.1522V27.7197C11.556 27.7197 11.556 27.7067 11.556 27.7002C11.556 27.6612 11.5104 27.6286 11.4713 27.6351H10.9108C10.9108 27.6351 10.8978 27.6351 10.8912 27.6351C10.8521 27.6351 10.8195 27.6807 10.8261 27.7197V30.3344C10.8065 30.7506 10.9434 31.1604 11.2041 31.4856C11.4778 31.7848 11.8688 31.9409 12.2729 31.9149C12.514 31.9214 12.7552 31.8693 12.9703 31.7588C13.1527 31.6612 13.3092 31.5181 13.42 31.3425H13.4265V31.7327C13.4265 31.7327 13.4265 31.7458 13.4265 31.7523C13.4265 31.7913 13.4721 31.8238 13.5112 31.8173H14.0717C14.0717 31.8173 14.0847 31.8173 14.0912 31.8173C14.1303 31.8173 14.1629 31.7718 14.1564 31.7327V27.7262C14.1564 27.7262 14.1564 27.7132 14.1564 27.7067C14.1564 27.6677 14.1108 27.6351 14.0717 27.6416V27.6351Z" fill="white"/>
<path d="M68.2042 25.8791H67.6111C67.6111 25.8791 67.5981 25.8791 67.5916 25.8791C67.5459 25.8791 67.5199 25.9246 67.5264 25.9637V26.5946C67.5264 26.5946 67.5264 26.6076 67.5264 26.6141C67.5264 26.6531 67.572 26.6856 67.6111 26.6791H68.2042C68.2042 26.6791 68.2172 26.6791 68.2237 26.6791C68.2694 26.6791 68.2954 26.6336 68.2889 26.5946V25.9572C68.2889 25.9572 68.2889 25.9441 68.2889 25.9376C68.2889 25.8921 68.2433 25.8661 68.1977 25.8726L68.2042 25.8791Z" fill="white"/>
<path d="M61.2784 25.8791H60.6853C60.6853 25.8791 60.6723 25.8791 60.6658 25.8791C60.6202 25.8791 60.5941 25.9246 60.6006 25.9637V26.5946C60.6006 26.5946 60.6006 26.6076 60.6006 26.6141C60.6006 26.6531 60.6462 26.6856 60.6853 26.6791H61.2784C61.2784 26.6791 61.2914 26.6791 61.298 26.6791C61.3436 26.6791 61.3696 26.6336 61.3631 26.5946V25.9572C61.3631 25.9572 61.3631 25.9441 61.3631 25.9376C61.3631 25.8921 61.3175 25.8661 61.2719 25.8726L61.2784 25.8791Z" fill="white"/>
<path d="M9.35194 25.8789H8.79145C8.79145 25.8789 8.77842 25.8789 8.7719 25.8789C8.7328 25.8789 8.70021 25.9245 8.70673 25.9635V28.1099H8.70021C8.59593 27.9343 8.44603 27.7912 8.27007 27.6936C8.03544 27.5765 7.77475 27.518 7.51406 27.531C7.18819 27.518 6.86884 27.609 6.59511 27.7847C6.34094 27.9668 6.15845 28.2334 6.07373 28.5326C6.01507 28.7017 5.97597 28.8774 5.95642 29.053C5.93686 29.2741 5.92383 29.4887 5.92383 29.7099C5.92383 29.931 5.93035 30.1522 5.95642 30.3733C5.97597 30.5489 6.01507 30.7245 6.07373 30.9001C6.15845 31.1993 6.34094 31.466 6.59511 31.6481C6.86884 31.8237 7.18819 31.9148 7.51406 31.9018C7.77475 31.9148 8.03544 31.8562 8.27007 31.7327C8.44603 31.6351 8.59593 31.4855 8.70021 31.3164H8.71325V31.7197C8.71325 31.7197 8.71325 31.7327 8.71325 31.7392C8.71325 31.7782 8.75887 31.8107 8.79797 31.8042H9.35194C9.35194 31.8042 9.36498 31.8042 9.3715 31.8042C9.4106 31.8042 9.44319 31.7587 9.43667 31.7197V25.957C9.43667 25.957 9.43667 25.944 9.43667 25.9375C9.43667 25.8985 9.39105 25.8659 9.35194 25.8724V25.8789ZM8.68718 30.2367C8.67414 30.3538 8.65459 30.4774 8.61549 30.5879C8.49817 30.9977 8.11365 31.2644 7.69002 31.2253C7.27292 31.2579 6.88839 30.9912 6.77108 30.5879C6.73198 30.4644 6.70591 30.3408 6.69939 30.2107C6.68636 30.0481 6.67984 29.879 6.67984 29.7099C6.67984 29.5473 6.67984 29.3847 6.69939 29.2221C6.71243 29.092 6.73849 28.9619 6.77108 28.8383C6.88839 28.4351 7.27292 28.1749 7.69002 28.2074C8.10713 28.1684 8.49817 28.4286 8.61549 28.8383C8.65459 28.9554 8.68066 29.0725 8.68718 29.1961C8.70673 29.3652 8.71325 29.5408 8.70673 29.7099C8.70673 29.8855 8.70673 30.0546 8.68718 30.2302V30.2367Z" fill="white"/>
<path d="M4.94173 31.0892H2.10669C2.10669 31.0892 2.10018 31.0892 2.09366 31.0892C2.06759 31.0892 2.04804 31.0632 2.05455 31.0372V29.2291C2.05455 29.2291 2.05455 29.2226 2.05455 29.2161C2.05455 29.19 2.08062 29.1705 2.10669 29.177H4.51159C4.51159 29.177 4.52462 29.177 4.53114 29.177C4.57676 29.177 4.60283 29.1315 4.59631 29.086V28.5331C4.59631 28.5331 4.59631 28.5201 4.59631 28.5136C4.59631 28.4681 4.55069 28.4421 4.51159 28.4486H2.10669C2.10669 28.4486 2.10018 28.4486 2.09366 28.4486C2.06759 28.4486 2.04804 28.4226 2.05455 28.3965V26.6534C2.05455 26.6534 2.05455 26.6469 2.05455 26.6404C2.05455 26.6144 2.08062 26.5949 2.10669 26.6014H4.94173C4.94173 26.6014 4.95477 26.6014 4.96128 26.6014C5.00691 26.6014 5.03297 26.5559 5.02646 26.5103V25.964C5.02646 25.964 5.02646 25.951 5.02646 25.9445C5.02646 25.899 4.98084 25.8729 4.94173 25.8794H1.3572C1.3572 25.8794 1.34417 25.8794 1.33765 25.8794C1.29203 25.8794 1.26596 25.925 1.27248 25.964V31.7201C1.27248 31.7201 1.27248 31.7332 1.27248 31.7397C1.27248 31.7852 1.3181 31.8112 1.3572 31.8047H4.94173C4.94173 31.8047 4.95477 31.8047 4.96128 31.8047C5.00691 31.8047 5.03297 31.7592 5.02646 31.7201V31.1673C5.02646 31.1673 5.02646 31.1543 5.02646 31.1478C5.02646 31.1023 4.98084 31.0762 4.94173 31.0827V31.0892Z" fill="white"/>
<path d="M158.337 20.0832H156.838C156.838 20.0832 156.812 20.0832 156.799 20.0832C156.727 20.0962 156.682 20.1612 156.688 20.2328V21.6897C156.688 21.6897 156.688 21.7157 156.688 21.7287C156.701 21.8003 156.766 21.8458 156.838 21.8393H158.337C158.337 21.8393 158.363 21.8393 158.376 21.8393C158.448 21.8263 158.493 21.7612 158.487 21.6897V20.2328C158.487 20.2328 158.487 20.2067 158.487 20.1937C158.474 20.1222 158.409 20.0767 158.337 20.0832Z" fill="white"/>
<path d="M156.031 21.8334C156.031 21.8334 156.057 21.8334 156.07 21.8334C156.142 21.8204 156.187 21.7554 156.181 21.6838V20.2269C156.181 20.2269 156.181 20.2009 156.181 20.1879C156.168 20.1163 156.103 20.0708 156.031 20.0773H154.545C154.545 20.0773 154.519 20.0773 154.506 20.0773C154.434 20.0903 154.389 20.1554 154.395 20.2269V21.6838C154.395 21.6838 154.395 21.7098 154.395 21.7228C154.408 21.7944 154.473 21.8399 154.545 21.8334H156.031Z" fill="white"/>
<path d="M16.1231 20.0832C16.0514 20.0962 16.0058 20.1612 16.0123 20.2328V21.6897C16.0123 21.6897 16.0123 21.7157 16.0123 21.7287C16.0254 21.8003 16.0905 21.8458 16.1622 21.8393H17.6612C17.6612 21.8393 17.6873 21.8393 17.7003 21.8393C17.772 21.8263 17.8176 21.7612 17.8111 21.6897V20.2328C17.8111 20.2328 17.8111 20.2067 17.8111 20.1937C17.7981 20.1222 17.7329 20.0767 17.6612 20.0832H16.1622C16.1622 20.0832 16.1362 20.0832 16.1231 20.0832Z" fill="white"/>
<path d="M15.3611 20.0832H13.8751C13.8751 20.0832 13.8491 20.0832 13.836 20.0832C13.7643 20.0962 13.7187 20.1612 13.7252 20.2328V21.6897C13.7252 21.6897 13.7252 21.7157 13.7252 21.7287C13.7383 21.8003 13.8034 21.8458 13.8751 21.8393H15.3611C15.3611 21.8393 15.3871 21.8393 15.4002 21.8393C15.4719 21.8263 15.5175 21.7612 15.511 21.6897V20.2328C15.511 20.2328 15.511 20.2067 15.511 20.1937C15.4979 20.1222 15.4328 20.0767 15.3611 20.0832Z" fill="white"/>
<path d="M7.24691 21.8334C7.31861 21.8204 7.36423 21.7554 7.35771 21.6838V20.2269C7.35771 20.2269 7.35771 20.2009 7.35771 20.1879C7.34467 20.1163 7.2795 20.0708 7.20781 20.0773H5.36341C5.36341 20.0773 5.33734 20.0773 5.3243 20.0773C5.25261 20.0903 5.20699 20.1554 5.21351 20.2269V21.6838C5.21351 21.6838 5.21351 21.7098 5.21351 21.7228C5.22654 21.7944 5.29172 21.8399 5.36341 21.8334H7.20781C7.20781 21.8334 7.23388 21.8334 7.24691 21.8334Z" fill="white"/>
<path d="M167.842 14.1454C167.711 13.6901 167.483 13.2673 167.164 12.9161C166.805 12.5259 166.356 12.2202 165.854 12.0315C165.189 11.7909 164.485 11.6738 163.781 11.6998C163.221 11.6933 162.66 11.7454 162.106 11.8624C161.618 11.9795 161.142 12.1226 160.673 12.3047C160.601 12.3372 160.568 12.3698 160.562 12.4153C160.562 12.4673 160.562 12.5194 160.581 12.5714L160.894 13.6836C160.907 13.7421 160.959 13.7681 161.011 13.7551C161.064 13.7486 161.116 13.7356 161.161 13.7096C161.859 13.495 162.589 13.3909 163.319 13.3844C163.664 13.3844 164.016 13.4234 164.348 13.508C164.642 13.5795 164.915 13.7161 165.15 13.9047C165.378 14.0868 165.554 14.321 165.671 14.5877C165.802 14.8999 165.867 15.2381 165.854 15.5828C165.867 15.9275 165.789 16.2722 165.632 16.5844C165.437 16.8771 165.091 17.0397 164.739 16.9942C164.811 16.8446 164.876 16.6885 164.928 16.5259C164.987 16.3438 165.013 16.1487 165.007 15.9535C165.065 15.3161 164.831 14.6852 164.368 14.2429C163.866 13.8592 163.247 13.6641 162.615 13.7031C162.321 13.7031 162.035 13.7421 161.754 13.8267C161.487 13.9047 161.233 14.0413 161.018 14.2169C160.796 14.4056 160.614 14.6462 160.497 14.9129C160.353 15.2381 160.288 15.5958 160.295 15.9535C160.288 16.3113 160.36 16.669 160.503 16.9942H159.043C159.043 16.9942 159.03 16.9942 159.024 16.9942H158.678C158.392 17.0137 158.105 16.9357 157.87 16.7796C157.681 16.643 157.564 16.4283 157.551 16.1942V12.6885C157.551 12.6885 157.551 12.6624 157.551 12.6494C157.538 12.5779 157.473 12.5259 157.401 12.5389H155.615C155.615 12.5389 155.589 12.5389 155.576 12.5389C155.504 12.5519 155.459 12.6169 155.465 12.6885V15.7714C155.485 16.0901 155.446 16.4088 155.348 16.7145C155.27 16.8966 155.074 16.9877 154.755 16.9877H153.504C153.217 17.0072 152.93 16.9292 152.695 16.7731C152.506 16.6365 152.389 16.4218 152.376 16.1877V12.6885C152.376 12.6885 152.376 12.6624 152.376 12.6494C152.363 12.5779 152.298 12.5324 152.226 12.5389H150.857C150.747 12.5389 150.623 12.5389 150.479 12.5519C150.336 12.5584 150.264 12.6039 150.264 12.682V15.7974C150.284 16.1096 150.245 16.4283 150.141 16.7275C150.056 16.9031 149.86 16.9877 149.554 16.9877H149.065C149.033 16.9877 149 17.0007 148.967 17.0072C148.935 17.0072 148.909 16.9877 148.87 16.9877H148.407C148.211 17.0072 148.016 16.9422 147.866 16.8186C147.729 16.643 147.671 16.4218 147.697 16.2007V11.6478C147.697 11.6478 147.697 11.6218 147.697 11.6088C147.684 11.5372 147.618 11.4917 147.547 11.4982H145.735C145.735 11.4982 145.709 11.4982 145.696 11.4982C145.624 11.5112 145.578 11.5763 145.585 11.6478V12.2852H144.099C143.728 12.2852 143.356 12.3307 142.991 12.4218C142.242 12.6039 141.629 13.1372 141.342 13.8462C141.153 14.3145 141.068 14.8153 141.081 15.3226C141.068 15.7779 141.147 16.2332 141.31 16.656C141.446 17.0007 141.662 17.3064 141.942 17.547C142.215 17.7747 142.528 17.9503 142.874 18.0544C143.232 18.1649 143.604 18.217 143.982 18.217C144.288 18.217 144.594 18.1714 144.888 18.0869C145.161 18.0023 145.422 17.8657 145.644 17.6836C145.689 18.0414 145.885 18.3536 146.185 18.5552C146.536 18.7243 146.928 18.8023 147.319 18.7828H148.863C148.863 18.7828 148.896 18.7763 148.915 18.7763C148.954 18.7763 148.994 18.7893 149.033 18.7828H150.225C150.649 18.7958 151.066 18.7503 151.477 18.6397C151.783 18.5422 152.031 18.321 152.174 18.0414C152.324 18.3275 152.572 18.5422 152.871 18.6527C153.184 18.7438 153.504 18.7893 153.829 18.7828C153.829 18.7828 153.829 18.7828 153.836 18.7828H155.367C155.798 18.7958 156.228 18.7503 156.645 18.6527C156.958 18.5617 157.212 18.3405 157.349 18.0414C157.499 18.321 157.746 18.5422 158.046 18.6527C158.365 18.7503 158.698 18.7893 159.03 18.7828H159.037C159.037 18.7828 159.037 18.7828 159.043 18.7828H165.039C165.521 18.7958 165.997 18.7243 166.46 18.5877C166.812 18.4771 167.131 18.269 167.379 17.9958C167.627 17.7031 167.796 17.3519 167.874 16.9812C167.979 16.5064 168.031 16.0186 168.024 15.5373C168.024 15.0625 167.959 14.5942 167.829 14.1454H167.842ZM145.598 15.1145C145.631 15.4787 145.507 15.843 145.266 16.1161C145.024 16.3373 144.699 16.4543 144.373 16.4348C144.066 16.4478 143.767 16.3633 143.519 16.1877C143.271 15.9795 143.147 15.6608 143.18 15.3356C143.134 14.9714 143.265 14.6137 143.519 14.3535C143.78 14.1649 144.099 14.0738 144.418 14.0868H145.598V15.108V15.1145ZM163.293 16.7861C163.149 16.9552 162.941 17.0592 162.719 17.0592H162.556C162.334 17.0527 162.126 16.9487 161.983 16.7861C161.826 16.5649 161.754 16.2917 161.781 16.0251C161.761 15.7454 161.846 15.4722 162.009 15.2446C162.165 15.056 162.406 14.9584 162.647 14.9714C162.888 14.9584 163.123 15.056 163.273 15.2446C163.553 15.7194 163.56 16.3048 163.293 16.7861Z" fill="white"/>
<path d="M129.07 18.7441C129.389 18.7766 129.721 18.7896 130.08 18.7896H132.296C132.296 18.7896 132.302 18.7896 132.309 18.7896H134.297C134.785 18.8352 135.268 18.6726 135.626 18.3344C135.926 17.9246 136.069 17.4238 136.024 16.9165V12.6888C136.024 12.6888 136.024 12.6628 136.024 12.6498C136.011 12.5782 135.946 12.5262 135.874 12.5392H134.088C134.088 12.5392 134.062 12.5392 134.049 12.5392C133.977 12.5522 133.932 12.6172 133.938 12.6888V16.2075C133.964 16.4286 133.899 16.6498 133.769 16.8254C133.619 16.949 133.423 17.014 133.228 16.9945H132.309C132.309 16.9945 132.302 16.9945 132.296 16.9945H130.536C130.451 16.9945 130.373 16.9945 130.288 17.0075C130.627 16.7669 130.908 16.4547 131.116 16.0969C131.338 15.7132 131.449 15.2839 131.442 14.8416C131.449 14.4644 131.37 14.0872 131.214 13.7424C131.064 13.4302 130.836 13.1571 130.556 12.9489C130.243 12.7213 129.891 12.5587 129.519 12.4611C129.076 12.3441 128.614 12.2855 128.157 12.292C127.695 12.292 127.238 12.3441 126.795 12.4611C126.424 12.5587 126.072 12.7278 125.759 12.9489C125.479 13.1571 125.251 13.4302 125.101 13.7424C124.768 14.4969 124.801 15.362 125.185 16.0969C125.387 16.4547 125.668 16.7604 126.007 16.9945H123.986H123.973H122.996V15.6156C123.009 15.0693 122.924 14.5294 122.735 14.0221C122.585 13.6254 122.344 13.2741 122.025 13.001C121.718 12.7473 121.366 12.5587 120.982 12.4611C120.571 12.3506 120.154 12.2985 119.73 12.2985C119.32 12.2985 118.909 12.3571 118.518 12.4741C118.134 12.5912 117.775 12.7863 117.475 13.053C117.156 13.3457 116.908 13.7034 116.745 14.1067C116.55 14.6205 116.452 15.1603 116.472 15.7067C116.38 16.5782 116.667 17.4433 117.254 18.0937C117.886 18.5945 118.681 18.8482 119.489 18.7896H120.917C120.923 19.0043 120.89 19.2189 120.825 19.4205C120.78 19.5701 120.688 19.7002 120.571 19.7978C120.454 19.8888 120.31 19.9539 120.161 19.9799C119.978 20.0189 119.789 20.0319 119.6 20.0319H117.893C117.893 20.0319 117.866 20.0319 117.853 20.0319C117.782 20.0449 117.736 20.11 117.743 20.1815V21.6775C117.743 21.6775 117.743 21.7035 117.743 21.7165C117.756 21.788 117.821 21.8336 117.893 21.8271H120.056C120.858 21.8986 121.647 21.6515 122.272 21.1506C122.787 20.5848 123.048 19.8368 122.983 19.0758V18.7961H123.993C123.993 18.7961 124.006 18.7961 124.012 18.7961H126.13C126.417 18.7961 126.75 18.7831 127.121 18.7506C127.486 18.7246 127.844 18.614 128.17 18.4384C128.444 18.6075 128.75 18.7181 129.076 18.7506L129.07 18.7441ZM120.904 16.9945H119.756C119.431 17.0075 119.105 16.91 118.844 16.7213C118.57 16.4286 118.44 16.0254 118.492 15.6286C118.473 15.2254 118.583 14.8286 118.811 14.5034C119.027 14.2237 119.372 14.0677 119.724 14.0872C120.506 14.0872 120.897 14.575 120.897 15.5571V16.9945H120.904ZM127.297 16.0969C127.043 15.7912 126.919 15.401 126.939 15.0042C126.906 14.6465 127.043 14.2953 127.304 14.0546C127.545 13.8595 127.844 13.7555 128.151 13.7555C128.457 13.7555 128.75 13.8595 128.985 14.0546C129.252 14.2953 129.389 14.6465 129.357 15.0042C129.376 15.401 129.246 15.7912 128.998 16.0969C128.763 16.3701 128.47 16.5847 128.144 16.7408C127.818 16.5847 127.532 16.3636 127.291 16.0969H127.297Z" fill="white"/>
<path d="M113.103 20.0832H111.617C111.617 20.0832 111.591 20.0832 111.578 20.0832C111.507 20.0962 111.461 20.1612 111.467 20.2328V21.6897C111.467 21.6897 111.467 21.7157 111.467 21.7287C111.48 21.8003 111.546 21.8458 111.617 21.8393H113.103C113.103 21.8393 113.129 21.8393 113.142 21.8393C113.214 21.8263 113.26 21.7612 113.253 21.6897V20.2328C113.253 20.2328 113.253 20.2067 113.253 20.1937C113.24 20.1222 113.175 20.0767 113.103 20.0832Z" fill="white"/>
<path d="M115.403 20.0832H113.904C113.904 20.0832 113.878 20.0832 113.865 20.0832C113.794 20.0962 113.748 20.1612 113.755 20.2328V21.6897C113.755 21.6897 113.755 21.7157 113.755 21.7287C113.768 21.8003 113.833 21.8458 113.904 21.8393H115.403C115.403 21.8393 115.429 21.8393 115.443 21.8393C115.514 21.8263 115.56 21.7612 115.553 21.6897V20.2328C115.553 20.2328 115.553 20.2067 115.553 20.1937C115.54 20.1222 115.475 20.0767 115.403 20.0832Z" fill="white"/>
<path d="M111.067 18.7957H113.055C113.544 18.8477 114.026 18.6786 114.384 18.3404C114.684 17.9306 114.828 17.4298 114.782 16.9225V12.6948C114.782 12.6948 114.782 12.6688 114.782 12.6558C114.769 12.5842 114.704 12.5387 114.632 12.5452H112.846C112.846 12.5452 112.82 12.5452 112.807 12.5452C112.736 12.5582 112.69 12.6232 112.696 12.6948V16.2135C112.723 16.4347 112.657 16.6558 112.527 16.8314C112.377 16.955 112.182 17.02 111.986 17.0005H110.657C110.422 17.007 110.194 16.9225 110.018 16.7664C109.835 16.5712 109.731 16.3176 109.738 16.0444C109.738 15.9859 109.738 15.9208 109.744 15.8558C109.751 15.7907 109.751 15.7257 109.751 15.6542C109.77 15.1013 109.679 14.5485 109.483 14.0281C109.327 13.6314 109.079 13.2802 108.76 12.994C108.454 12.7338 108.095 12.5452 107.711 12.4476C106.89 12.233 106.029 12.233 105.208 12.4476C104.824 12.5517 104.465 12.7403 104.159 12.994C103.839 13.2737 103.592 13.6314 103.435 14.0281C103.24 14.5485 103.149 15.1013 103.168 15.6542V15.9664C103.168 16.0574 103.168 16.155 103.181 16.246C103.168 16.4086 103.109 16.5712 103.012 16.7013C102.914 16.8184 102.797 16.9225 102.673 17.0135C102.536 17.1046 102.399 17.2021 102.256 17.2932C102.106 17.3908 101.969 17.5143 101.852 17.6509C101.721 17.807 101.617 17.9891 101.545 18.1843C101.461 18.4509 101.415 18.7306 101.428 19.0103V21.8266H103.54V19.3225C103.54 19.1794 103.559 19.0363 103.611 18.8997C103.657 18.8022 103.722 18.7111 103.8 18.6331C103.872 18.5615 103.95 18.4965 104.028 18.4314C104.12 18.3599 104.191 18.2753 104.25 18.1778C104.53 18.4379 104.863 18.62 105.228 18.7241C105.625 18.8347 106.042 18.8932 106.453 18.8867C106.955 18.8867 107.457 18.8152 107.932 18.6721C108.369 18.5355 108.76 18.2753 109.06 17.9241C109.171 18.1062 109.32 18.2623 109.496 18.3924C109.646 18.503 109.816 18.5875 109.998 18.6526C110.174 18.7111 110.35 18.7501 110.533 18.7631C110.709 18.7761 110.878 18.7826 111.054 18.7826C111.054 18.7826 111.061 18.7826 111.067 18.7826V18.7957ZM107.378 16.7664C106.85 17.2086 106.081 17.2086 105.553 16.7664C105.312 16.4216 105.208 16.0054 105.247 15.5891C105.247 14.594 105.651 14.0932 106.459 14.0932C107.268 14.0932 107.672 14.594 107.672 15.5891C107.711 16.0054 107.606 16.4216 107.378 16.7664Z" fill="white"/>
<path d="M50.5818 21.1505C51.0967 20.5846 51.3509 19.8367 51.2922 19.0757V15.6155C51.3053 15.0691 51.2205 14.5293 51.0315 14.022C50.8816 13.6252 50.6405 13.274 50.3211 13.0008C50.0148 12.7472 49.6629 12.5585 49.2784 12.461C48.8678 12.3504 48.4507 12.2984 48.027 12.2984C47.6164 12.2984 47.2059 12.3569 46.8148 12.474C46.4303 12.5911 46.0718 12.7862 45.772 13.0528C45.4527 13.3455 45.205 13.7033 45.0421 14.1065C44.8466 14.6203 44.7488 15.1602 44.7684 15.7065C44.7488 16.2529 44.8335 16.7992 45.0291 17.3196C45.1855 17.6968 45.4462 18.022 45.7851 18.2561C46.15 18.4903 46.5606 18.6399 46.9908 18.6919C47.5187 18.7635 48.0531 18.8025 48.5875 18.796H49.2132C49.2197 19.0171 49.1871 19.2448 49.1154 19.4594C49.0111 19.7586 48.7505 19.9732 48.4376 20.0058C48.2617 20.0318 48.0792 20.0448 47.9032 20.0448H46.1957C46.1957 20.0448 46.1696 20.0448 46.1566 20.0448C46.0849 20.0578 46.0392 20.1228 46.0458 20.1944V21.6903C46.0458 21.6903 46.0458 21.7163 46.0458 21.7294C46.0588 21.8009 46.124 21.8464 46.1957 21.8399H48.3659C49.1676 21.905 49.9562 21.6643 50.5818 21.157V21.1505ZM48.0661 16.9943C47.7403 17.0074 47.4144 16.9098 47.1537 16.7212C46.88 16.4285 46.7496 16.0252 46.8018 15.6285C46.7822 15.2317 46.893 14.835 47.1146 14.5033C47.3362 14.2236 47.6816 14.0675 48.0336 14.087C48.8156 14.087 49.2067 14.5748 49.2067 15.5569V16.9943H48.0596H48.0661Z" fill="white"/>
<path d="M21.8079 18.8551V12.6957C21.8079 12.6957 21.8079 12.6696 21.8079 12.6566C21.7949 12.5851 21.7297 12.5396 21.6581 12.5461H19.8462C19.8462 12.5461 19.8202 12.5461 19.8071 12.5461C19.7354 12.5591 19.6898 12.6241 19.6963 12.6957V18.7835C19.7224 19.1217 19.6312 19.4534 19.4356 19.7331C19.2075 19.9608 18.8882 20.0778 18.5623 20.0453H18.2365C18.2365 20.0453 18.2104 20.0453 18.1973 20.0453C18.1257 20.0583 18.08 20.1234 18.0866 20.1949V21.6909C18.0866 21.6909 18.0866 21.7169 18.0866 21.7299C18.0996 21.8014 18.1648 21.847 18.2365 21.8405H18.9143C19.7094 21.9055 20.4914 21.6388 21.0845 21.112C21.6124 20.4811 21.8666 19.6746 21.8014 18.8551H21.8079Z" fill="white"/>
<path d="M11.6986 18.0472C11.8485 18.3269 12.0961 18.5481 12.3959 18.6586C12.6892 18.7497 12.9955 18.7887 13.3018 18.7887C13.3018 18.7887 13.3149 18.7887 13.3214 18.7887H13.354C13.354 18.7887 13.3605 18.7887 13.367 18.7887H15.3157C15.8045 18.8407 16.2868 18.6716 16.6452 18.3334C16.945 17.9237 17.0884 17.4228 17.0428 16.9155V12.6878C17.0428 12.6878 17.0428 12.6618 17.0428 12.6488C17.0297 12.5773 16.9646 12.5317 16.8929 12.5382H15.1071C15.1071 12.5382 15.0811 12.5382 15.068 12.5382C14.9963 12.5513 14.9507 12.6163 14.9572 12.6878V16.2066C14.9833 16.4277 14.9181 16.6489 14.7878 16.8245C14.6379 16.948 14.4424 17.0131 14.2468 16.9936H13.0411C12.7544 17.0131 12.4741 16.9415 12.233 16.7854C12.044 16.6554 11.9267 16.4472 11.9136 16.2196V12.6878C11.9136 12.6878 11.9136 12.6618 11.9136 12.6488C11.9006 12.5773 11.8354 12.5317 11.7637 12.5382H9.95191C9.95191 12.5382 9.92584 12.5382 9.91281 12.5382C9.84112 12.5513 9.7955 12.6163 9.80202 12.6878V15.8814C9.82157 16.1806 9.78246 16.4797 9.67819 16.7594C9.59346 16.9155 9.39142 17.0001 9.07859 17.0001H3.50627C3.31075 17.0196 3.11523 16.9545 2.96534 16.831C2.82847 16.6554 2.76982 16.4342 2.79588 16.2131V13.6439C2.79588 13.6439 2.79588 13.6179 2.79588 13.6049C2.78285 13.5334 2.71768 13.4878 2.64599 13.4944H0.834169C0.834169 13.4944 0.8081 13.4944 0.795065 13.4944C0.723374 13.5074 0.677753 13.5724 0.68427 13.6439V16.922C0.645166 17.4293 0.78203 17.9302 1.08183 18.3334C1.44028 18.6716 1.92908 18.8342 2.41788 18.7887H9.80853C10.2256 18.8017 10.6362 18.7562 11.0338 18.6391C11.3271 18.5416 11.5682 18.3269 11.6986 18.0472Z" fill="white"/>
<path d="M149.636 11.095H153.025C153.083 11.095 153.116 11.0625 153.116 10.991V10.295C153.116 10.2235 153.09 10.1909 153.025 10.1909H151.46C151.343 10.1259 151.245 10.0413 151.161 9.93728C151.069 9.8137 151.017 9.66411 151.024 9.50801C151.017 9.34541 151.076 9.1828 151.193 9.06573C151.324 8.94866 151.493 8.89012 151.662 8.90313C151.806 8.90313 151.943 8.92914 152.073 8.99418C152.197 9.05923 152.308 9.13728 152.405 9.22833C152.458 9.28687 152.503 9.29988 152.542 9.26085L153.018 8.75353H153.025C153.064 8.708 153.07 8.64947 153.031 8.60394C152.888 8.41532 152.692 8.26572 152.471 8.17466C152.203 8.05109 151.91 7.99255 151.617 7.99905C151.356 7.99905 151.095 8.03808 150.848 8.12263C150.652 8.19418 150.476 8.31125 150.326 8.45434C150.196 8.59093 150.092 8.74703 150.027 8.92264C149.961 9.09175 149.929 9.26736 149.929 9.44947C149.929 9.59256 149.948 9.72915 149.987 9.86574C150.027 9.97631 150.072 10.0869 150.137 10.1909H149.622C149.564 10.1909 149.531 10.2235 149.531 10.295V10.9975C149.531 11.069 149.557 11.1015 149.622 11.1015L149.636 11.095Z" fill="white"/>
<path d="M144.875 10.4584H146.374C146.374 10.4584 146.4 10.4584 146.413 10.4584C146.485 10.4454 146.531 10.3804 146.524 10.3088V8.8519C146.524 8.8519 146.524 8.82588 146.524 8.81288C146.511 8.74133 146.446 8.6958 146.374 8.70231H144.875C144.875 8.70231 144.849 8.70231 144.836 8.70231C144.764 8.71531 144.719 8.78036 144.725 8.8519V10.3088C144.725 10.3088 144.725 10.3348 144.725 10.3479C144.738 10.4194 144.803 10.4649 144.875 10.4584Z" fill="white"/>
<path d="M142.578 10.4584H144.064C144.064 10.4584 144.09 10.4584 144.103 10.4584C144.175 10.4454 144.221 10.3804 144.214 10.3088V8.8519C144.214 8.8519 144.214 8.82588 144.214 8.81288C144.201 8.74133 144.136 8.6958 144.064 8.70231H142.578C142.578 8.70231 142.552 8.70231 142.539 8.70231C142.467 8.71531 142.422 8.78036 142.428 8.8519V10.3088C142.428 10.3088 142.428 10.3348 142.428 10.3479C142.441 10.4194 142.507 10.4649 142.578 10.4584Z" fill="white"/>
<path d="M135.285 11.0483H136.784C136.784 11.0483 136.81 11.0483 136.823 11.0483C136.895 11.0353 136.941 10.9702 136.934 10.8987V9.44175C136.934 9.44175 136.934 9.41573 136.934 9.40272C136.921 9.33118 136.856 9.28565 136.784 9.29215H135.285C135.285 9.29215 135.259 9.29215 135.246 9.29215C135.174 9.30516 135.129 9.3702 135.135 9.44175V10.8987C135.135 10.8987 135.135 10.9247 135.135 10.9377C135.148 11.0092 135.214 11.0548 135.285 11.0483Z" fill="white"/>
<path d="M132.992 11.0483H134.478C134.478 11.0483 134.504 11.0483 134.517 11.0483C134.589 11.0353 134.635 10.9702 134.628 10.8987V9.44175C134.628 9.44175 134.628 9.41573 134.628 9.40272C134.615 9.33118 134.55 9.28565 134.478 9.29215H132.992C132.992 9.29215 132.966 9.29215 132.953 9.29215C132.882 9.30516 132.836 9.3702 132.842 9.44175V10.8987C132.842 10.8987 132.842 10.9247 132.842 10.9377C132.855 11.0092 132.921 11.0548 132.992 11.0483Z" fill="white"/>
<path d="M128.588 11.0483H130.087C130.087 11.0483 130.113 11.0483 130.126 11.0483C130.198 11.0353 130.243 10.9702 130.237 10.8987V9.44175C130.237 9.44175 130.237 9.41573 130.237 9.40272C130.224 9.33118 130.159 9.28565 130.087 9.29215H128.588C128.588 9.29215 128.562 9.29215 128.549 9.29215C128.477 9.30516 128.432 9.3702 128.438 9.44175V10.8987C128.438 10.8987 128.438 10.9247 128.438 10.9377C128.451 11.0092 128.516 11.0548 128.588 11.0483Z" fill="white"/>
<path d="M126.299 11.0483H127.785C127.785 11.0483 127.811 11.0483 127.824 11.0483C127.896 11.0353 127.941 10.9702 127.935 10.8987V9.44175C127.935 9.44175 127.935 9.41573 127.935 9.40272C127.922 9.33118 127.857 9.28565 127.785 9.29215H126.299C126.299 9.29215 126.273 9.29215 126.26 9.29215C126.188 9.30516 126.143 9.3702 126.149 9.44175V10.8987C126.149 10.8987 126.149 10.9247 126.149 10.9377C126.162 11.0092 126.227 11.0548 126.299 11.0483Z" fill="white"/>
<path d="M94.7808 8.70169H96.4883C96.5926 8.70169 96.6773 8.78624 96.6773 8.89031V18.6075C96.6773 18.7115 96.5926 18.7961 96.4883 18.7961H94.7808C94.6765 18.7961 94.5918 18.7115 94.5918 18.6075V8.89031C94.5918 8.78624 94.6765 8.70169 94.7808 8.70169Z" fill="white"/>
<path d="M70.171 21.8334C70.2427 21.8204 70.2883 21.7554 70.2818 21.6838V20.2269C70.2818 20.2269 70.2818 20.2009 70.2818 20.1879C70.2688 20.1163 70.2036 20.0708 70.1319 20.0773H68.6329C68.6329 20.0773 68.6069 20.0773 68.5938 20.0773C68.5221 20.0903 68.4765 20.1554 68.483 20.2269V21.6838C68.483 21.6838 68.483 21.7098 68.483 21.7228C68.4961 21.7944 68.5612 21.8399 68.6329 21.8334H70.1319C70.1319 21.8334 70.158 21.8334 70.171 21.8334Z" fill="white"/>
<path d="M67.8709 21.8334C67.9426 21.8204 67.9882 21.7554 67.9817 21.6838V20.2269C67.9817 20.2269 67.9817 20.2009 67.9817 20.1879C67.9686 20.1163 67.9035 20.0708 67.8318 20.0773H66.3458C66.3458 20.0773 66.3198 20.0773 66.3067 20.0773C66.235 20.0903 66.1894 20.1554 66.1959 20.2269V21.6838C66.1959 21.6838 66.1959 21.7098 66.1959 21.7228C66.209 21.7944 66.2741 21.8399 66.3458 21.8334H67.8318C67.8318 21.8334 67.8578 21.8334 67.8709 21.8334Z" fill="white"/>
<path d="M85.0392 11.0434H86.5251C86.5251 11.0434 86.5512 11.0434 86.5642 11.0434C86.6359 11.0304 86.6815 10.9653 86.675 10.8938V9.43686C86.675 9.43686 86.675 9.41085 86.675 9.39784C86.662 9.32629 86.5968 9.28076 86.5251 9.28727H85.0392C85.0392 9.28727 85.0131 9.28727 85.0001 9.28727C84.9284 9.30028 84.8828 9.36532 84.8893 9.43686V10.8873C84.8893 10.8873 84.8893 10.9133 84.8893 10.9263C84.9023 10.9979 84.9675 11.0434 85.0392 11.0369V11.0434Z" fill="white"/>
<path d="M87.3263 11.0434H88.8253C88.8253 11.0434 88.8513 11.0434 88.8644 11.0434C88.9361 11.0304 88.9817 10.9653 88.9752 10.8938V9.43686C88.9752 9.43686 88.9752 9.41085 88.9752 9.39784C88.9621 9.32629 88.897 9.28076 88.8253 9.28727H87.3263C87.3263 9.28727 87.3002 9.28727 87.2872 9.28727C87.2155 9.30028 87.1699 9.36532 87.1764 9.43686V10.8873C87.1764 10.8873 87.1764 10.9133 87.1764 10.9263C87.1894 10.9979 87.2546 11.0434 87.3263 11.0369V11.0434Z" fill="white"/>
<path d="M91.0726 18.7967C91.5614 18.8422 92.0502 18.6796 92.4087 18.3414C92.7085 17.9317 92.8519 17.4308 92.8128 16.9235V8.8519C92.8128 8.8519 92.8128 8.82589 92.8128 8.81288C92.7997 8.74133 92.7346 8.6958 92.6629 8.70231H90.8511C90.8511 8.70231 90.825 8.70231 90.8119 8.70231C90.7403 8.71531 90.6946 8.78036 90.7011 8.8519V16.2146C90.7272 16.4357 90.662 16.6569 90.5317 16.8325C90.3818 16.956 90.1863 17.0211 89.9908 17.0016H89.4759C89.4759 17.0016 89.4629 17.0016 89.4498 17.0016H89.1109C88.8242 17.0211 88.5374 16.943 88.3028 16.7869C88.1138 16.6503 87.9965 16.4357 87.9834 16.2016V12.7023C87.9834 12.7023 87.9834 12.6763 87.9834 12.6633C87.9704 12.5918 87.9052 12.5462 87.8335 12.5527H86.0478C86.0478 12.5527 86.0217 12.5527 86.0087 12.5527C85.937 12.5658 85.8914 12.6308 85.8979 12.7023V15.7853C85.9174 16.104 85.8783 16.4227 85.7806 16.7284C85.7024 16.9105 85.5003 17.0016 85.1875 17.0016H84.262C84.262 17.0016 84.2294 17.0081 84.2164 17.0081H82.3068C82.196 17.0081 82.0787 17.0081 81.9744 16.9951C82.1569 16.865 82.3264 16.7219 82.4893 16.5723C82.6653 16.4097 82.8217 16.2211 82.9586 16.026C83.0954 15.8243 83.2127 15.5967 83.2909 15.3625C83.3757 15.1154 83.4148 14.8617 83.4148 14.6016C83.4148 14.2894 83.3496 13.9772 83.2127 13.691C83.0694 13.3983 82.8478 13.1446 82.5806 12.956C82.2482 12.7284 81.8767 12.5658 81.4856 12.4747C80.9708 12.3511 80.4429 12.2926 79.915 12.3056C79.4979 12.3056 79.0807 12.3381 78.6702 12.4032C78.2921 12.4617 77.9141 12.5462 77.5492 12.6568C77.2689 12.7414 76.9952 12.8519 76.741 12.995C76.5325 13.1186 76.4282 13.2422 76.4282 13.3723V14.3414C76.4282 14.4585 76.4412 14.5755 76.4738 14.6926C76.5064 14.7772 76.5651 14.8552 76.6367 14.9072C77.0017 15.1674 77.3406 15.4601 77.6469 15.7918C77.9467 16.1105 78.1748 16.4942 78.3182 16.9105C78.1357 16.9625 77.9467 16.9886 77.7642 17.0016C77.5687 17.0146 77.3928 17.0146 77.2233 17.0146H75.3268C75.04 17.0341 74.7532 16.9625 74.5056 16.8064C74.3166 16.6634 74.1993 16.4487 74.1928 16.2146V8.8519C74.1928 8.8519 74.1928 8.82589 74.1928 8.81288C74.1797 8.74133 74.1145 8.6958 74.0429 8.70231H72.231C72.231 8.70231 72.205 8.70231 72.1919 8.70231C72.1202 8.71531 72.0746 8.78036 72.0811 8.8519V15.6487C72.0811 15.8699 72.0811 16.0585 72.0681 16.2276C72.0681 16.3707 72.0355 16.5138 71.9899 16.6503C71.9508 16.7609 71.8726 16.852 71.7748 16.9105C71.651 16.9756 71.5141 17.0081 71.3707 17.0016H70.8428C70.8428 17.0016 70.8428 17.0016 70.8363 17.0016H70.4974C70.2107 17.0211 69.9239 16.943 69.6893 16.7869C69.5003 16.6503 69.383 16.4357 69.3699 16.2016V12.6958C69.3699 12.6958 69.3699 12.6698 69.3699 12.6568C69.3569 12.5853 69.2917 12.5397 69.22 12.5462H67.4343C67.4343 12.5462 67.4082 12.5462 67.3952 12.5462C67.3235 12.5593 67.2779 12.6243 67.2844 12.6958V15.7788C67.3039 16.0975 67.2648 16.4162 67.1671 16.7219C67.0889 16.904 66.8868 16.9951 66.574 16.9951H65.655C65.655 16.9951 65.6485 16.9951 65.642 16.9951C65.6355 16.9951 65.629 16.9951 65.6225 16.9951H65.2054C64.9707 17.0016 64.7426 16.9235 64.5667 16.7674C64.3842 16.5723 64.2799 16.3186 64.2864 16.0455C64.2864 15.9869 64.2864 15.9219 64.2929 15.8568C64.2994 15.7918 64.2994 15.7268 64.2994 15.6552C64.319 15.1024 64.2278 14.5495 64.0322 14.0292C63.8758 13.6324 63.6282 13.2812 63.3088 12.995C63.0025 12.7349 62.644 12.5462 62.2595 12.4487C61.4383 12.234 60.578 12.234 59.7569 12.4487C59.3723 12.5527 59.0139 12.7414 58.7076 12.995C58.3882 13.2747 58.1406 13.6324 57.9841 14.0292C57.7886 14.5495 57.6974 15.1024 57.7169 15.6552V15.9674C57.7169 16.0585 57.7169 16.156 57.73 16.2471C57.7235 16.4097 57.6583 16.5723 57.5605 16.7024C57.4628 16.8195 57.3455 16.9235 57.2216 17.0146C57.0848 17.1056 56.9479 17.2032 56.8045 17.2943C56.6546 17.3918 56.5177 17.5154 56.4004 17.652C56.2701 17.8081 56.1658 17.9902 56.0941 18.1853C56.0094 18.452 55.9638 18.7317 55.9768 19.0113V21.8276H58.0884V19.3235C58.0884 19.1805 58.108 19.0374 58.1601 18.9008C58.2057 18.8032 58.2709 18.7122 58.3491 18.6341C58.4208 18.5626 58.499 18.4975 58.5772 18.4325C58.6685 18.3609 58.7402 18.2764 58.7988 18.1788C59.0791 18.439 59.4114 18.6276 59.7764 18.7252C60.174 18.8357 60.5911 18.8943 61.0082 18.8878C61.51 18.8878 62.0119 18.8227 62.4876 18.6731C62.9243 18.5365 63.3153 18.2764 63.6151 17.9252C63.7259 18.1073 63.8758 18.2634 64.0453 18.3935C64.2017 18.504 64.3646 18.5886 64.5471 18.6536C64.7231 18.7122 64.899 18.7512 65.0815 18.7642C65.264 18.7772 65.4465 18.7837 65.6225 18.7837H65.6355C65.6355 18.7837 65.642 18.7837 65.6485 18.7837H67.1801C67.6102 18.7967 68.0404 18.7512 68.4575 18.6536C68.7703 18.5626 69.0245 18.3414 69.1614 18.0422C69.3113 18.3219 69.5589 18.543 69.8587 18.6536C70.1781 18.7512 70.5105 18.7902 70.8428 18.7837H72.1984C72.5895 18.7967 72.9805 18.7447 73.352 18.6276C73.6323 18.5235 73.8669 18.3154 73.9972 18.0422C74.1471 18.3284 74.3948 18.543 74.6946 18.6536C75.0009 18.7447 75.3137 18.7837 75.6331 18.7837C75.6461 18.7837 75.6526 18.7837 75.6657 18.7837H77.9076C78.2335 18.7837 78.5659 18.7447 78.8917 18.6861C79.2567 18.6211 79.6086 18.4975 79.9345 18.3219C80.2148 18.4975 80.5211 18.6211 80.8469 18.6861C81.1793 18.7512 81.5247 18.7837 81.8636 18.7837H84.2229C84.2229 18.7837 84.2425 18.7837 84.2555 18.7772C84.2555 18.7772 84.2555 18.7772 84.262 18.7772H85.7936C86.2237 18.7902 86.6539 18.7447 87.071 18.6471C87.3838 18.5561 87.638 18.3349 87.7749 18.0357C87.9248 18.3219 88.1724 18.5365 88.4722 18.6471C88.7655 18.7317 89.0653 18.7707 89.3651 18.7772C89.3977 18.7772 89.4303 18.7902 89.4694 18.7837H91.0792L91.0726 18.7967ZM61.9141 16.7674C61.3862 17.2162 60.6172 17.2162 60.0892 16.7674C59.8481 16.4227 59.7438 16.0064 59.7829 15.5902C59.7829 14.595 60.187 14.0942 60.9952 14.0942C61.8033 14.0942 62.2074 14.595 62.2074 15.5902C62.2465 16.0064 62.1422 16.4227 61.9141 16.7674ZM80.9121 15.9154C80.684 16.2081 80.4038 16.4552 80.0844 16.6438C79.9671 16.1951 79.7781 15.7723 79.5174 15.3885C79.2502 14.9788 78.9113 14.6276 78.5072 14.3544C78.6767 14.2763 78.8461 14.2243 79.0286 14.1853C79.3219 14.1202 79.6217 14.0877 79.9215 14.0877C80.2604 14.0682 80.5993 14.1463 80.8926 14.3089C81.1272 14.4585 81.2641 14.7251 81.2445 15.0048C81.2445 15.3365 81.1207 15.6552 80.9121 15.9089V15.9154Z" fill="white"/>
<path d="M41.3081 8.70169H43.0157C43.12 8.70169 43.2047 8.78624 43.2047 8.89031V18.6075C43.2047 18.7115 43.12 18.7961 43.0157 18.7961H41.3081C41.2039 18.7961 41.1191 18.7115 41.1191 18.6075V8.89031C41.1191 8.78624 41.2039 8.70169 41.3081 8.70169Z" fill="white"/>
<path d="M33.8497 11.0434H35.3487C35.3487 11.0434 35.3748 11.0434 35.3878 11.0434C35.4595 11.0304 35.5051 10.9653 35.4986 10.8938V9.43686C35.4986 9.43686 35.4986 9.41085 35.4986 9.39784C35.4856 9.32629 35.4204 9.28076 35.3487 9.28727H33.8497C33.8497 9.28727 33.8237 9.28727 33.8106 9.28727C33.7389 9.30028 33.6933 9.36532 33.6998 9.43686V10.8873C33.6998 10.8873 33.6998 10.9133 33.6998 10.9263C33.7129 10.9979 33.778 11.0434 33.8497 11.0369V11.0434Z" fill="white"/>
<path d="M31.5626 11.0434H33.0486C33.0486 11.0434 33.0746 11.0434 33.0877 11.0434C33.1594 11.0304 33.205 10.9653 33.1985 10.8938V9.43686C33.1985 9.43686 33.1985 9.41085 33.1985 9.39784C33.1854 9.32629 33.1203 9.28076 33.0486 9.28727H31.5626C31.5626 9.28727 31.5366 9.28727 31.5235 9.28727C31.4518 9.30028 31.4062 9.36532 31.4127 9.43686V10.8873C31.4127 10.8873 31.4127 10.9133 31.4127 10.9263C31.4258 10.9979 31.4909 11.0434 31.5626 11.0369V11.0434Z" fill="white"/>
<path d="M39.1887 8.70231H37.3769C37.3769 8.70231 37.3508 8.70231 37.3378 8.70231C37.2661 8.71532 37.2205 8.78036 37.227 8.8519V16.2146C37.2531 16.4357 37.1879 16.6569 37.0575 16.8325C36.9076 16.956 36.7121 17.0211 36.5166 17.0016H36.0017C36.0017 17.0016 35.9887 17.0016 35.9757 17.0016H35.6367C35.35 17.0211 35.0632 16.943 34.8286 16.7869C34.6396 16.6504 34.5223 16.4357 34.5093 16.2016V12.7023C34.5093 12.7023 34.5093 12.6763 34.5093 12.6633C34.4962 12.5918 34.431 12.5462 34.3594 12.5528H32.5736C32.5736 12.5528 32.5475 12.5528 32.5345 12.5528C32.4628 12.5658 32.4172 12.6308 32.4237 12.7023V15.7853C32.4433 16.104 32.4042 16.4227 32.3064 16.7284C32.2282 16.9105 32.0261 17.0016 31.7133 17.0016H30.7944C30.7944 17.0016 30.7683 17.0081 30.7488 17.0081H30.4164C30.1296 17.0211 29.8494 16.9495 29.6082 16.7934C29.4192 16.6569 29.3019 16.4422 29.2889 16.2081V14.9723C29.3671 14.2048 29.0934 13.4438 28.5394 12.9105C27.9202 12.4747 27.1642 12.2601 26.4082 12.3121H24.075C24.075 12.3121 24.0489 12.3121 24.0359 12.3121C23.9642 12.3251 23.9186 12.3901 23.9251 12.4617V13.9576C23.9251 13.9576 23.9251 13.9837 23.9251 13.9967C23.9381 14.0682 24.0033 14.1137 24.075 14.1072H25.7825C26.1345 14.0812 26.4864 14.1723 26.7862 14.3674C27.0274 14.5755 27.1512 14.8877 27.1186 15.2064V16.0064C27.1186 16.1625 27.1056 16.3251 27.0795 16.4812C27.0599 16.5983 27.0078 16.7024 26.9296 16.7934C26.8384 16.8845 26.721 16.943 26.5972 16.9625C26.4017 17.0016 26.1997 17.0211 26.0041 17.0146H23.4493C23.4493 17.0146 23.4233 17.0146 23.4102 17.0146C23.3386 17.0276 23.2929 17.0926 23.2994 17.1642V18.6601C23.2994 18.6601 23.2994 18.6861 23.2994 18.6992C23.3125 18.7707 23.3777 18.8162 23.4493 18.8097H27.0469C27.4445 18.8227 27.842 18.7577 28.2135 18.6276C28.5263 18.504 28.7936 18.2699 28.95 17.9642C29.0999 18.2764 29.3606 18.517 29.6864 18.6471C30.0318 18.7642 30.3903 18.8162 30.7488 18.8097C30.7618 18.8097 30.7683 18.8097 30.7813 18.8032C30.7813 18.8032 30.7879 18.8032 30.7944 18.8032H32.3259C32.7561 18.8162 33.1862 18.7707 33.6033 18.6731C33.9162 18.5821 34.1704 18.3609 34.3072 18.0617C34.4571 18.3479 34.7048 18.5626 35.0046 18.6731C35.2913 18.7577 35.5976 18.7967 35.8974 18.8032C35.93 18.8032 35.9691 18.8162 36.0017 18.8097H37.6115C38.1003 18.8618 38.5891 18.6926 38.9476 18.3544C39.2474 17.9447 39.3907 17.4439 39.3516 16.9365V8.8519C39.3516 8.8519 39.3516 8.82589 39.3516 8.81288C39.3386 8.74133 39.2734 8.6958 39.2017 8.70231H39.1887Z" fill="white"/>
</svg>
